<?xml version="1.0" standalone="no"?>
<!DOCTYPE svg PUBLIC "-//W3C//DTD SVG 1.1//EN" "http://www.w3.org/Graphics/SVG/1.1/DTD/svg11.dtd" >
<svg xmlns="http://www.w3.org/2000/svg" xmlns:xlink="http://www.w3.org/1999/xlink" version="1.1">
<metadata>
Created by FontForge 20170731 at Fri Jul  7 17:22:52 2017
 By ,,,
2013 published by FontShop International GmbH
</metadata>
<defs>
<font id="BOG2017-Medium" horiz-adv-x="600" >
  <font-face 
    font-family="BOG 2017 Medium"
    font-weight="500"
    font-stretch="normal"
    units-per-em="1000"
    panose-1="2 11 8 4 2 1 1 1 1 2"
    ascent="800"
    descent="-200"
    x-height="476"
    cap-height="700"
    bbox="-676 -236 1557 1106"
    underline-thickness="58"
    underline-position="-188"
    unicode-range="U+000D-FEFF"
  />
<missing-glyph horiz-adv-x="596" 
d="M514 700v-700h-431v700h431zM442 629h-287v-557h287v557z" />
    <glyph glyph-name="fi" unicode="fi" horiz-adv-x="682" 
d="M216 400v-400h-85v400h-106v76h106v73q0 84 40.5 132.5t122.5 48.5q72 0 135 -38l-33 -68q-45 27 -95 27q-85 0 -85 -102v-73h183v-76h-183zM597.5 681.5q16.5 -16.5 16.5 -40.5t-16.5 -40t-40.5 -16t-40 16t-16 40t16 40.5t40 16.5t40.5 -16.5zM516 0v476h84v-476h-84z
" />
    <glyph glyph-name="fl" unicode="fl" horiz-adv-x="682" 
d="M216 400v-400h-85v400h-106v76h106v73q0 84 40.5 132.5t122.5 48.5q72 0 135 -38l-33 -68q-45 27 -95 27q-85 0 -85 -102v-73h183v-76h-183zM516 0v720h84v-720h-84z" />
    <glyph glyph-name="f_f" unicode="ff" horiz-adv-x="852" 
d="M216 400v-400h-85v400h-106v76h106v73q0 84 40.5 132.5t122.5 48.5q72 0 135 -38l-33 -68q-45 27 -95 27q-85 0 -85 -102v-73h183v-76h-183zM635 400v-400h-85v400h-105v76h105v73q0 84 41 132.5t122 48.5q73 0 135 -38l-32 -68q-47 27 -96 27q-85 0 -85 -102v-73h183
v-76h-183z" />
    <glyph glyph-name="f_f_i" unicode="ffi" horiz-adv-x="1101" 
d="M216 400v-400h-85v400h-106v76h106v73q0 84 40.5 132.5t122.5 48.5q72 0 135 -38l-33 -68q-45 27 -95 27q-85 0 -85 -102v-73h183v-76h-183zM635 400v-400h-85v400h-105v76h105v73q0 84 41 132.5t122 48.5q73 0 135 -38l-32 -68q-47 27 -96 27q-85 0 -85 -102v-73h183
v-76h-183zM1017 681.5q16 -16.5 16 -40.5t-16 -40t-40 -16t-40 16t-16 40t16 40.5t40 16.5t40 -16.5zM935 0v476h84v-476h-84z" />
    <glyph glyph-name="f_f_l" unicode="ffl" horiz-adv-x="1101" 
d="M216 400v-400h-85v400h-106v76h106v73q0 84 40.5 132.5t122.5 48.5q72 0 135 -38l-33 -68q-45 27 -95 27q-85 0 -85 -102v-73h183v-76h-183zM635 400v-400h-85v400h-105v76h105v73q0 84 41 132.5t122 48.5q73 0 135 -38l-32 -68q-47 27 -96 27q-85 0 -85 -102v-73h183
v-76h-183zM935 0v720h84v-720h-84z" />
    <glyph glyph-name=".notdef" horiz-adv-x="596" 
d="M514 700v-700h-431v700h431zM442 629h-287v-557h287v557z" />
    <glyph glyph-name=".null" horiz-adv-x="0" 
 />
    <glyph glyph-name="nonmarkingreturn" unicode="&#xd;" horiz-adv-x="259" 
 />
    <glyph glyph-name="space" unicode=" " horiz-adv-x="259" 
 />
    <glyph glyph-name="exclam" unicode="!" horiz-adv-x="267" 
d="M95 227l-13 473h102l-12 -473h-77zM179.5 102.5q19.5 -19.5 19.5 -45.5t-19.5 -46t-46.5 -20q-26 0 -45.5 20t-19.5 46t19.5 45.5t45.5 19.5q27 0 46.5 -19.5z" />
    <glyph glyph-name="quotedbl" unicode="&#x22;" horiz-adv-x="527" 
d="M218 457h-84v263h84v-263zM393 457h-84v263h84v-263z" />
    <glyph glyph-name="numbersign" unicode="#" horiz-adv-x="731" 
d="M278 700h78l-38 -179h167l38 179h79l-39 -179h111l-16 -73h-110l-41 -192h110l-15 -73h-111l-38 -183h-79l39 183h-167l-39 -183h-78l39 183h-111l16 73h111l40 192h-111l16 73h111zM429 256l40 192h-167l-40 -192h167z" />
    <glyph glyph-name="dollar" unicode="$" horiz-adv-x="700" 
d="M320 6q-67 4 -132 26t-108 56l45 69q34 -26 87 -46t108 -26l-1 229l-16 2q-96 12 -149.5 57t-53.5 123q0 84 61 136.5t158 61.5v95h75v-95q121 -8 217 -72l-42 -70q-80 52 -175 62v-226l24 -3q93 -14 147.5 -57t54.5 -119q0 -89 -63 -140.5t-163 -61.5v-99h-74v98z
M319 612q-59 -6 -94.5 -35.5t-36.5 -75.5q0 -82 131 -102v213zM494 123.5q37 28.5 38 77.5q0 81 -138 102v-215q63 7 100 35.5z" />
    <glyph glyph-name="percent" unicode="%" horiz-adv-x="969" 
d="M323.5 686q42.5 -24 67 -65.5t24.5 -92.5q0 -52 -24.5 -93.5t-67 -65.5t-94.5 -24q-51 0 -93 24t-66 65.5t-24 93.5q0 51 24 92.5t66 65.5t93 24q52 0 94.5 -24zM215 0l452 700h86l-451 -700h-87zM151.5 607.5q-31.5 -31.5 -31.5 -79.5t31.5 -80t77.5 -32q48 0 79.5 31.5
t31.5 80.5t-31.5 80t-79.5 31q-46 0 -77.5 -31.5zM833 331q42 -24 66 -65.5t24 -92.5q0 -52 -24 -93.5t-66 -65.5t-94 -24t-94 24t-66 65.5t-24 93.5q0 51 24 92.5t66 65.5t94 24t94 -24zM660.5 253q-31.5 -31 -31.5 -80t31.5 -80.5t78.5 -31.5t78.5 31.5t31.5 80.5t-31 80
t-79 31q-47 0 -78.5 -31z" />
    <glyph glyph-name="ampersand" unicode="&#x26;" horiz-adv-x="707" 
d="M469 100q-44 -52 -95 -81t-118 -29q-94 0 -148.5 47.5t-54.5 128.5q0 62 36 109t100 96q-54 54 -76.5 92.5t-22.5 86.5q0 45 23 81.5t64 57.5t93 21t93 -20t64 -56t23 -81q0 -54 -35 -96.5t-100 -89.5l149 -145l110 158l65 -43l-117 -171l169 -166h-119zM194.5 492
q16.5 -24 64.5 -71q52 37 78 66t26 63q0 36 -25.5 59t-67.5 23t-67 -24t-25 -63q0 -29 16.5 -53zM342.5 90q35.5 22 70.5 65l-168 162q-49 -37 -75.5 -71.5t-26.5 -74.5q0 -46 33 -74.5t86 -28.5q45 0 80.5 22z" />
    <glyph glyph-name="quotesingle" unicode="'" horiz-adv-x="352" 
d="M218 457h-84v263h84v-263z" />
    <glyph glyph-name="parenleft" unicode="(" horiz-adv-x="408" 
d="M214.5 503q-57.5 -97 -57.5 -219q0 -121 57.5 -218.5t155.5 -137.5l-28 -77q-81 30 -143 94t-96.5 151.5t-34.5 187.5t34.5 187.5t96.5 151.5t143 94l28 -76q-98 -41 -155.5 -138z" />
    <glyph glyph-name="parenright" unicode=")" horiz-adv-x="408" 
d="M193.5 66q57.5 97 57.5 219t-57.5 219t-155.5 137l28 76q81 -30 143 -93.5t96.5 -151t34.5 -187.5t-34.5 -187.5t-96.5 -151.5t-143 -94l-28 76q98 41 155.5 138z" />
    <glyph glyph-name="asterisk" unicode="*" horiz-adv-x="449" 
d="M192 720h65l-1 -131l125 41l20 -62l-125 -40l78 -106l-52 -38l-77 107l-77 -107l-52 38l77 106l-125 40l20 62l125 -42z" />
    <glyph glyph-name="plus" unicode="+" 
d="M262 228h-181v73h181v184h75v-184h182v-73h-182v-182h-75v182z" />
    <glyph glyph-name="comma" unicode="," horiz-adv-x="253" 
d="M133 -131h-72l32 263h96z" />
    <glyph glyph-name="hyphen" unicode="-" horiz-adv-x="414" 
d="M67 227v75h280v-75h-280z" />
    <glyph glyph-name="period" unicode="." horiz-adv-x="266" 
d="M180 104q20 -20 20 -47q0 -26 -20 -46.5t-47 -20.5q-26 0 -46 20.5t-20 46.5q0 27 20 47t46 20q27 0 47 -20z" />
    <glyph glyph-name="slash" unicode="/" horiz-adv-x="502" 
d="M-6 -100l425 870h90l-424 -870h-91z" />
    <glyph glyph-name="zero" unicode="0" horiz-adv-x="708" 
d="M501.5 666.5q66.5 -43.5 105.5 -125.5t39 -191t-39 -190.5t-105.5 -125.5t-147.5 -44t-147.5 44t-105 125.5t-38.5 190.5t38.5 191t105 125.5t147.5 43.5t147.5 -43.5zM252 593.5q-46 -32.5 -72.5 -95t-26.5 -148.5t26.5 -148.5t72.5 -95t102 -32.5t102 32.5t72.5 95
t26.5 148.5t-26.5 148.5t-72.5 95t-102 32.5t-102 -32.5z" />
    <glyph glyph-name="one" unicode="1" horiz-adv-x="422" 
d="M235 0v584l-203 -86v89l290 121v-708h-87z" />
    <glyph glyph-name="two" unicode="2" horiz-adv-x="552" 
d="M260 710q70 0 121 -28t78 -77.5t27 -111.5q0 -59 -25.5 -106.5t-70.5 -95.5l-200 -209h319v-82h-446v68l262 273q34 36 52.5 72t18.5 77q0 59 -37.5 98t-102.5 39q-53 0 -89.5 -23.5t-66.5 -64.5l-59 53q81 118 219 118z" />
    <glyph glyph-name="three" unicode="3" horiz-adv-x="558" 
d="M376.5 686q53.5 -24 83 -68t29.5 -100q0 -61 -30.5 -102.5t-83.5 -61.5q60 -21 94.5 -63.5t34.5 -102.5q0 -64 -34 -108.5t-89.5 -67t-120.5 -22.5q-72 0 -130.5 24.5t-97.5 68.5l53 59q32 -34 77 -52.5t95 -18.5q68 0 112.5 31.5t44.5 91.5q0 56 -47 88t-117 32h-91v79
h91q65 0 107 31t42 88q0 53 -42.5 85.5t-107.5 32.5q-49 0 -88.5 -21.5t-65.5 -56.5l-59 54q35 47 90 75.5t128 28.5q69 0 122.5 -24z" />
    <glyph glyph-name="four" unicode="4" horiz-adv-x="579" 
d="M555 226v-82h-117v-144h-86v144h-327v65l255 491h98l-249 -474h223v195h86v-195h117z" />
    <glyph glyph-name="five" unicode="5" horiz-adv-x="579" 
d="M184 619l-7 -196h99q80 0 135.5 -27t83.5 -74t28 -106q0 -70 -32 -121t-87.5 -78t-124.5 -27q-74 0 -134 27.5t-104 79.5l53 59q33 -39 82 -61t103 -22q71 0 112 38.5t41 98.5q0 59 -44 96t-137 37h-154l9 357h383v-81h-305z" />
    <glyph glyph-name="six" unicode="6" horiz-adv-x="581" 
d="M300 449q68 0 123.5 -30t86.5 -82t31 -116q0 -65 -33 -118t-90.5 -83t-128.5 -30t-128.5 30t-90.5 82.5t-33 117.5q0 40 13.5 78t40.5 81l205 321h106l-174 -264q36 13 72 13zM206.5 351.5q-36.5 -19.5 -57.5 -53.5t-21 -77q0 -66 45.5 -108.5t115.5 -42.5t115.5 42.5
t45.5 108.5q0 43 -21 77t-57.5 53.5t-82.5 19.5t-82.5 -19.5z" />
    <glyph glyph-name="seven" unicode="7" horiz-adv-x="548" 
d="M206 0h-102l309 619h-376v81h480v-68z" />
    <glyph glyph-name="eight" unicode="8" horiz-adv-x="631" 
d="M439 687q56 -23 89 -66.5t33 -102.5q0 -60 -31 -100.5t-84 -63.5q60 -22 96 -63.5t36 -103.5q0 -61 -35 -105.5t-95 -68t-133 -23.5t-132.5 23.5t-94.5 68t-35 105.5q0 62 35.5 103.5t95.5 63.5q-52 23 -83 63.5t-31 100.5q0 59 32.5 102.5t88.5 66.5t124 23t124 -23z
M205.5 599q-43.5 -31 -43.5 -87q0 -58 43.5 -90t109.5 -32t110 32t44 90q0 56 -44 87t-110 31t-109.5 -31zM194 284.5q-48 -32.5 -48 -91.5q0 -58 48 -90.5t121 -32.5t121 32.5t48 90.5q0 59 -48 91.5t-121 32.5t-121 -32.5z" />
    <glyph glyph-name="nine" unicode="9" horiz-adv-x="581" 
d="M281 251q-68 0 -123 30t-86 82.5t-31 116.5q0 65 32.5 117.5t90 82.5t128.5 30t128.5 -30t90 -82.5t32.5 -116.5q0 -41 -13.5 -79.5t-39.5 -79.5l-205 -322h-106l173 265q-33 -14 -71 -14zM407.5 372.5q45.5 42.5 46.5 107.5q0 43 -21 77t-58 53.5t-83 19.5t-82.5 -19.5
t-57.5 -53.5t-21 -77t21 -77t57.5 -53.5t82.5 -19.5q70 0 115.5 42.5z" />
    <glyph glyph-name="colon" unicode=":" horiz-adv-x="266" 
d="M180 465.5q20 -19.5 20 -46.5q0 -26 -20 -46t-47 -20q-26 0 -46 20t-20 46q0 27 20 46.5t46 19.5q27 0 47 -19.5zM180 104q20 -20 20 -46q0 -27 -20 -47t-47 -20q-26 0 -46 20t-20 47q0 26 20 46t46 20q27 0 47 -20z" />
    <glyph glyph-name="semicolon" unicode=";" horiz-adv-x="253" 
d="M178 465.5q20 -19.5 20 -46.5q0 -26 -20 -46t-46 -20q-27 0 -46.5 20t-19.5 46q0 27 19.5 46.5t46.5 19.5q26 0 46 -19.5zM133 -131h-72l32 263h96z" />
    <glyph glyph-name="less" unicode="&#x3c;" 
d="M104 225v80l393 187v-87l-312 -140l312 -140v-87z" />
    <glyph glyph-name="equal" unicode="=" 
d="M81 323v73h438v-73h-438zM81 133v74h438v-74h-438z" />
    <glyph glyph-name="greater" unicode="&#x3e;" 
d="M497 305v-80l-393 -187v87l312 140l-312 140v87z" />
    <glyph glyph-name="question" unicode="?" horiz-adv-x="432" 
d="M101 386h34q83 0 129 32t46 90q0 54 -46 85t-126 31q-13 0 -67 -3l-7 85q33 6 81 6q79 0 137 -24.5t89.5 -69.5t31.5 -105q0 -85 -57.5 -137.5t-162.5 -64.5l-4 -85h-78v160zM185.5 102.5q19.5 -19.5 19.5 -45.5q0 -27 -19.5 -47t-45.5 -20t-46 20t-20 47q0 26 20 45.5
t46 19.5t45.5 -19.5z" />
    <glyph glyph-name="at" unicode="@" horiz-adv-x="981" 
d="M694 136q14 -23 43 -23q41 0 66 40.5t25 114.5q0 93 -44 166.5t-120.5 114t-172.5 40.5q-95 0 -172 -44t-121 -121t-44 -174q0 -98 44 -176t120.5 -122t171.5 -44q118 0 209 65l40 -53q-110 -78 -249 -78q-117 0 -210.5 53.5t-147 147t-53.5 207.5t53.5 206.5
t147.5 145.5t211 53t211 -50t147 -138.5t53 -198.5q0 -96 -45.5 -158t-123.5 -62q-46 0 -75 21t-40 57q-49 -74 -144 -74q-54 0 -97 25.5t-67.5 71t-24.5 101.5t24.5 101.5t67.5 71.5t95 26q88 0 138 -70v62h70v-232q0 -50 14 -73zM393.5 344.5q-35.5 -37.5 -35.5 -94.5
q0 -56 35.5 -94t91.5 -38q55 0 91 37.5t36 94.5t-36 94.5t-91 37.5q-56 0 -91.5 -37.5z" />
    <glyph glyph-name="A" unicode="A" horiz-adv-x="715" 
d="M603 0l-76 189h-340l-76 -189h-94l285 700h111l286 -700h-96zM493 274l-136 338l-137 -338h273z" />
    <glyph glyph-name="B" unicode="B" horiz-adv-x="697" 
d="M558.5 654.5q67.5 -45.5 67.5 -140.5q0 -58 -31 -98.5t-83 -55.5q58 -16 93 -59t35 -106q0 -98 -66.5 -146.5t-187.5 -48.5h-290v700h276q119 0 186.5 -45.5zM186 396h184q77 0 119.5 25t42.5 86t-43 86t-120 25h-183v-222zM186 82h195q80 0 122.5 26.5t42.5 90.5
q0 63 -42.5 89t-122.5 26h-195v-232z" />
    <glyph glyph-name="C" unicode="C" horiz-adv-x="761" 
d="M588.5 670q77.5 -40 119.5 -109l-76 -48q-35 52 -90.5 81t-122.5 29q-76 0 -137 -34.5t-96 -96.5t-35 -142t35 -142.5t96.5 -96.5t136.5 -34q67 0 122.5 29t89.5 81l74 -53q-45 -67 -120 -105.5t-166 -38.5q-103 0 -185.5 46t-129.5 128t-47 186t47 186t129.5 128
t185.5 46q92 0 169.5 -40z" />
    <glyph glyph-name="D" unicode="D" horiz-adv-x="792" 
d="M560.5 657q84.5 -43 130 -122t45.5 -185t-45.5 -185t-130 -122t-197.5 -43h-267v700h267q113 0 197.5 -43zM186 85h177q134 0 206.5 72t72.5 193q0 122 -72.5 193.5t-206.5 71.5h-177v-530z" />
    <glyph glyph-name="E" unicode="E" horiz-adv-x="669" 
d="M96 0v700h493v-83h-403v-223h389v-83h-389v-227h407v-84h-497z" />
    <glyph glyph-name="F" unicode="F" horiz-adv-x="643" 
d="M186 309v-309h-90v700h490v-84h-400v-223h380v-84h-380z" />
    <glyph glyph-name="G" unicode="G" horiz-adv-x="812" 
d="M570.5 680q69.5 -30 118.5 -85l-66 -64q-37 44 -90 68.5t-115 24.5q-76 0 -136.5 -34.5t-95.5 -97t-35 -142.5q0 -81 35 -143t95.5 -96.5t133.5 -34.5q107 0 171 59t73 162h-215v79h310q1 -9 1 -24q0 -104 -42.5 -186.5t-119.5 -129t-177 -46.5q-96 0 -178 44t-131.5 126
t-49.5 190q0 104 47 186t130 128t186 46q81 0 150.5 -30z" />
    <glyph glyph-name="H" unicode="H" horiz-adv-x="780" 
d="M594 395v305h91v-700h-91v311h-408v-311h-90v700h90v-305h408z" />
    <glyph glyph-name="I" unicode="I" horiz-adv-x="281" 
d="M96 0v700h90v-700h-90z" />
    <glyph glyph-name="J" unicode="J" horiz-adv-x="572" 
d="M449.5 110.5q-31.5 -59.5 -87.5 -90t-127 -30.5q-134 0 -215 96l56 64q27 -33 66 -53t91 -20q73 0 115.5 47.5t42.5 136.5v439h90v-448q0 -82 -31.5 -141.5z" />
    <glyph glyph-name="K" unicode="K" horiz-adv-x="694" 
d="M186 310v-310h-90v700h90v-306h83l279 306h115l-322 -343l343 -357h-119l-297 310h-82z" />
    <glyph glyph-name="L" unicode="L" horiz-adv-x="603" 
d="M96 0v700h90v-615h398v-85h-488z" />
    <glyph glyph-name="M" unicode="M" horiz-adv-x="931" 
d="M745 0v593l-232 -516h-95l-232 513v-590h-90v700h133l236 -518l236 518h134v-700h-90z" />
    <glyph glyph-name="N" unicode="N" horiz-adv-x="785" 
d="M606 0l-420 548v-548h-90v700h83l420 -547v547h91v-700h-84z" />
    <glyph glyph-name="O" unicode="O" horiz-adv-x="837" 
d="M604.5 664q82.5 -46 129.5 -128.5t47 -185.5t-47 -185.5t-129.5 -128.5t-185.5 -46t-185.5 46t-129.5 128t-47 186t47 186t129.5 128t185.5 46t185.5 -46zM282 588.5q-61 -34.5 -96 -96.5t-35 -142q0 -79 35 -141.5t96 -97t137 -34.5q75 0 136 34.5t96 96.5t35 142
t-35 142t-95.5 96.5t-136.5 34.5t-137 -34.5z" />
    <glyph glyph-name="P" unicode="P" horiz-adv-x="664" 
d="M186 0h-90v700h269q119 0 184.5 -56.5t65.5 -156.5t-65.5 -156.5t-184.5 -56.5h-179v-274zM186 358h177q77 0 118.5 33t41.5 96q0 64 -41.5 97t-118.5 33h-177v-259z" />
    <glyph glyph-name="Q" unicode="Q" horiz-adv-x="839" 
d="M604.5 664q82.5 -46 129.5 -128.5t47 -185.5q0 -65 -19.5 -122t-56.5 -103l97 -125h-106l-52 66q-46 -37 -103.5 -56.5t-121.5 -19.5q-103 0 -185.5 46t-129.5 128t-47 186t47 186t129.5 128t185.5 46t185.5 -46zM282 588.5q-61 -34.5 -96 -96.5t-35 -142
q0 -79 35 -141.5t96 -97t137 -34.5q49 0 93 15.5t78 43.5l-156 199h108l104 -132q40 66 40 147q0 80 -35 142t-95.5 96.5t-136.5 34.5t-137 -34.5z" />
    <glyph glyph-name="R" unicode="R" horiz-adv-x="674" 
d="M556 647.5q64 -52.5 64 -148.5q0 -89 -61 -142.5t-167 -56.5h-20l247 -300h-111l-240 299h-82v-299h-90v700h277q119 0 183 -52.5zM186 379h186q76 0 115.5 30.5t39.5 89.5q0 58 -40 88t-115 30h-186v-238z" />
    <glyph glyph-name="S" unicode="S" horiz-adv-x="674" 
d="M347 625q-77 0 -125 -32t-48 -87q0 -46 40.5 -72t121.5 -37l62 -8q218 -28 218 -185q0 -69 -37.5 -117.5t-101 -72.5t-140.5 -24t-153 25t-127 65l48 72q41 -32 103 -54.5t129 -22.5q81 0 132.5 31.5t51.5 88.5q0 48 -40.5 73.5t-125.5 36.5l-67 8q-99 12 -153.5 58
t-54.5 129q0 65 35.5 112.5t96 72t134.5 24.5q141 0 257 -75l-45 -74q-95 65 -211 65z" />
    <glyph glyph-name="T" unicode="T" horiz-adv-x="607" 
d="M348 615v-615h-90v615h-239v85h569v-85h-240z" />
    <glyph glyph-name="U" unicode="U" horiz-adv-x="752" 
d="M628.5 119.5q-37.5 -64.5 -103 -97t-149.5 -32.5t-149.5 32.5t-103 97t-37.5 156.5v424h90v-419q0 -101 55 -152.5t145 -51.5t144.5 51.5t54.5 152.5v419h91v-424q0 -92 -37.5 -156.5z" />
    <glyph glyph-name="V" unicode="V" horiz-adv-x="702" 
d="M296 0l-279 700h95l240 -609l240 609h93l-279 -700h-110z" />
    <glyph glyph-name="W" unicode="W" horiz-adv-x="1099" 
d="M737 0l-188 576l-187 -576h-110l-226 700h95l188 -597l191 597h101l191 -596l188 596h92l-226 -700h-109z" />
    <glyph glyph-name="X" unicode="X" horiz-adv-x="684" 
d="M656 0h-107l-208 289l-208 -289h-105l258 357l-248 343h108l197 -275l197 275h106l-249 -343z" />
    <glyph glyph-name="Y" unicode="Y" horiz-adv-x="650" 
d="M371 0h-90v292l-276 408h107l215 -325l214 325h104l-274 -409v-291z" />
    <glyph glyph-name="Z" unicode="Z" horiz-adv-x="657" 
d="M177 84h423v-84h-543v71l421 545h-416v84h536v-70z" />
    <glyph glyph-name="bracketleft" unicode="[" horiz-adv-x="374" 
d="M96 -132v832h240v-77h-155v-678h155v-77h-240z" />
    <glyph glyph-name="backslash" unicode="\" horiz-adv-x="502" 
d="M84 770l424 -870h-90l-425 870h91z" />
    <glyph glyph-name="bracketright" unicode="]" horiz-adv-x="374" 
d="M279 700v-832h-241v77h155v678h-155v77h241z" />
    <glyph glyph-name="asciicircum" unicode="^" 
d="M260 700h80l179 -376h-89l-131 291l-131 -291h-86z" />
    <glyph glyph-name="underscore" unicode="_" horiz-adv-x="469" 
d="M-3 -139v73h474v-73h-474z" />
    <glyph glyph-name="grave" unicode="`" horiz-adv-x="470" 
d="M130 699h103l107 -153h-82z" />
    <glyph glyph-name="a" unicode="a" horiz-adv-x="619" 
d="M454 0v77q-28 -40 -71.5 -63.5t-99.5 -23.5q-65 0 -119 32.5t-85 89t-31 126.5t31 126.5t85 88.5t119 32q57 0 100 -22.5t71 -63.5v77h83v-476h-83zM212 384.5q-37 -22.5 -57.5 -61t-20.5 -85.5t20.5 -85.5t57.5 -61t84 -22.5t83.5 22t57 60.5t20.5 86.5t-20.5 86.5
t-57 60.5t-83.5 22t-84 -22.5z" />
    <glyph glyph-name="b" unicode="b" horiz-adv-x="620" 
d="M456 453q54 -32 85 -88.5t31 -126.5t-31 -126.5t-85 -89t-119 -32.5q-57 0 -100 23t-71 64v-77h-83v720h84v-319q27 39 70.5 61.5t99.5 22.5q65 0 119 -32zM240 385q-37 -22 -57.5 -60.5t-20.5 -86.5t20.5 -86.5t57.5 -60.5t83 -22q47 0 84 22.5t57.5 61t20.5 85.5
t-20.5 85.5t-57.5 61t-84 22.5q-46 0 -83 -22z" />
    <glyph glyph-name="c" unicode="c" horiz-adv-x="514" 
d="M397.5 464.5q46.5 -20.5 79.5 -59.5l-59 -52q-52 54 -125 54q-45 0 -81 -21.5t-57 -60t-21 -87.5t21 -87.5t57 -60t81 -21.5q71 0 127 56l57 -54q-33 -39 -79.5 -60t-101.5 -21q-72 0 -128.5 32.5t-88 89t-31.5 126.5t31.5 126.5t88 88.5t128.5 32q55 0 101.5 -20.5z" />
    <glyph glyph-name="d" unicode="d" horiz-adv-x="619" 
d="M382 462.5q43 -22.5 71 -62.5v320h84v-720h-83v77q-28 -40 -71.5 -63.5t-99.5 -23.5q-65 0 -119 32.5t-85 89t-31 126.5t31 126.5t85 88.5t119 32q56 0 99 -22.5zM212 384.5q-37 -22.5 -57.5 -61t-20.5 -85.5t20.5 -85.5t57.5 -61t84 -22.5t83.5 22t57 60.5t20.5 86.5
t-20.5 86.5t-57 60.5t-83.5 22t-84 -22.5z" />
    <glyph glyph-name="e" unicode="e" horiz-adv-x="560" 
d="M401.5 454q51.5 -31 80.5 -87t29 -127q0 -22 -1 -31h-375q7 -69 51 -107.5t109 -38.5q80 0 146 59l47 -55q-77 -77 -198 -77q-70 0 -125 31.5t-86 87.5t-31 128t30.5 128.5t85 88t122.5 31.5q64 0 115.5 -31zM184 374q-40 -38 -48 -101h290q-7 63 -45.5 101t-95.5 38
q-61 0 -101 -38z" />
    <glyph glyph-name="f" unicode="f" horiz-adv-x="433" 
d="M216 400v-400h-85v400h-106v76h106v73q0 84 40.5 132.5t122.5 48.5q72 0 135 -38l-33 -68q-45 27 -95 27q-85 0 -85 -102v-73h183v-76h-183z" />
    <glyph glyph-name="g" unicode="g" horiz-adv-x="614" 
d="M378.5 462q43.5 -23 70.5 -64v78h83v-441q0 -77 -32 -131.5t-89 -82.5t-131 -28q-58 0 -112.5 17t-90.5 47l35 65q73 -54 166 -54q75 0 123 42.5t48 121.5v55q-28 -41 -71 -64.5t-100 -23.5q-63 0 -115.5 31t-83.5 86.5t-31 125.5t30.5 125.5t83.5 86.5t116 31
q57 0 100.5 -23zM211.5 386q-36.5 -22 -56.5 -60t-20 -84t20 -83.5t56.5 -59t82.5 -21.5t82 21.5t56.5 59t20.5 83.5q0 47 -20.5 84.5t-56.5 59.5t-82 22t-82.5 -22z" />
    <glyph glyph-name="h" unicode="h" horiz-adv-x="596" 
d="M234.5 465.5q41.5 19.5 89.5 19.5q87 0 141 -51.5t54 -137.5v-296h-85v270q0 64 -34 100t-95 36q-59 0 -98.5 -38t-39.5 -101v-267h-84v720h84v-315q26 41 67.5 60.5z" />
    <glyph glyph-name="i" unicode="i" horiz-adv-x="250" 
d="M165.5 681.5q16.5 -16.5 16.5 -40.5t-16.5 -40t-40.5 -16t-40.5 16t-16.5 40t16.5 40.5t40.5 16.5t40.5 -16.5zM83 0v476h84v-476h-84z" />
    <glyph glyph-name="j" unicode="j" horiz-adv-x="251" 
d="M166.5 681.5q16.5 -16.5 16.5 -40.5t-16.5 -40t-40.5 -16t-40 16t-16 40t16 40.5t40 16.5t40.5 -16.5zM136 -172.5q-33 -35.5 -89 -35.5q-18 0 -37 4t-32 11l16 74q22 -10 43 -10q48 0 48 60v545h84v-549q0 -64 -33 -99.5z" />
    <glyph glyph-name="k" unicode="k" horiz-adv-x="531" 
d="M232 287l176 189h104l-211 -224l214 -252h-105l-178 212h-65v-212h-84v720h84v-433h65z" />
    <glyph glyph-name="l" unicode="l" horiz-adv-x="250" 
d="M83 0v720h84v-720h-84z" />
    <glyph glyph-name="m" unicode="m" horiz-adv-x="948" 
d="M816 433.5q54 -51.5 54 -137.5v-296h-84v270q0 64 -34.5 100t-96.5 36q-58 0 -97 -38t-39 -101v-267h-85v270q0 64 -34 100t-95 36q-59 0 -98.5 -38t-39.5 -101v-267h-84v476h83v-73q26 42 67.5 62t90.5 20q60 0 106 -26t69 -73q26 50 72.5 74.5t102.5 24.5
q88 0 142 -51.5z" />
    <glyph glyph-name="n" unicode="n" horiz-adv-x="596" 
d="M465 433.5q54 -51.5 54 -137.5v-296h-85v270q0 64 -34 100t-95 36q-59 0 -98.5 -38t-39.5 -101v-267h-84v476h83v-73q26 42 67.5 62t90.5 20q87 0 141 -51.5z" />
    <glyph glyph-name="o" unicode="o" horiz-adv-x="598" 
d="M427 453q57 -32 90 -88.5t33 -126.5t-33 -126.5t-90.5 -89t-127.5 -32.5q-71 0 -128.5 32.5t-90 89t-32.5 126.5t32.5 126.5t90 88.5t128.5 32t128 -32zM215 385q-38 -22 -59.5 -60.5t-21.5 -86.5t21.5 -86.5t59.5 -60.5t84 -22t84 22t59.5 60.5t21.5 86.5t-21.5 86.5
t-59.5 60.5t-84 22t-84 -22z" />
    <glyph glyph-name="p" unicode="p" horiz-adv-x="620" 
d="M456 453q54 -32 85 -88.5t31 -126.5t-31 -126.5t-85 -89t-119 -32.5q-57 0 -100 22.5t-70 63.5v-276h-84v676h83v-76q60 85 171 85q65 0 119 -32zM240 385q-37 -22 -57.5 -60.5t-20.5 -86.5t20.5 -86.5t57.5 -60.5t83 -22q47 0 84 22.5t57.5 61t20.5 85.5t-20.5 85.5
t-57.5 61t-84 22.5q-46 0 -83 -22z" />
    <glyph glyph-name="q" unicode="q" horiz-adv-x="619" 
d="M383 462.5q43 -22.5 71 -63.5v77h83v-676h-84v276q-28 -40 -71 -63t-99 -23q-65 0 -119 32.5t-85 89t-31 126.5t31 126.5t85 88.5t119 32q57 0 100 -22.5zM212 384.5q-37 -22.5 -57.5 -61t-20.5 -85.5t20.5 -85.5t57.5 -61t84 -22.5t83.5 22t57 60.5t20.5 86.5
t-20.5 86.5t-57 60.5t-83.5 22t-84 -22.5z" />
    <glyph glyph-name="r" unicode="r" horiz-adv-x="412" 
d="M387 471l-16 -83q-16 8 -38 12.5t-44 4.5q-54 0 -88 -38t-34 -102v-265h-84v476h82v-70q23 39 59.5 59.5t82.5 20.5q47 0 80 -15z" />
    <glyph glyph-name="s" unicode="s" horiz-adv-x="494" 
d="M337.5 400.5q-43.5 13.5 -86.5 13.5q-48 0 -77 -19t-29 -51q0 -27 24 -42t72 -21l54 -7q77 -10 118 -43t41 -90q0 -70 -57 -110.5t-154 -40.5q-54 0 -107.5 14.5t-93.5 45.5l35 63q33 -24 73 -37.5t94 -13.5q58 0 90.5 18.5t32.5 53.5q0 28 -24 44t-74 22l-52 6
q-158 20 -158 134q0 68 51.5 106.5t139.5 38.5q109 0 191 -50l-32 -66q-28 18 -71.5 31.5z" />
    <glyph glyph-name="t" unicode="t" horiz-adv-x="458" 
d="M212 400v-227q0 -52 25 -78t67 -26q27 0 53 9.5t47 25.5l35 -64q-62 -50 -145 -50q-80 0 -123 45t-43 133v232h-103v76h103v150h84v-150h202v-76h-202z" />
    <glyph glyph-name="u" unicode="u" horiz-adv-x="591" 
d="M484.5 84q-29.5 -47 -79 -70.5t-109.5 -23.5q-61 0 -110.5 23.5t-78.5 70.5t-29 115v277h84v-269q0 -67 36.5 -102.5t97.5 -35.5q60 0 96.5 35.5t36.5 102.5v269h85v-277q0 -68 -29.5 -115z" />
    <glyph glyph-name="v" unicode="v" horiz-adv-x="528" 
d="M216 -1l-202 477h92l159 -389l160 389h89l-201 -477h-97z" />
    <glyph glyph-name="w" unicode="w" horiz-adv-x="864" 
d="M755 476h88l-177 -476h-97l-138 380l-136 -380h-97l-176 476h89l138 -385l138 385h91l138 -386z" />
    <glyph glyph-name="x" unicode="x" horiz-adv-x="520" 
d="M504 0h-102l-144 182l-143 -182h-98l189 243l-184 233h102l138 -176l138 176h99l-184 -233z" />
    <glyph glyph-name="y" unicode="y" horiz-adv-x="533" 
d="M50 -202l177 306l-217 372h95l169 -287l159 287h93l-383 -678h-93z" />
    <glyph glyph-name="z" unicode="z" horiz-adv-x="528" 
d="M173 76h298v-76h-413v61l297 339h-287v76h398v-62z" />
    <glyph glyph-name="braceleft" unicode="{" horiz-adv-x="428" 
d="M279 595q-28 -29 -26 -85l3 -65q8 -127 -102 -160q110 -35 102 -161l-3 -64q-2 -57 26 -86t78 -29h33v-76h-37q-93 0 -141.5 51.5t-44.5 146.5l4 65q2 57 -28 85.5t-86 28.5v77q56 0 86 29t28 86l-4 65q-4 94 44.5 145.5t141.5 51.5h37v-76h-33q-50 0 -78 -29z" />
    <glyph glyph-name="bar" unicode="|" horiz-adv-x="352" 
d="M134 -133v833h84v-833h-84z" />
    <glyph glyph-name="braceright" unicode="}" horiz-adv-x="428" 
d="M149 -26q28 29 26 86l-3 64q-8 126 102 161q-110 33 -102 160l3 65q2 56 -26 85t-78 29h-33v76h37q93 0 141.5 -51.5t43.5 -145.5l-3 -65q-3 -57 27.5 -86t85.5 -29v-76q-55 0 -85.5 -29t-27.5 -86l3 -65q5 -95 -43.5 -146.5t-141.5 -51.5h-37v76h33q50 0 78 29z" />
    <glyph glyph-name="asciitilde" unicode="~" 
d="M467 222.5q-33 -15.5 -75 -15.5q-32 0 -54.5 6.5t-51.5 18.5q-26 10 -43 15t-39 5q-24 0 -44 -10.5t-44 -33.5l-43 52q27 32 60 47.5t75 15.5q33 0 55.5 -6.5t51.5 -18.5q26 -11 42.5 -15.5t38.5 -4.5q24 0 44.5 10.5t43.5 33.5l43 -52q-27 -32 -60 -47.5z" />
    <glyph glyph-name="uni00A0" unicode="&#xa0;" horiz-adv-x="259" 
 />
    <glyph glyph-name="exclamdown" unicode="&#xa1;" horiz-adv-x="267" 
d="M87.5 374q-19.5 19 -19.5 45t19.5 46t45.5 20q27 0 46.5 -20t19.5 -46t-19.5 -45t-46.5 -19q-26 0 -45.5 19zM172 250l12 -474h-101l12 474h77z" />
    <glyph glyph-name="cent" unicode="&#xa2;" horiz-adv-x="700" 
d="M411 595q48 -4 89.5 -24t70.5 -53l-54 -52q-46 45 -106 52v-335q62 8 108 52l52 -52q-30 -34 -71 -54t-89 -24v-105h-75v107q-93 16 -149 82.5t-56 160.5t56 160.5t149 82.5v107h75v-105zM247.5 245q33.5 -44 88.5 -58v327q-55 -14 -88.5 -58.5t-33.5 -105.5t33.5 -105z
" />
    <glyph glyph-name="sterling" unicode="&#xa3;" horiz-adv-x="700" 
d="M89 0v82h89v232h-89v73h89v66q0 83 32 141t86.5 87t121.5 29q57 0 105 -21t81 -61l-61 -59q-22 28 -54.5 43t-70.5 15q-68 0 -111 -45.5t-43 -134.5v-60h262v-73h-262v-232h344v-82h-519z" />
    <glyph glyph-name="currency" unicode="&#xa4;" horiz-adv-x="700" 
d="M220 530q57 43 131 43q72 0 131 -43l73 74l49 -49l-74 -74q44 -57 44 -131t-44 -132l74 -72l-49 -49l-73 73q-57 -43 -131 -43q-73 0 -132 43l-73 -73l-49 49l74 72q-43 59 -43 132q0 74 43 131l-74 74l48 49zM428.5 216q35.5 21 56 56.5t20.5 77.5t-20.5 77.5t-56 56.5
t-77.5 21t-77.5 -21t-56.5 -56.5t-21 -77.5t21 -77.5t56.5 -56.5t77.5 -21t77.5 21z" />
    <glyph glyph-name="yen" unicode="&#xa5;" horiz-adv-x="700" 
d="M396 156v-156h-87v156h-196v65h196v94h-196v64h164l-228 321h102l202 -289l199 289h100l-225 -321h165v-64h-196v-94h196v-65h-196z" />
    <glyph glyph-name="brokenbar" unicode="&#xa6;" horiz-adv-x="352" 
d="M134 353v347h84v-347h-84zM134 -133v348h84v-348h-84z" />
    <glyph glyph-name="section" unicode="&#xa7;" horiz-adv-x="654" 
d="M440.5 615.5q-48.5 16.5 -101.5 16.5q-69 0 -112.5 -26t-43.5 -71q0 -39 38.5 -60.5t112.5 -29.5l54 -6q88 -11 143 -49.5t55 -107.5q0 -43 -21 -75.5t-58 -53.5q68 -43 68 -117q0 -61 -34.5 -102.5t-92 -62t-126.5 -20.5q-73 0 -140.5 21.5t-113.5 56.5l44 68
q40 -29 94 -49t116 -20q73 0 118.5 26t46.5 74q0 38 -39 59t-112 30l-59 7q-88 10 -140 49.5t-52 109.5q0 39 20.5 71.5t56.5 54.5q-66 42 -66 120q0 55 31.5 96t86.5 63t123 22q126 0 231 -69l-39 -68q-40 26 -88.5 42.5zM239 378q-31 -13 -48.5 -35.5t-17.5 -52.5
q0 -39 38 -60t111 -30l56 -6q36 -6 52 -11q68 28 68 90q0 73 -151 90l-60 6q-25 3 -48 9z" />
    <glyph glyph-name="dieresis" unicode="&#xa8;" horiz-adv-x="486" 
d="M178.5 659.5q16.5 -16.5 16.5 -40.5t-16.5 -40t-40.5 -16t-40 16t-16 40t16 40.5t40 16.5t40.5 -16.5zM387.5 659.5q16.5 -16.5 16.5 -40.5t-16.5 -40t-40.5 -16t-40.5 16t-16.5 40t16.5 40.5t40.5 16.5t40.5 -16.5z" />
    <glyph glyph-name="copyright" unicode="&#xa9;" horiz-adv-x="943" 
d="M674.5 700q92.5 -54 146.5 -146t54 -200t-54 -200.5t-146.5 -146.5t-202.5 -54t-203 54t-147 146.5t-54 200.5t54 200t147 146t203 54t202.5 -54zM307 637q-75 -44 -119 -119t-44 -164t44 -164.5t119.5 -119.5t164.5 -44t164.5 44t119.5 119.5t44 164.5t-44 164
t-119.5 119t-164.5 44q-90 0 -165 -44zM546 480.5q-29 15.5 -65 15.5q-58 0 -96.5 -40t-38.5 -102q0 -65 39.5 -103.5t95.5 -38.5q35 0 64.5 16t49.5 45l58 -43q-27 -41 -71.5 -64t-99.5 -23q-60 0 -108.5 27t-75.5 75t-27 109t27 109.5t75.5 75.5t108.5 27q55 0 101 -24.5
t72 -68.5l-61 -37q-19 29 -48 44.5z" />
    <glyph glyph-name="ordfeminine" unicode="&#xaa;" horiz-adv-x="393" 
d="M296.5 611.5q39.5 -35.5 39.5 -105.5v-199h-63v44q-49 -51 -117 -51q-54 0 -86 28.5t-32 74.5t36.5 72.5t102.5 26.5h93q-1 87 -90 87q-55 0 -99 -35l-26 50q55 43 132 43q70 0 109.5 -35.5zM227 366.5q26 13.5 44 35.5v56h-84q-41 0 -61 -15t-20 -38q0 -22 17.5 -37
t48.5 -15q29 0 55 13.5z" />
    <glyph glyph-name="guillemotleft" unicode="&#xab;" horiz-adv-x="516" 
d="M157 78l-97 187l97 187h87l-96 -187l96 -187h-87zM359 78l-96 187l96 187h88l-97 -187l97 -187h-88z" />
    <glyph glyph-name="logicalnot" unicode="&#xac;" 
d="M486 70l-42 100l-363 90l267 41l171 -132z" />
    <glyph glyph-name="uni00AD" unicode="&#xad;" horiz-adv-x="414" 
d="M67 227v75h280v-75h-280z" />
    <glyph glyph-name="registered" unicode="&#xae;" horiz-adv-x="464" 
d="M337.5 690.5q47.5 -27.5 75.5 -74.5t28 -103q0 -55 -28 -102t-75.5 -74.5t-104.5 -27.5q-58 0 -106 27.5t-76 74.5t-28 102q0 56 28 103t76 74.5t106 27.5q57 0 104.5 -27.5zM312 376q36 21 57 57.5t21 79.5t-21 79.5t-57 57.5t-79 21q-44 0 -80.5 -21t-57.5 -57.5
t-21 -79.5t21 -79.5t57.5 -57.5t80.5 -21q43 0 79 21zM301 592.5q20 -16.5 20 -44.5q0 -23 -16 -38.5t-44 -19.5l62 -72h-50l-58 71h-17v-71h-41v191h88q36 0 56 -16.5zM198 523h46q16 0 25.5 6.5t9.5 18.5q0 13 -9.5 19.5t-25.5 6.5h-46v-51z" />
    <glyph glyph-name="macron" unicode="&#xaf;" horiz-adv-x="480" 
d="M394 653v-68h-307v68h307z" />
    <glyph glyph-name="degree" unicode="&#xb0;" horiz-adv-x="401" 
d="M111.5 381.5q-40.5 23.5 -64.5 64t-24 88.5t24 88.5t64.5 64t89.5 23.5q48 0 88.5 -23.5t64.5 -64t24 -88.5t-24 -88.5t-64.5 -64t-88.5 -23.5q-49 0 -89.5 23.5zM276 456.5q31 31.5 31 77.5q0 45 -31 76.5t-75 31.5q-45 0 -76.5 -31.5t-31.5 -76.5q0 -46 31.5 -77.5
t76.5 -31.5q44 0 75 31.5z" />
    <glyph glyph-name="plusminus" unicode="&#xb1;" 
d="M262 303h-181v74h181v173h75v-173h182v-74h-182v-150h-75v150zM81 23v74h438v-74h-438z" />
    <glyph glyph-name="uni00B2" unicode="&#xb2;" horiz-adv-x="342" 
d="M165 705q61 0 96.5 -34t35.5 -88q0 -34 -14.5 -61.5t-44.5 -56.5l-97 -97h168v-61h-263v51l146 145q36 34 36 74q0 28 -19 46.5t-51 18.5q-27 0 -47 -12.5t-39 -34.5l-41 43q51 67 134 67z" />
    <glyph glyph-name="uni00B3" unicode="&#xb3;" horiz-adv-x="342" 
d="M255 675.5q39 -29.5 39 -78.5q0 -33 -17 -56.5t-47 -35.5q33 -11 52.5 -35t19.5 -56q0 -55 -42.5 -84t-102.5 -29q-84 0 -133 54l38 43q35 -37 92 -37q35 0 57 15t22 44q0 26 -24 41t-59 15h-50v58h50q33 0 54 15t21 42q0 25 -20 40t-53 15q-54 0 -88 -41l-39 43
q48 57 129 57q62 0 101 -29.5z" />
    <glyph glyph-name="acute" unicode="&#xb4;" horiz-adv-x="470" 
d="M237 699h103l-128 -153h-82z" />
    <glyph glyph-name="uni00B5" unicode="&#xb5;" horiz-adv-x="596" 
d="M78 476h84v-269q0 -65 34.5 -101t96.5 -36q58 0 97 38t39 101v267h85v-476h-83v73q-26 -42 -68 -62.5t-91 -20.5q-67 0 -112 37v-227h-82v676z" />
    <glyph glyph-name="paragraph" unicode="&#xb6;" horiz-adv-x="591" 
d="M273 346q-98 1 -151.5 48t-53.5 129q0 83 53.5 130t150.5 47h67v-700h-66v346zM391 700h66v-700h-66v700z" />
    <glyph glyph-name="periodcentered" unicode="&#xb7;" horiz-adv-x="360" 
d="M226.5 311.5q19.5 -19.5 19.5 -46.5t-19.5 -46.5t-45.5 -19.5q-27 0 -47 19.5t-20 46.5t20 46.5t47 19.5q26 0 45.5 -19.5z" />
    <glyph glyph-name="cedilla" unicode="&#xb8;" horiz-adv-x="468" 
d="M166 -162l55 165h81l-51 -165h-85z" />
    <glyph glyph-name="uni00B9" unicode="&#xb9;" horiz-adv-x="273" 
d="M131 307v306l-107 -42v65l174 69v-398h-67z" />
    <glyph glyph-name="ordmasculine" unicode="&#xba;" horiz-adv-x="429" 
d="M304.5 624.5q40.5 -22.5 63.5 -62t23 -88.5t-23 -89t-63.5 -62.5t-90.5 -22.5t-90 22.5t-63 62.5t-23 89t23 88.5t63 62t90 22.5t90.5 -22.5zM136 554.5q-31 -31.5 -31 -80.5t31 -80.5t78 -31.5t78.5 31.5t31.5 80.5t-31.5 80.5t-78.5 31.5t-78 -31.5z" />
    <glyph glyph-name="guillemotright" unicode="&#xbb;" horiz-adv-x="516" 
d="M157 452l96 -187l-96 -187h-88l97 187l-97 187h88zM359 452l97 -187l-97 -187h-87l97 187l-97 187h87z" />
    <glyph glyph-name="onequarter" unicode="&#xbc;" horiz-adv-x="815" 
d="M131 613l-107 -42v65l174 69v-398h-67v306zM575 700h81l-442 -700h-80zM670 75h-183v47l137 271h72l-131 -258h105v75l17 35h50v-110h59v-60h-59v-75h-67v75z" />
    <glyph glyph-name="onehalf" unicode="&#xbd;" horiz-adv-x="846" 
d="M131 307v306l-107 -42v65l174 69v-398h-67zM134 0l441 700h81l-442 -700h-80zM670 399q61 0 96 -34t35 -89q0 -34 -14.5 -61t-43.5 -56l-97 -98h168v-61h-263v52l146 144q36 36 36 74q0 29 -18.5 47t-50.5 18q-50 0 -86 -46l-42 43q49 67 134 67z" />
    <glyph glyph-name="threequarters" unicode="&#xbe;" horiz-adv-x="873" 
d="M255 675.5q39 -29.5 39 -78.5q0 -33 -17 -56.5t-47 -35.5q33 -11 52.5 -35t19.5 -56q0 -55 -42.5 -84t-102.5 -29q-84 0 -133 54l38 43q35 -37 92 -37q35 0 57 15t22 44q0 26 -24 41t-59 15h-50v58h50q33 0 54 15t21 42q0 25 -20 40t-53 15q-54 0 -88 -41l-39 43
q48 57 129 57q62 0 101 -29.5zM192 0l441 700h81l-442 -700h-80zM854 135v-60h-60v-75h-66v75h-184v47l137 271h73l-131 -258h105v75l21 35h45v-110h60z" />
    <glyph glyph-name="questiondown" unicode="&#xbf;" horiz-adv-x="432" 
d="M246.5 373.5q-19.5 19.5 -19.5 46.5q0 26 19.5 45.5t45.5 19.5t46 -19.5t20 -45.5q0 -27 -20 -46.5t-46 -19.5t-45.5 19.5zM331 90h-33q-83 0 -129.5 -32t-46.5 -90q0 -55 46.5 -86t126.5 -31q29 0 67 4l7 -85q-35 -6 -82 -6q-78 0 -136.5 24.5t-90 69.5t-31.5 105
q0 85 57.5 138t162.5 65l4 84h78v-160z" />
    <glyph glyph-name="Agrave" unicode="&#xc0;" horiz-adv-x="715" 
d="M321 906l107 -153h-82l-128 153h103zM603 0l-76 189h-340l-76 -189h-94l285 700h111l286 -700h-96zM493 274l-136 338l-137 -338h273z" />
    <glyph glyph-name="Aacute" unicode="&#xc1;" horiz-adv-x="715" 
d="M389 906h103l-127 -153h-82zM603 0l-76 189h-340l-76 -189h-94l285 700h111l286 -700h-96zM493 274l-136 338l-137 -338h273z" />
    <glyph glyph-name="Acircumflex" unicode="&#xc2;" horiz-adv-x="715" 
d="M358 845l-86 -92h-85l118 147h106l118 -147h-85zM603 0l-76 189h-340l-76 -189h-94l285 700h111l286 -700h-96zM493 274l-136 338l-137 -338h273z" />
    <glyph glyph-name="Atilde" unicode="&#xc3;" horiz-adv-x="715" 
d="M228 870q27 14 64 14q25 0 43 -6t40 -18q3 -2 13 -6.5t19 -7t17 -2.5q18 0 33.5 9t32.5 28l48 -48q-23 -31 -50.5 -45.5t-63.5 -14.5q-25 0 -43 6t-40 18q-17 8 -27 12t-22 4q-18 0 -34 -9t-33 -27l-47 48q23 31 50 45zM603 0l-76 189h-340l-76 -189h-94l285 700h111
l286 -700h-96zM493 274l-136 338l-137 -338h273z" />
    <glyph glyph-name="Adieresis" unicode="&#xc4;" horiz-adv-x="715" 
d="M293.5 866q16.5 -17 16.5 -41q0 -23 -16.5 -39.5t-40.5 -16.5t-40 16.5t-16 39.5q0 24 16 41t40 17t40.5 -17zM502.5 866q16.5 -17 16.5 -41q0 -23 -16.5 -39.5t-40.5 -16.5t-40 16.5t-16 39.5q0 24 16 41t40 17t40.5 -17zM603 0l-76 189h-340l-76 -189h-94l285 700h111
l286 -700h-96zM493 274l-136 338l-137 -338h273z" />
    <glyph glyph-name="Aring" unicode="&#xc5;" horiz-adv-x="715" 
d="M275.5 775.5q-34.5 33.5 -34.5 80.5q0 48 34.5 81.5t82.5 33.5t82 -33.5t34 -81.5q0 -47 -34 -80.5t-82 -33.5t-82.5 33.5zM402.5 810.5q18.5 18.5 18.5 45.5t-18.5 45.5t-44.5 18.5t-44.5 -18.5t-18.5 -45.5t18.5 -45.5t44.5 -18.5t44.5 18.5zM603 0l-76 189h-340
l-76 -189h-94l285 700h111l286 -700h-96zM493 274l-136 338l-137 -338h273z" />
    <glyph glyph-name="AE" unicode="&#xc6;" horiz-adv-x="1140" 
d="M566 0v177h-312l-132 -177h-109l524 700h522v-83h-402v-223h389v-83h-389v-227h406v-84h-497zM566 597l-251 -335h251v335z" />
    <glyph glyph-name="Ccedilla" unicode="&#xc7;" horiz-adv-x="761" 
d="M588.5 670q77.5 -40 119.5 -109l-76 -48q-35 52 -90.5 81t-122.5 29q-76 0 -137 -34.5t-96 -96.5t-35 -142t35 -142.5t96.5 -96.5t136.5 -34q67 0 122.5 29t89.5 81l74 -53q-39 -59 -102.5 -96t-140.5 -46l-48 -154h-89l51 155q-92 9 -164.5 56.5t-113.5 126t-41 174.5
q0 104 47 186t129.5 128t185.5 46q92 0 169.5 -40z" />
    <glyph glyph-name="Egrave" unicode="&#xc8;" horiz-adv-x="669" 
d="M303 906l107 -153h-82l-128 153h103zM96 0v700h493v-83h-403v-223h389v-83h-389v-227h407v-84h-497z" />
    <glyph glyph-name="Eacute" unicode="&#xc9;" horiz-adv-x="669" 
d="M371 906h103l-128 -153h-81zM96 0v700h493v-83h-403v-223h389v-83h-389v-227h407v-84h-497z" />
    <glyph glyph-name="Ecircumflex" unicode="&#xca;" horiz-adv-x="669" 
d="M340 845l-86 -92h-85l118 147h105l119 -147h-85zM96 0v700h493v-83h-403v-223h389v-83h-389v-227h407v-84h-497z" />
    <glyph glyph-name="Edieresis" unicode="&#xcb;" horiz-adv-x="669" 
d="M275.5 866q16.5 -17 16.5 -41q0 -23 -16.5 -39.5t-40.5 -16.5t-40 16.5t-16 39.5q0 24 16 41t40 17t40.5 -17zM484.5 866q16.5 -17 16.5 -41q0 -23 -16.5 -39.5t-40.5 -16.5t-40 16.5t-16 39.5q0 24 16 41t40 17t40.5 -17zM96 0v700h493v-83h-403v-223h389v-83h-389v-227
h407v-84h-497z" />
    <glyph glyph-name="Igrave" unicode="&#xcc;" horiz-adv-x="281" 
d="M104 906l107 -153h-82l-128 153h103zM96 0v700h90v-700h-90z" />
    <glyph glyph-name="Iacute" unicode="&#xcd;" horiz-adv-x="281" 
d="M172 906h103l-128 -153h-81zM96 0v700h90v-700h-90z" />
    <glyph glyph-name="Icircumflex" unicode="&#xce;" horiz-adv-x="281" 
d="M141 845l-86 -92h-86l119 147h106l118 -147h-86zM96 0v700h90v-700h-90z" />
    <glyph glyph-name="Idieresis" unicode="&#xcf;" horiz-adv-x="281" 
d="M76.5 866q16.5 -17 16.5 -41q0 -23 -16.5 -39.5t-40.5 -16.5t-40.5 16.5t-16.5 39.5q0 24 16.5 41t40.5 17t40.5 -17zM285 866q17 -17 17 -41q0 -23 -17 -39.5t-41 -16.5q-23 0 -39.5 16.5t-16.5 39.5q0 24 16.5 41t39.5 17q24 0 41 -17zM96 0v700h90v-700h-90z" />
    <glyph glyph-name="Eth" unicode="&#xd0;" horiz-adv-x="867" 
d="M634.5 657q84.5 -43 130 -122t45.5 -185t-45.5 -185t-130 -122t-197.5 -43h-268v312h-112v83h112v305h268q113 0 197.5 -43zM259 312v-227h178q134 0 206.5 72t72.5 193q0 122 -72.5 193.5t-206.5 71.5h-178v-220h197v-83h-197z" />
    <glyph glyph-name="Ntilde" unicode="&#xd1;" horiz-adv-x="785" 
d="M263.5 870q27.5 14 63.5 14q26 0 44 -6t40 -18q18 -9 27 -12.5t21 -3.5q18 0 34 9t33 28l47 -48q-23 -31 -50.5 -45.5t-63.5 -14.5q-25 0 -43 6t-38 17q-17 9 -27.5 13t-23.5 4q-18 0 -33.5 -8.5t-33.5 -27.5l-47 48q23 31 50.5 45zM606 0l-420 548v-548h-90v700h83
l420 -547v547h91v-700h-84z" />
    <glyph glyph-name="Ograve" unicode="&#xd2;" horiz-adv-x="837" 
d="M382 906l107 -153h-82l-128 153h103zM604.5 664q82.5 -46 129.5 -128.5t47 -185.5t-47 -185.5t-129.5 -128.5t-185.5 -46t-185.5 46t-129.5 128t-47 186t47 186t129.5 128t185.5 46t185.5 -46zM282 588.5q-61 -34.5 -96 -96.5t-35 -142q0 -79 35 -141.5t96 -97t137 -34.5
q75 0 136 34.5t96 96.5t35 142t-35 142t-95.5 96.5t-136.5 34.5t-137 -34.5z" />
    <glyph glyph-name="Oacute" unicode="&#xd3;" horiz-adv-x="837" 
d="M450 906h103l-127 -153h-83zM604.5 664q82.5 -46 129.5 -128.5t47 -185.5t-47 -185.5t-129.5 -128.5t-185.5 -46t-185.5 46t-129.5 128t-47 186t47 186t129.5 128t185.5 46t185.5 -46zM282 588.5q-61 -34.5 -96 -96.5t-35 -142q0 -79 35 -141.5t96 -97t137 -34.5
q75 0 136 34.5t96 96.5t35 142t-35 142t-95.5 96.5t-136.5 34.5t-137 -34.5z" />
    <glyph glyph-name="Ocircumflex" unicode="&#xd4;" horiz-adv-x="837" 
d="M419 845l-85 -92h-87l119 147h106l118 -147h-85zM604.5 664q82.5 -46 129.5 -128.5t47 -185.5t-47 -185.5t-129.5 -128.5t-185.5 -46t-185.5 46t-129.5 128t-47 186t47 186t129.5 128t185.5 46t185.5 -46zM282 588.5q-61 -34.5 -96 -96.5t-35 -142q0 -79 35 -141.5
t96 -97t137 -34.5q75 0 136 34.5t96 96.5t35 142t-35 142t-95.5 96.5t-136.5 34.5t-137 -34.5z" />
    <glyph glyph-name="Otilde" unicode="&#xd5;" horiz-adv-x="837" 
d="M289 870q27 14 64 14q25 0 43 -6t40 -18q3 -2 13 -6.5t19 -7t17 -2.5q18 0 33.5 9t32.5 28l48 -48q-23 -31 -50.5 -45.5t-63.5 -14.5q-25 0 -43 6t-40 18q-17 8 -27 12t-22 4q-18 0 -34 -9t-33 -27l-47 48q23 31 50 45zM604.5 664q82.5 -46 129.5 -128.5t47 -185.5
t-47 -185.5t-129.5 -128.5t-185.5 -46t-185.5 46t-129.5 128t-47 186t47 186t129.5 128t185.5 46t185.5 -46zM282 588.5q-61 -34.5 -96 -96.5t-35 -142q0 -79 35 -141.5t96 -97t137 -34.5q75 0 136 34.5t96 96.5t35 142t-35 142t-95.5 96.5t-136.5 34.5t-137 -34.5z" />
    <glyph glyph-name="Odieresis" unicode="&#xd6;" horiz-adv-x="837" 
d="M354.5 866q16.5 -17 16.5 -41q0 -23 -16.5 -39.5t-40.5 -16.5t-40 16.5t-16 39.5q0 24 16 41t40 17t40.5 -17zM563.5 866q16.5 -17 16.5 -41q0 -23 -16.5 -39.5t-40.5 -16.5t-40.5 16.5t-16.5 39.5q0 24 16.5 41t40.5 17t40.5 -17zM604.5 664q82.5 -46 129.5 -128.5
t47 -185.5t-47 -185.5t-129.5 -128.5t-185.5 -46t-185.5 46t-129.5 128t-47 186t47 186t129.5 128t185.5 46t185.5 -46zM282 588.5q-61 -34.5 -96 -96.5t-35 -142q0 -79 35 -141.5t96 -97t137 -34.5q75 0 136 34.5t96 96.5t35 142t-35 142t-95.5 96.5t-136.5 34.5
t-137 -34.5z" />
    <glyph glyph-name="multiply" unicode="&#xd7;" 
d="M246 264l-145 145l54 54l145 -145l146 146l53 -53l-146 -146l146 -146l-53 -54l-147 146l-144 -145l-53 53z" />
    <glyph glyph-name="Oslash" unicode="&#xd8;" horiz-adv-x="837" 
d="M542 690.5q58 -19.5 105 -55.5l75 75l57 -57l-74 -74q76 -97 76 -229q0 -103 -47 -185.5t-129.5 -128.5t-185.5 -46q-65 0 -123 19.5t-105 55.5l-74 -74l-57 56l73 74q-76 97 -76 229q0 104 47 186t129.5 128t185.5 46q65 0 123 -19.5zM282 588.5q-61 -34.5 -96 -96.5
t-35 -142q0 -94 49 -162l382 382q-69 53 -163 53q-76 0 -137 -34.5zM637 512l-382 -382q70 -53 164 -53q75 0 136 34.5t96 96.5t35 142q0 92 -49 162z" />
    <glyph glyph-name="Ugrave" unicode="&#xd9;" horiz-adv-x="752" 
d="M339 906l107 -153h-82l-128 153h103zM628.5 119.5q-37.5 -64.5 -103 -97t-149.5 -32.5t-149.5 32.5t-103 97t-37.5 156.5v424h90v-419q0 -101 55 -152.5t145 -51.5t144.5 51.5t54.5 152.5v419h91v-424q0 -92 -37.5 -156.5z" />
    <glyph glyph-name="Uacute" unicode="&#xda;" horiz-adv-x="752" 
d="M407 906h103l-128 -153h-81zM628.5 119.5q-37.5 -64.5 -103 -97t-149.5 -32.5t-149.5 32.5t-103 97t-37.5 156.5v424h90v-419q0 -101 55 -152.5t145 -51.5t144.5 51.5t54.5 152.5v419h91v-424q0 -92 -37.5 -156.5z" />
    <glyph glyph-name="Ucircumflex" unicode="&#xdb;" horiz-adv-x="752" 
d="M376 845l-86 -92h-85l118 147h106l118 -147h-86zM628.5 119.5q-37.5 -64.5 -103 -97t-149.5 -32.5t-149.5 32.5t-103 97t-37.5 156.5v424h90v-419q0 -101 55 -152.5t145 -51.5t144.5 51.5t54.5 152.5v419h91v-424q0 -92 -37.5 -156.5z" />
    <glyph glyph-name="Udieresis" unicode="&#xdc;" horiz-adv-x="752" 
d="M311.5 866q16.5 -17 16.5 -41q0 -23 -16.5 -39.5t-40.5 -16.5t-40 16.5t-16 39.5q0 24 16 41t40 17t40.5 -17zM520.5 866q16.5 -17 16.5 -41q0 -23 -16.5 -39.5t-40.5 -16.5t-40 16.5t-16 39.5q0 24 16 41t40 17t40.5 -17zM628.5 119.5q-37.5 -64.5 -103 -97
t-149.5 -32.5t-149.5 32.5t-103 97t-37.5 156.5v424h90v-419q0 -101 55 -152.5t145 -51.5t144.5 51.5t54.5 152.5v419h91v-424q0 -92 -37.5 -156.5z" />
    <glyph glyph-name="Yacute" unicode="&#xdd;" horiz-adv-x="650" 
d="M358 906h103l-128 -153h-82zM371 0h-90v292l-276 408h107l215 -325l214 325h104l-274 -409v-291z" />
    <glyph glyph-name="Thorn" unicode="&#xde;" horiz-adv-x="664" 
d="M365 571q119 0 184.5 -56.5t65.5 -156.5t-65.5 -156.5t-184.5 -56.5h-179v-145h-90v700h90v-129h179zM186 229h177q77 0 118.5 32.5t41.5 96.5q0 63 -41.5 96t-118.5 33h-177v-258z" />
    <glyph glyph-name="germandbls" unicode="&#xdf;" horiz-adv-x="611" 
d="M104.5 620.5q25.5 50.5 78 80t129.5 29.5q66 0 119 -25t83 -69t30 -101q0 -63 -31.5 -107t-81.5 -61q56 -15 94.5 -62.5t38.5 -109.5t-28 -108.5t-76.5 -71.5t-109.5 -25q-62 0 -116 21l16 74q41 -18 87 -18q65 0 103 34t38 97t-43.5 95t-118.5 32h-29v75h17
q68 0 111 29.5t43 94.5q0 61 -42 94t-106 33q-68 0 -107.5 -40t-39.5 -108v-503h-84v507q0 63 25.5 113.5z" />
    <glyph glyph-name="agrave" unicode="&#xe0;" horiz-adv-x="619" 
d="M263 699l107 -153h-82l-128 153h103zM454 0v77q-28 -40 -71.5 -63.5t-99.5 -23.5q-65 0 -119 32.5t-85 89t-31 126.5t31 126.5t85 88.5t119 32q57 0 100 -22.5t71 -63.5v77h83v-476h-83zM212 384.5q-37 -22.5 -57.5 -61t-20.5 -85.5t20.5 -85.5t57.5 -61t84 -22.5
t83.5 22t57 60.5t20.5 86.5t-20.5 86.5t-57 60.5t-83.5 22t-84 -22.5z" />
    <glyph glyph-name="aacute" unicode="&#xe1;" horiz-adv-x="619" 
d="M342 699h103l-127 -153h-82zM454 0v77q-28 -40 -71.5 -63.5t-99.5 -23.5q-65 0 -119 32.5t-85 89t-31 126.5t31 126.5t85 88.5t119 32q57 0 100 -22.5t71 -63.5v77h83v-476h-83zM212 384.5q-37 -22.5 -57.5 -61t-20.5 -85.5t20.5 -85.5t57.5 -61t84 -22.5t83.5 22
t57 60.5t20.5 86.5t-20.5 86.5t-57 60.5t-83.5 22t-84 -22.5z" />
    <glyph glyph-name="acircumflex" unicode="&#xe2;" horiz-adv-x="619" 
d="M305 639l-85 -93h-86l119 147h105l119 -147h-86zM454 0v77q-28 -40 -71.5 -63.5t-99.5 -23.5q-65 0 -119 32.5t-85 89t-31 126.5t31 126.5t85 88.5t119 32q57 0 100 -22.5t71 -63.5v77h83v-476h-83zM212 384.5q-37 -22.5 -57.5 -61t-20.5 -85.5t20.5 -85.5t57.5 -61
t84 -22.5t83.5 22t57 60.5t20.5 86.5t-20.5 86.5t-57 60.5t-83.5 22t-84 -22.5z" />
    <glyph glyph-name="atilde" unicode="&#xe3;" horiz-adv-x="619" 
d="M179 663.5q27 14.5 63 14.5q25 0 43 -6t40 -18q3 -2 13 -6.5t19 -7t17 -2.5q18 0 34 9t33 27l47 -48q-24 -30 -51 -44.5t-63 -14.5q-25 0 -43 6t-39 17q-17 9 -27 13t-23 4q-18 0 -33.5 -9t-32.5 -28l-47 49q23 30 50 44.5zM454 0v77q-28 -40 -71.5 -63.5t-99.5 -23.5
q-65 0 -119 32.5t-85 89t-31 126.5t31 126.5t85 88.5t119 32q57 0 100 -22.5t71 -63.5v77h83v-476h-83zM212 384.5q-37 -22.5 -57.5 -61t-20.5 -85.5t20.5 -85.5t57.5 -61t84 -22.5t83.5 22t57 60.5t20.5 86.5t-20.5 86.5t-57 60.5t-83.5 22t-84 -22.5z" />
    <glyph glyph-name="adieresis" unicode="&#xe4;" horiz-adv-x="619" 
d="M241.5 659.5q16.5 -16.5 16.5 -40.5t-16.5 -40t-40.5 -16t-40.5 16t-16.5 40t16.5 40.5t40.5 16.5t40.5 -16.5zM449.5 659.5q16.5 -16.5 16.5 -40.5t-16.5 -40t-40.5 -16t-40 16t-16 40t16 40.5t40 16.5t40.5 -16.5zM454 0v77q-28 -40 -71.5 -63.5t-99.5 -23.5
q-65 0 -119 32.5t-85 89t-31 126.5t31 126.5t85 88.5t119 32q57 0 100 -22.5t71 -63.5v77h83v-476h-83zM212 384.5q-37 -22.5 -57.5 -61t-20.5 -85.5t20.5 -85.5t57.5 -61t84 -22.5t83.5 22t57 60.5t20.5 86.5t-20.5 86.5t-57 60.5t-83.5 22t-84 -22.5z" />
    <glyph glyph-name="aring" unicode="&#xe5;" horiz-adv-x="619" 
d="M223 569q-34 34 -34 81t34 81t82 34t82.5 -34t34.5 -81t-34.5 -81t-82.5 -34t-82 34zM349.5 604.5q18.5 18.5 18.5 45.5q0 26 -18.5 44.5t-44.5 18.5t-44.5 -18.5t-18.5 -44.5q0 -27 18.5 -45.5t44.5 -18.5t44.5 18.5zM454 0v77q-28 -40 -71.5 -63.5t-99.5 -23.5
q-65 0 -119 32.5t-85 89t-31 126.5t31 126.5t85 88.5t119 32q57 0 100 -22.5t71 -63.5v77h83v-476h-83zM212 384.5q-37 -22.5 -57.5 -61t-20.5 -85.5t20.5 -85.5t57.5 -61t84 -22.5t83.5 22t57 60.5t20.5 86.5t-20.5 86.5t-57 60.5t-83.5 22t-84 -22.5z" />
    <glyph glyph-name="ae" unicode="&#xe6;" horiz-adv-x="897" 
d="M740 454q51 -31 80 -86.5t29 -127.5q0 -13 -2 -31h-375q8 -69 52 -107.5t108 -38.5q82 0 146 59l47 -55q-78 -77 -198 -77q-61 0 -111 24t-83 67q-35 -41 -85 -66t-115 -25q-86 0 -135.5 39.5t-49.5 104.5q0 64 52 101.5t146 37.5h140q-2 70 -34.5 104t-100.5 34
q-74 0 -140 -48l-35 64q78 58 186 58q66 0 111 -24.5t65 -74.5q29 47 78 73t108 26q65 0 116 -31zM521 373.5q-40 -37.5 -49 -100.5h291q-7 63 -45.5 100.5t-95.5 37.5q-61 0 -101 -37.5zM332.5 83q41.5 21 69.5 57q-13 35 -16 70h-129q-62 0 -91 -20t-29 -54
q0 -33 28.5 -53.5t80.5 -20.5q45 0 86.5 21z" />
    <glyph glyph-name="ccedilla" unicode="&#xe7;" horiz-adv-x="514" 
d="M397.5 464.5q46.5 -20.5 79.5 -59.5l-59 -52q-52 54 -125 54q-45 0 -81 -21.5t-57 -60t-21 -87.5t21 -87.5t57 -60t81 -21.5q71 0 127 56l57 -54q-57 -67 -147 -78l-48 -155h-85l52 156q-91 15 -146 82t-55 162q0 70 31.5 126.5t88 88.5t128.5 32q55 0 101.5 -20.5z" />
    <glyph glyph-name="egrave" unicode="&#xe8;" horiz-adv-x="560" 
d="M243 699l106 -153h-81l-128 153h103zM401.5 454q51.5 -31 80.5 -87t29 -127q0 -22 -1 -31h-375q7 -69 51 -107.5t109 -38.5q80 0 146 59l47 -55q-77 -77 -198 -77q-70 0 -125 31.5t-86 87.5t-31 128t30.5 128.5t85 88t122.5 31.5q64 0 115.5 -31zM184 374
q-40 -38 -48 -101h290q-7 63 -45.5 101t-95.5 38q-61 0 -101 -38z" />
    <glyph glyph-name="eacute" unicode="&#xe9;" horiz-adv-x="560" 
d="M322 699h103l-128 -153h-82zM401.5 454q51.5 -31 80.5 -87t29 -127q0 -22 -1 -31h-375q7 -69 51 -107.5t109 -38.5q80 0 146 59l47 -55q-77 -77 -198 -77q-70 0 -125 31.5t-86 87.5t-31 128t30.5 128.5t85 88t122.5 31.5q64 0 115.5 -31zM184 374q-40 -38 -48 -101h290
q-7 63 -45.5 101t-95.5 38q-61 0 -101 -38z" />
    <glyph glyph-name="ecircumflex" unicode="&#xea;" horiz-adv-x="560" 
d="M285 639l-86 -93h-86l119 147h105l119 -147h-86zM401.5 454q51.5 -31 80.5 -87t29 -127q0 -22 -1 -31h-375q7 -69 51 -107.5t109 -38.5q80 0 146 59l47 -55q-77 -77 -198 -77q-70 0 -125 31.5t-86 87.5t-31 128t30.5 128.5t85 88t122.5 31.5q64 0 115.5 -31zM184 374
q-40 -38 -48 -101h290q-7 63 -45.5 101t-95.5 38q-61 0 -101 -38z" />
    <glyph glyph-name="edieresis" unicode="&#xeb;" horiz-adv-x="560" 
d="M219.5 659.5q16.5 -16.5 16.5 -40.5t-16.5 -40t-40.5 -16t-40 16t-16 40t16 40.5t40 16.5t40.5 -16.5zM428.5 659.5q16.5 -16.5 16.5 -40.5t-16.5 -40t-40.5 -16t-40 16t-16 40t16 40.5t40 16.5t40.5 -16.5zM401.5 454q51.5 -31 80.5 -87t29 -127q0 -22 -1 -31h-375
q7 -69 51 -107.5t109 -38.5q80 0 146 59l47 -55q-77 -77 -198 -77q-70 0 -125 31.5t-86 87.5t-31 128t30.5 128.5t85 88t122.5 31.5q64 0 115.5 -31zM184 374q-40 -38 -48 -101h290q-7 63 -45.5 101t-95.5 38q-61 0 -101 -38z" />
    <glyph glyph-name="igrave" unicode="&#xec;" horiz-adv-x="250" 
d="M83 699l107 -153h-82l-128 153h103zM83 0v476h84v-476h-84z" />
    <glyph glyph-name="iacute" unicode="&#xed;" horiz-adv-x="250" 
d="M162 699h103l-128 -153h-81zM83 0v476h84v-476h-84z" />
    <glyph glyph-name="icircumflex" unicode="&#xee;" horiz-adv-x="250" 
d="M125 639l-85 -93h-86l118 147h106l118 -147h-85zM83 0v476h84v-476h-84z" />
    <glyph glyph-name="idieresis" unicode="&#xef;" horiz-adv-x="250" 
d="M60.5 659.5q16.5 -16.5 16.5 -40.5t-16.5 -40t-40.5 -16t-40.5 16t-16.5 40t16.5 40.5t40.5 16.5t40.5 -16.5zM269.5 659.5q16.5 -16.5 16.5 -40.5t-16.5 -40t-40.5 -16t-40.5 16t-16.5 40t16.5 40.5t40.5 16.5t40.5 -16.5zM83 0v476h84v-476h-84z" />
    <glyph glyph-name="eth" unicode="&#xf0;" horiz-adv-x="596" 
d="M368 613q83 -74 131.5 -172t48.5 -200q0 -70 -32.5 -127.5t-90 -90.5t-127.5 -33t-127 32t-90 87t-33 122q0 68 31 123t84 86.5t118 31.5q46 0 85 -17t66 -47q-40 90 -133 163l-124 -73l-29 48l102 60q-46 31 -104 57l42 63q72 -30 135 -76l114 67l30 -48zM214.5 374
q-37.5 -21 -59 -58.5t-21.5 -84.5t21.5 -84t59 -58t84.5 -21t84.5 21t59 58t21.5 84t-21.5 84.5t-59 58.5t-84.5 21t-84.5 -21z" />
    <glyph glyph-name="ntilde" unicode="&#xf1;" horiz-adv-x="596" 
d="M180 663.5q27 14.5 63 14.5q25 0 43 -6t40 -18q3 -2 13 -6.5t19 -7t17 -2.5q18 0 33.5 8.5t32.5 27.5l48 -48q-23 -30 -50.5 -44.5t-63.5 -14.5q-25 0 -43 6t-40 18q-17 8 -27 12t-22 4q-18 0 -34 -9t-33 -28l-47 49q24 30 51 44.5zM465 433.5q54 -51.5 54 -137.5v-296
h-85v270q0 64 -34 100t-95 36q-59 0 -98.5 -38t-39.5 -101v-267h-84v476h83v-73q26 42 67.5 62t90.5 20q87 0 141 -51.5z" />
    <glyph glyph-name="ograve" unicode="&#xf2;" horiz-adv-x="598" 
d="M257 699l107 -153h-82l-128 153h103zM427 453q57 -32 90 -88.5t33 -126.5t-33 -126.5t-90.5 -89t-127.5 -32.5q-71 0 -128.5 32.5t-90 89t-32.5 126.5t32.5 126.5t90 88.5t128.5 32t128 -32zM215 385q-38 -22 -59.5 -60.5t-21.5 -86.5t21.5 -86.5t59.5 -60.5t84 -22
t84 22t59.5 60.5t21.5 86.5t-21.5 86.5t-59.5 60.5t-84 22t-84 -22z" />
    <glyph glyph-name="oacute" unicode="&#xf3;" horiz-adv-x="598" 
d="M336 699h103l-127 -153h-83zM427 453q57 -32 90 -88.5t33 -126.5t-33 -126.5t-90.5 -89t-127.5 -32.5q-71 0 -128.5 32.5t-90 89t-32.5 126.5t32.5 126.5t90 88.5t128.5 32t128 -32zM215 385q-38 -22 -59.5 -60.5t-21.5 -86.5t21.5 -86.5t59.5 -60.5t84 -22t84 22
t59.5 60.5t21.5 86.5t-21.5 86.5t-59.5 60.5t-84 22t-84 -22z" />
    <glyph glyph-name="ocircumflex" unicode="&#xf4;" horiz-adv-x="598" 
d="M299 639l-86 -93h-85l119 147h105l118 -147h-85zM427 453q57 -32 90 -88.5t33 -126.5t-33 -126.5t-90.5 -89t-127.5 -32.5q-71 0 -128.5 32.5t-90 89t-32.5 126.5t32.5 126.5t90 88.5t128.5 32t128 -32zM215 385q-38 -22 -59.5 -60.5t-21.5 -86.5t21.5 -86.5t59.5 -60.5
t84 -22t84 22t59.5 60.5t21.5 86.5t-21.5 86.5t-59.5 60.5t-84 22t-84 -22z" />
    <glyph glyph-name="otilde" unicode="&#xf5;" horiz-adv-x="598" 
d="M173 663.5q27 14.5 63 14.5q25 0 43 -6t40 -18q3 -2 13 -6.5t19 -7t17 -2.5q18 0 33.5 8.5t32.5 27.5l48 -48q-23 -30 -50.5 -44.5t-63.5 -14.5q-25 0 -43 6t-39 17q-17 9 -27 13t-23 4q-18 0 -33.5 -9t-33.5 -28l-47 49q24 30 51 44.5zM427 453q57 -32 90 -88.5
t33 -126.5t-33 -126.5t-90.5 -89t-127.5 -32.5q-71 0 -128.5 32.5t-90 89t-32.5 126.5t32.5 126.5t90 88.5t128.5 32t128 -32zM215 385q-38 -22 -59.5 -60.5t-21.5 -86.5t21.5 -86.5t59.5 -60.5t84 -22t84 22t59.5 60.5t21.5 86.5t-21.5 86.5t-59.5 60.5t-84 22t-84 -22z
" />
    <glyph glyph-name="odieresis" unicode="&#xf6;" horiz-adv-x="598" 
d="M234.5 659.5q16.5 -16.5 16.5 -40.5t-16.5 -40t-40.5 -16t-40 16t-16 40t16 40.5t40 16.5t40.5 -16.5zM443.5 659.5q16.5 -16.5 16.5 -40.5t-16.5 -40t-40.5 -16t-40 16t-16 40t16 40.5t40 16.5t40.5 -16.5zM427 453q57 -32 90 -88.5t33 -126.5t-33 -126.5t-90.5 -89
t-127.5 -32.5q-71 0 -128.5 32.5t-90 89t-32.5 126.5t32.5 126.5t90 88.5t128.5 32t128 -32zM215 385q-38 -22 -59.5 -60.5t-21.5 -86.5t21.5 -86.5t59.5 -60.5t84 -22t84 22t59.5 60.5t21.5 86.5t-21.5 86.5t-59.5 60.5t-84 22t-84 -22z" />
    <glyph glyph-name="divide" unicode="&#xf7;" 
d="M340 469q16 -16 16 -39t-16.5 -39.5t-38.5 -16.5t-39 17t-17 39t16.5 38.5t39.5 16.5t39 -16zM81 230v73h438v-73h-438zM340 143q16 -16 16 -39t-16.5 -39.5t-38.5 -16.5t-39 17t-17 39t16.5 38.5t39.5 16.5t39 -16z" />
    <glyph glyph-name="oslash" unicode="&#xf8;" horiz-adv-x="598" 
d="M450 438l55 55l50 -49l-55 -54q50 -68 50 -152q0 -70 -33 -126.5t-90.5 -89t-127.5 -32.5q-84 0 -151 48l-54 -56l-50 49l54 55q-24 31 -37 70t-13 82q0 70 32.5 126.5t90 88.5t128.5 32q87 0 151 -47zM214.5 386q-37.5 -22 -59.5 -60.5t-22 -87.5q0 -52 27 -92l233 233
q-42 29 -94 29q-47 0 -84.5 -22zM439 331l-234 -234q44 -29 94 -29q47 0 85 22t59.5 61t21.5 87q0 51 -26 93z" />
    <glyph glyph-name="ugrave" unicode="&#xf9;" horiz-adv-x="591" 
d="M254 699l107 -153h-82l-128 153h103zM484.5 84q-29.5 -47 -79 -70.5t-109.5 -23.5q-61 0 -110.5 23.5t-78.5 70.5t-29 115v277h84v-269q0 -67 36.5 -102.5t97.5 -35.5q60 0 96.5 35.5t36.5 102.5v269h85v-277q0 -68 -29.5 -115z" />
    <glyph glyph-name="uacute" unicode="&#xfa;" horiz-adv-x="591" 
d="M333 699h103l-128 -153h-82zM484.5 84q-29.5 -47 -79 -70.5t-109.5 -23.5q-61 0 -110.5 23.5t-78.5 70.5t-29 115v277h84v-269q0 -67 36.5 -102.5t97.5 -35.5q60 0 96.5 35.5t36.5 102.5v269h85v-277q0 -68 -29.5 -115z" />
    <glyph glyph-name="ucircumflex" unicode="&#xfb;" horiz-adv-x="591" 
d="M296 639l-86 -93h-85l118 147h105l119 -147h-85zM484.5 84q-29.5 -47 -79 -70.5t-109.5 -23.5q-61 0 -110.5 23.5t-78.5 70.5t-29 115v277h84v-269q0 -67 36.5 -102.5t97.5 -35.5q60 0 96.5 35.5t36.5 102.5v269h85v-277q0 -68 -29.5 -115z" />
    <glyph glyph-name="udieresis" unicode="&#xfc;" horiz-adv-x="591" 
d="M231.5 659.5q16.5 -16.5 16.5 -40.5t-16.5 -40t-40.5 -16t-40 16t-16 40t16 40.5t40 16.5t40.5 -16.5zM440.5 659.5q16.5 -16.5 16.5 -40.5t-16.5 -40t-40.5 -16t-40.5 16t-16.5 40t16.5 40.5t40.5 16.5t40.5 -16.5zM484.5 84q-29.5 -47 -79 -70.5t-109.5 -23.5
q-61 0 -110.5 23.5t-78.5 70.5t-29 115v277h84v-269q0 -67 36.5 -102.5t97.5 -35.5q60 0 96.5 35.5t36.5 102.5v269h85v-277q0 -68 -29.5 -115z" />
    <glyph glyph-name="yacute" unicode="&#xfd;" horiz-adv-x="533" 
d="M307 699h103l-128 -153h-82zM50 -202l177 306l-217 372h95l169 -287l159 287h93l-383 -678h-93z" />
    <glyph glyph-name="thorn" unicode="&#xfe;" horiz-adv-x="620" 
d="M456 453q54 -32 85 -88.5t31 -126.5t-31 -126.5t-85 -89t-119 -32.5q-56 0 -99 22.5t-71 62.5v-275h-84v920h84v-319q28 39 71 61.5t99 22.5q65 0 119 -32zM240 385q-37 -22 -57.5 -60.5t-20.5 -86.5t20.5 -86.5t57.5 -60.5t83 -22q47 0 84 22.5t57.5 61t20.5 85.5
t-20.5 85.5t-57.5 61t-84 22.5q-46 0 -83 -22z" />
    <glyph glyph-name="ydieresis" unicode="&#xff;" horiz-adv-x="533" 
d="M204.5 659.5q16.5 -16.5 16.5 -40.5t-16.5 -40t-40.5 -16q-23 0 -39.5 16t-16.5 40t16.5 40.5t39.5 16.5q24 0 40.5 -16.5zM413.5 659.5q16.5 -16.5 16.5 -40.5t-16.5 -40t-40.5 -16t-40 16t-16 40t16 40.5t40 16.5t40.5 -16.5zM50 -202l177 306l-217 372h95l169 -287
l159 287h93l-383 -678h-93z" />
    <glyph glyph-name="Amacron" unicode="&#x100;" horiz-adv-x="715" 
d="M511 859v-67h-306v67h306zM603 0l-76 189h-340l-76 -189h-94l285 700h111l286 -700h-96zM493 274l-136 338l-137 -338h273z" />
    <glyph glyph-name="amacron" unicode="&#x101;" horiz-adv-x="619" 
d="M459 653v-68h-307v68h307zM454 0v77q-28 -40 -71.5 -63.5t-99.5 -23.5q-65 0 -119 32.5t-85 89t-31 126.5t31 126.5t85 88.5t119 32q57 0 100 -22.5t71 -63.5v77h83v-476h-83zM212 384.5q-37 -22.5 -57.5 -61t-20.5 -85.5t20.5 -85.5t57.5 -61t84 -22.5t83.5 22t57 60.5
t20.5 86.5t-20.5 86.5t-57 60.5t-83.5 22t-84 -22.5z" />
    <glyph glyph-name="Abreve" unicode="&#x102;" horiz-adv-x="715" 
d="M291 842.5q28 -23.5 67 -23.5q80 0 107 94l67 -20q-19 -70 -64 -106.5t-110 -36.5t-109.5 37t-63.5 106l65 20q13 -47 41 -70.5zM603 0l-76 189h-340l-76 -189h-94l285 700h111l286 -700h-96zM493 274l-136 338l-137 -338h273z" />
    <glyph glyph-name="abreve" unicode="&#x103;" horiz-adv-x="619" 
d="M305 612q80 0 108 94l66 -20q-19 -69 -64 -106t-110 -37t-109.5 37t-63.5 106l66 20q27 -94 107 -94zM454 0v77q-28 -40 -71.5 -63.5t-99.5 -23.5q-65 0 -119 32.5t-85 89t-31 126.5t31 126.5t85 88.5t119 32q57 0 100 -22.5t71 -63.5v77h83v-476h-83zM212 384.5
q-37 -22.5 -57.5 -61t-20.5 -85.5t20.5 -85.5t57.5 -61t84 -22.5t83.5 22t57 60.5t20.5 86.5t-20.5 86.5t-57 60.5t-83.5 22t-84 -22.5z" />
    <glyph glyph-name="Aogonek" unicode="&#x104;" horiz-adv-x="715" 
d="M598 -207q-48 0 -78 24t-30 65q0 37 27.5 66.5t82.5 57.5l-73 183h-340l-76 -189h-94l285 701h111l286 -701h-28q-55 -25 -80.5 -49.5t-25.5 -50.5q0 -18 11.5 -28t31.5 -10q29 0 50 24l43 -51q-40 -42 -103 -42zM493 274l-136 338l-137 -338h273z" />
    <glyph glyph-name="aogonek" unicode="&#x105;" horiz-adv-x="619" 
d="M459 -207q-48 0 -78.5 24t-30.5 65q0 37 26 65.5t78 54.5v75q-28 -40 -71.5 -63.5t-99.5 -23.5q-65 0 -119 32.5t-85 89t-31 126.5t31 126.5t85 88.5t119 32q57 0 100 -22.5t71 -63.5v77h83v-476q-59 -25 -85 -48t-26 -52q0 -18 11.5 -28t31.5 -10q28 0 50 24l43 -51
q-42 -42 -103 -42zM212 384.5q-37 -22.5 -57.5 -61t-20.5 -85.5t20.5 -85.5t57.5 -61t84 -22.5t83.5 22t57 60.5t20.5 86.5t-20.5 86.5t-57 60.5t-83.5 22t-84 -22.5z" />
    <glyph glyph-name="Cacute" unicode="&#x106;" horiz-adv-x="761" 
d="M447 906h103l-128 -153h-81zM588.5 670q77.5 -40 119.5 -109l-76 -48q-35 52 -90.5 81t-122.5 29q-76 0 -137 -34.5t-96 -96.5t-35 -142t35 -142.5t96.5 -96.5t136.5 -34q67 0 122.5 29t89.5 81l74 -53q-45 -67 -120 -105.5t-166 -38.5q-103 0 -185.5 46t-129.5 128
t-47 186t47 186t129.5 128t185.5 46q92 0 169.5 -40z" />
    <glyph glyph-name="cacute" unicode="&#x107;" horiz-adv-x="514" 
d="M328 699h103l-127 -153h-82zM397.5 464.5q46.5 -20.5 79.5 -59.5l-59 -52q-52 54 -125 54q-45 0 -81 -21.5t-57 -60t-21 -87.5t21 -87.5t57 -60t81 -21.5q71 0 127 56l57 -54q-33 -39 -79.5 -60t-101.5 -21q-72 0 -128.5 32.5t-88 89t-31.5 126.5t31.5 126.5t88 88.5
t128.5 32q55 0 101.5 -20.5z" />
    <glyph glyph-name="Ccircumflex" unicode="&#x108;" horiz-adv-x="761" 
d="M416 845l-86 -92h-85l118 147h106l118 -147h-85zM588.5 670q77.5 -40 119.5 -109l-76 -48q-35 52 -90.5 81t-122.5 29q-76 0 -137 -34.5t-96 -96.5t-35 -142t35 -142.5t96.5 -96.5t136.5 -34q67 0 122.5 29t89.5 81l74 -53q-45 -67 -120 -105.5t-166 -38.5
q-103 0 -185.5 46t-129.5 128t-47 186t47 186t129.5 128t185.5 46q92 0 169.5 -40z" />
    <glyph glyph-name="ccircumflex" unicode="&#x109;" horiz-adv-x="514" 
d="M291 639l-86 -93h-85l119 147h105l119 -147h-86zM397.5 464.5q46.5 -20.5 79.5 -59.5l-59 -52q-52 54 -125 54q-45 0 -81 -21.5t-57 -60t-21 -87.5t21 -87.5t57 -60t81 -21.5q71 0 127 56l57 -54q-33 -39 -79.5 -60t-101.5 -21q-72 0 -128.5 32.5t-88 89t-31.5 126.5
t31.5 126.5t88 88.5t128.5 32q55 0 101.5 -20.5z" />
    <glyph glyph-name="Cdotaccent" unicode="&#x10a;" horiz-adv-x="761" 
d="M450 870q17 -17 17 -42t-17 -42t-42 -17t-41.5 17t-16.5 42t16.5 42t41.5 17t42 -17zM588.5 670q77.5 -40 119.5 -109l-76 -48q-35 52 -90.5 81t-122.5 29q-76 0 -137 -34.5t-96 -96.5t-35 -142t35 -142.5t96.5 -96.5t136.5 -34q67 0 122.5 29t89.5 81l74 -53
q-45 -67 -120 -105.5t-166 -38.5q-103 0 -185.5 46t-129.5 128t-47 186t47 186t129.5 128t185.5 46q92 0 169.5 -40z" />
    <glyph glyph-name="cdotaccent" unicode="&#x10b;" horiz-adv-x="514" 
d="M331.5 681.5q16.5 -16.5 16.5 -40.5t-16.5 -40t-40.5 -16t-40 16t-16 40t16 40.5t40 16.5t40.5 -16.5zM397.5 464.5q46.5 -20.5 79.5 -59.5l-59 -52q-52 54 -125 54q-45 0 -81 -21.5t-57 -60t-21 -87.5t21 -87.5t57 -60t81 -21.5q71 0 127 56l57 -54q-33 -39 -79.5 -60
t-101.5 -21q-72 0 -128.5 32.5t-88 89t-31.5 126.5t31.5 126.5t88 88.5t128.5 32q55 0 101.5 -20.5z" />
    <glyph glyph-name="Ccaron" unicode="&#x10c;" horiz-adv-x="761" 
d="M416 806l86 93h85l-118 -147h-106l-118 147h85zM588.5 670q77.5 -40 119.5 -109l-76 -48q-35 52 -90.5 81t-122.5 29q-76 0 -137 -34.5t-96 -96.5t-35 -142t35 -142.5t96.5 -96.5t136.5 -34q67 0 122.5 29t89.5 81l74 -53q-45 -67 -120 -105.5t-166 -38.5
q-103 0 -185.5 46t-129.5 128t-47 186t47 186t129.5 128t185.5 46q92 0 169.5 -40z" />
    <glyph glyph-name="ccaron" unicode="&#x10d;" horiz-adv-x="514" 
d="M291 600l86 93h86l-119 -148h-105l-119 148h85zM397.5 464.5q46.5 -20.5 79.5 -59.5l-59 -52q-52 54 -125 54q-45 0 -81 -21.5t-57 -60t-21 -87.5t21 -87.5t57 -60t81 -21.5q71 0 127 56l57 -54q-33 -39 -79.5 -60t-101.5 -21q-72 0 -128.5 32.5t-88 89t-31.5 126.5
t31.5 126.5t88 88.5t128.5 32q55 0 101.5 -20.5z" />
    <glyph glyph-name="Dcaron" unicode="&#x10e;" horiz-adv-x="792" 
d="M366 806l86 93h85l-118 -147h-105l-119 147h85zM560.5 657q84.5 -43 130 -122t45.5 -185t-45.5 -185t-130 -122t-197.5 -43h-267v700h267q113 0 197.5 -43zM186 85h177q134 0 206.5 72t72.5 193q0 122 -72.5 193.5t-206.5 71.5h-177v-530z" />
    <glyph glyph-name="dcaron" unicode="&#x10f;" horiz-adv-x="653" 
d="M382 462.5q43 -22.5 71 -62.5v320h84v-720h-83v77q-28 -40 -71.5 -63.5t-99.5 -23.5q-65 0 -119 32.5t-85 89t-31 126.5t31 126.5t85 88.5t119 32q56 0 99 -22.5zM598 720h84l-20 -201h-68zM212 384.5q-37 -22.5 -57.5 -61t-20.5 -85.5t20.5 -85.5t57.5 -61t84 -22.5
t83.5 22t57 60.5t20.5 86.5t-20.5 86.5t-57 60.5t-83.5 22t-84 -22.5z" />
    <glyph glyph-name="Dcroat" unicode="&#x110;" horiz-adv-x="867" 
d="M634.5 657q84.5 -43 130 -122t45.5 -185t-45.5 -185t-130 -122t-197.5 -43h-268v312h-112v83h112v305h268q113 0 197.5 -43zM259 312v-227h178q134 0 206.5 72t72.5 193q0 122 -72.5 193.5t-206.5 71.5h-178v-220h197v-83h-197z" />
    <glyph glyph-name="dcroat" unicode="&#x111;" horiz-adv-x="616" 
d="M537 556v-556h-83v77q-28 -40 -71.5 -63.5t-99.5 -23.5q-65 0 -119 32.5t-85 89t-31 126.5t31 126.5t85 88.5t119 32q56 0 99 -22.5t71 -62.5v156h-204v72h204v92h84v-92h73v-72h-73zM212 384.5q-37 -22.5 -57.5 -61t-20.5 -85.5t20.5 -85.5t57.5 -61t84 -22.5t83.5 22
t57 60.5t20.5 86.5t-20.5 86.5t-57 60.5t-83.5 22t-84 -22.5z" />
    <glyph glyph-name="Emacron" unicode="&#x112;" horiz-adv-x="669" 
d="M493 859v-67h-306v67h306zM96 0v700h493v-83h-403v-223h389v-83h-389v-227h407v-84h-497z" />
    <glyph glyph-name="emacron" unicode="&#x113;" horiz-adv-x="560" 
d="M438 653v-68h-307v68h307zM401.5 454q51.5 -31 80.5 -87t29 -127q0 -22 -1 -31h-375q7 -69 51 -107.5t109 -38.5q80 0 146 59l47 -55q-77 -77 -198 -77q-70 0 -125 31.5t-86 87.5t-31 128t30.5 128.5t85 88t122.5 31.5q64 0 115.5 -31zM184 374q-40 -38 -48 -101h290
q-7 63 -45.5 101t-95.5 38q-61 0 -101 -38z" />
    <glyph glyph-name="Ebreve" unicode="&#x114;" horiz-adv-x="669" 
d="M273 842.5q28 -23.5 67 -23.5q80 0 107 94l67 -20q-19 -70 -64 -106.5t-110 -36.5t-110 36.5t-64 106.5l66 20q13 -47 41 -70.5zM96 0v700h493v-83h-403v-223h389v-83h-389v-227h407v-84h-497z" />
    <glyph glyph-name="ebreve" unicode="&#x115;" horiz-adv-x="560" 
d="M285 612q80 0 107 94l66 -20q-19 -69 -64 -106t-109 -37q-65 0 -110 37t-64 106l66 20q27 -94 108 -94zM401.5 454q51.5 -31 80.5 -87t29 -127q0 -22 -1 -31h-375q7 -69 51 -107.5t109 -38.5q80 0 146 59l47 -55q-77 -77 -198 -77q-70 0 -125 31.5t-86 87.5t-31 128
t30.5 128.5t85 88t122.5 31.5q64 0 115.5 -31zM184 374q-40 -38 -48 -101h290q-7 63 -45.5 101t-95.5 38q-61 0 -101 -38z" />
    <glyph glyph-name="Edotaccent" unicode="&#x116;" horiz-adv-x="669" 
d="M374 870q17 -17 17 -42t-17 -42t-41 -17q-25 0 -42 17t-17 42t17 42t42 17q24 0 41 -17zM96 0v700h493v-83h-403v-223h389v-83h-389v-227h407v-84h-497z" />
    <glyph glyph-name="edotaccent" unicode="&#x117;" horiz-adv-x="560" 
d="M324.5 681.5q16.5 -16.5 16.5 -40.5t-16.5 -40t-39.5 -16q-24 0 -40.5 16t-16.5 40t16.5 40.5t40.5 16.5q23 0 39.5 -16.5zM401.5 454q51.5 -31 80.5 -87t29 -127q0 -22 -1 -31h-375q7 -69 51 -107.5t109 -38.5q80 0 146 59l47 -55q-77 -77 -198 -77q-70 0 -125 31.5
t-86 87.5t-31 128t30.5 128.5t85 88t122.5 31.5q64 0 115.5 -31zM184 374q-40 -38 -48 -101h290q-7 63 -45.5 101t-95.5 38q-61 0 -101 -38z" />
    <glyph glyph-name="Eogonek" unicode="&#x118;" horiz-adv-x="669" 
d="M502 0q-38 -21 -55.5 -42.5t-17.5 -45.5q0 -23 16.5 -36.5t43.5 -13.5q38 0 68 28l45 -51q-24 -22 -55 -34t-66 -12q-58 0 -94.5 28.5t-36.5 73.5q0 33 17.5 58.5t52.5 46.5h-324v700h493v-83h-403v-223h389v-83h-389v-227h407v-84h-91z" />
    <glyph glyph-name="eogonek" unicode="&#x119;" horiz-adv-x="560" 
d="M364 -207q-58 0 -94.5 28.5t-36.5 73.5q0 55 56 97q-69 -1 -124 30t-86 87t-31 128t30.5 128.5t85 88t122.5 31.5q64 0 115.5 -31t80.5 -87t29 -127q0 -22 -1 -31h-375q7 -69 51 -107.5t109 -38.5q80 0 146 59l47 -55q-37 -37 -84 -56q-91 -43 -91 -99q0 -23 15.5 -36.5
t42.5 -13.5q39 0 70 28l44 -51q-49 -46 -121 -46zM184 374q-40 -38 -48 -101h290q-7 63 -45.5 101t-95.5 38q-61 0 -101 -38z" />
    <glyph glyph-name="Ecaron" unicode="&#x11a;" horiz-adv-x="669" 
d="M340 806l86 93h85l-119 -147h-105l-118 147h85zM96 0v700h493v-83h-403v-223h389v-83h-389v-227h407v-84h-497z" />
    <glyph glyph-name="ecaron" unicode="&#x11b;" horiz-adv-x="560" 
d="M285 600l85 93h86l-119 -148h-105l-119 148h86zM401.5 454q51.5 -31 80.5 -87t29 -127q0 -22 -1 -31h-375q7 -69 51 -107.5t109 -38.5q80 0 146 59l47 -55q-77 -77 -198 -77q-70 0 -125 31.5t-86 87.5t-31 128t30.5 128.5t85 88t122.5 31.5q64 0 115.5 -31zM184 374
q-40 -38 -48 -101h290q-7 63 -45.5 101t-95.5 38q-61 0 -101 -38z" />
    <glyph glyph-name="Gcircumflex" unicode="&#x11c;" horiz-adv-x="812" 
d="M408 845l-85 -92h-86l118 147h106l118 -147h-85zM570.5 680q69.5 -30 118.5 -85l-66 -64q-37 44 -90 68.5t-115 24.5q-76 0 -136.5 -34.5t-95.5 -97t-35 -142.5q0 -81 35 -143t95.5 -96.5t133.5 -34.5q107 0 171 59t73 162h-215v79h310q1 -9 1 -24q0 -104 -42.5 -186.5
t-119.5 -129t-177 -46.5q-96 0 -178 44t-131.5 126t-49.5 190q0 104 47 186t130 128t186 46q81 0 150.5 -30z" />
    <glyph glyph-name="gcircumflex" unicode="&#x11d;" horiz-adv-x="614" 
d="M299 639l-86 -93h-85l118 147h106l118 -147h-86zM378.5 462q43.5 -23 70.5 -64v78h83v-441q0 -77 -32 -131.5t-89 -82.5t-131 -28q-58 0 -112.5 17t-90.5 47l35 65q73 -54 166 -54q75 0 123 42.5t48 121.5v55q-28 -41 -71 -64.5t-100 -23.5q-63 0 -115.5 31t-83.5 86.5
t-31 125.5t30.5 125.5t83.5 86.5t116 31q57 0 100.5 -23zM211.5 386q-36.5 -22 -56.5 -60t-20 -84t20 -83.5t56.5 -59t82.5 -21.5t82 21.5t56.5 59t20.5 83.5q0 47 -20.5 84.5t-56.5 59.5t-82 22t-82.5 -22z" />
    <glyph glyph-name="Gbreve" unicode="&#x11e;" horiz-adv-x="812" 
d="M408 819q82 0 107 94l67 -20q-19 -69 -64 -106t-110 -37q-64 0 -109 37t-64 106l66 20q27 -94 107 -94zM570.5 680q69.5 -30 118.5 -85l-66 -64q-37 44 -90 68.5t-115 24.5q-76 0 -136.5 -34.5t-95.5 -97t-35 -142.5q0 -81 35 -143t95.5 -96.5t133.5 -34.5q107 0 171 59
t73 162h-215v79h310q1 -9 1 -24q0 -104 -42.5 -186.5t-119.5 -129t-177 -46.5q-96 0 -178 44t-131.5 126t-49.5 190q0 104 47 186t130 128t186 46q81 0 150.5 -30z" />
    <glyph glyph-name="gbreve" unicode="&#x11f;" horiz-adv-x="614" 
d="M299 612q80 0 107 94l66 -20q-19 -69 -64 -106t-109 -37q-65 0 -110 37t-63 106l65 20q27 -94 108 -94zM378.5 462q43.5 -23 70.5 -64v78h83v-441q0 -77 -32 -131.5t-89 -82.5t-131 -28q-58 0 -112.5 17t-90.5 47l35 65q73 -54 166 -54q75 0 123 42.5t48 121.5v55
q-28 -41 -71 -64.5t-100 -23.5q-63 0 -115.5 31t-83.5 86.5t-31 125.5t30.5 125.5t83.5 86.5t116 31q57 0 100.5 -23zM211.5 386q-36.5 -22 -56.5 -60t-20 -84t20 -83.5t56.5 -59t82.5 -21.5t82 21.5t56.5 59t20.5 83.5q0 47 -20.5 84.5t-56.5 59.5t-82 22t-82.5 -22z" />
    <glyph glyph-name="Gdotaccent" unicode="&#x120;" horiz-adv-x="812" 
d="M443 870q17 -17 17 -42t-17 -42t-42 -17t-42 17t-17 42t17 42t42 17t42 -17zM570.5 680q69.5 -30 118.5 -85l-66 -64q-37 44 -90 68.5t-115 24.5q-76 0 -136.5 -34.5t-95.5 -97t-35 -142.5q0 -81 35 -143t95.5 -96.5t133.5 -34.5q107 0 171 59t73 162h-215v79h310
q1 -9 1 -24q0 -104 -42.5 -186.5t-119.5 -129t-177 -46.5q-96 0 -178 44t-131.5 126t-49.5 190q0 104 47 186t130 128t186 46q81 0 150.5 -30z" />
    <glyph glyph-name="gdotaccent" unicode="&#x121;" horiz-adv-x="614" 
d="M338.5 681.5q16.5 -16.5 16.5 -40.5t-16.5 -40t-39.5 -16q-24 0 -40 16t-16 40t16 40.5t40 16.5q23 0 39.5 -16.5zM378.5 462q43.5 -23 70.5 -64v78h83v-441q0 -77 -32 -131.5t-89 -82.5t-131 -28q-58 0 -112.5 17t-90.5 47l35 65q73 -54 166 -54q75 0 123 42.5t48 121.5
v55q-28 -41 -71 -64.5t-100 -23.5q-63 0 -115.5 31t-83.5 86.5t-31 125.5t30.5 125.5t83.5 86.5t116 31q57 0 100.5 -23zM211.5 386q-36.5 -22 -56.5 -60t-20 -84t20 -83.5t56.5 -59t82.5 -21.5t82 21.5t56.5 59t20.5 83.5q0 47 -20.5 84.5t-56.5 59.5t-82 22t-82.5 -22z
" />
    <glyph glyph-name="Gcommaaccent" unicode="&#x122;" horiz-adv-x="812" 
d="M570.5 680q69.5 -30 118.5 -85l-66 -64q-37 44 -90 68.5t-115 24.5q-76 0 -136.5 -34.5t-95.5 -97t-35 -142.5q0 -81 35 -143t95.5 -96.5t133.5 -34.5q107 0 171 59t73 162h-215v79h310q1 -9 1 -24q0 -104 -42.5 -186.5t-119.5 -129t-177 -46.5q-96 0 -178 44t-131.5 126
t-49.5 190q0 104 47 186t130 128t186 46q81 0 150.5 -30zM422 -223h-71l22 180h88z" />
    <glyph glyph-name="gcommaaccent" unicode="&#x123;" horiz-adv-x="614" 
d="M289 725h72l-21 -179h-89zM378.5 462q43.5 -23 70.5 -64v78h83v-441q0 -77 -32 -131.5t-89 -82.5t-131 -28q-58 0 -112.5 17t-90.5 47l35 65q73 -54 166 -54q75 0 123 42.5t48 121.5v55q-28 -41 -71 -64.5t-100 -23.5q-63 0 -115.5 31t-83.5 86.5t-31 125.5t30.5 125.5
t83.5 86.5t116 31q57 0 100.5 -23zM211.5 386q-36.5 -22 -56.5 -60t-20 -84t20 -83.5t56.5 -59t82.5 -21.5t82 21.5t56.5 59t20.5 83.5q0 47 -20.5 84.5t-56.5 59.5t-82 22t-82.5 -22z" />
    <glyph glyph-name="Hcircumflex" unicode="&#x124;" horiz-adv-x="780" 
d="M390 845l-86 -92h-85l118 147h106l119 -147h-87zM594 395v305h91v-700h-91v311h-408v-311h-90v700h90v-305h408z" />
    <glyph glyph-name="hcircumflex" unicode="&#x125;" horiz-adv-x="596" 
d="M301 863l-86 -92h-86l118 147h106l119 -147h-86zM234.5 465.5q41.5 19.5 89.5 19.5q87 0 141 -51.5t54 -137.5v-296h-85v270q0 64 -34 100t-95 36q-59 0 -98.5 -38t-39.5 -101v-267h-84v720h84v-315q26 41 67.5 60.5z" />
    <glyph glyph-name="Hbar" unicode="&#x126;" horiz-adv-x="810" 
d="M699 505v-505h-90v311h-408v-311h-91v505h-81v74h81v121h91v-121h408v121h90v-121h82v-74h-82zM609 505h-408v-110h408v110z" />
    <glyph glyph-name="hbar" unicode="&#x127;" horiz-adv-x="596" 
d="M167 556v-151q26 41 67.5 60.5t89.5 19.5q87 0 141 -51.5t54 -137.5v-296h-85v270q0 64 -34 100t-95 36q-59 0 -98.5 -38t-39.5 -101v-267h-84v556h-84v72h84v92h84v-92h194v-72h-194z" />
    <glyph glyph-name="Itilde" unicode="&#x128;" horiz-adv-x="281" 
d="M10.5 870q27.5 14 63.5 14q26 0 44 -6t40 -18q17 -8 27 -12t22 -4q18 0 33.5 9t32.5 28l47 -48q-23 -31 -50 -45.5t-63 -14.5q-25 0 -43 6t-39 17q-17 9 -27.5 13t-23.5 4q-18 0 -33.5 -8.5t-32.5 -27.5l-47 48q22 31 49.5 45zM96 0v700h90v-700h-90z" />
    <glyph glyph-name="itilde" unicode="&#x129;" horiz-adv-x="250" 
d="M-1.5 663.5q27.5 14.5 63.5 14.5q25 0 43 -6t40 -18q3 -2 13 -6.5t19 -7t17 -2.5q18 0 34 9t33 27l47 -48q-23 -30 -50.5 -44.5t-63.5 -14.5q-25 0 -43 6t-40 18q-17 8 -27 12t-22 4q-18 0 -33.5 -9t-33.5 -28l-47 49q23 30 50.5 44.5zM83 0v476h84v-476h-84z" />
    <glyph glyph-name="Imacron" unicode="&#x12a;" horiz-adv-x="281" 
d="M294 859v-67h-307v67h307zM96 0v700h90v-700h-90z" />
    <glyph glyph-name="imacron" unicode="&#x12b;" horiz-adv-x="250" 
d="M278 653v-68h-307v68h307zM83 0v476h84v-476h-84z" />
    <glyph glyph-name="Ibreve" unicode="&#x12c;" horiz-adv-x="281" 
d="M141 819q80 0 107 94l66 -20q-19 -69 -64 -106t-109 -37q-65 0 -110 37t-64 106l66 20q27 -94 108 -94zM96 0v700h90v-700h-90z" />
    <glyph glyph-name="ibreve" unicode="&#x12d;" horiz-adv-x="250" 
d="M125 612q80 0 107 94l67 -20q-19 -70 -64 -106.5t-110 -36.5t-110 37t-64 106l66 20q28 -94 108 -94zM83 0v476h84v-476h-84z" />
    <glyph glyph-name="Iogonek" unicode="&#x12e;" horiz-adv-x="281" 
d="M145 -207q-48 0 -78.5 23.5t-30.5 64.5q0 34 19.5 62.5t57.5 56.5h-17v700h90v-700q-38 -27 -56 -50.5t-18 -49.5q0 -18 11.5 -28t31.5 -10q28 0 49 24l43 -51q-40 -42 -102 -42z" />
    <glyph glyph-name="iogonek" unicode="&#x12f;" horiz-adv-x="250" 
d="M165.5 681.5q16.5 -16.5 16.5 -40.5t-16.5 -40t-40.5 -16t-40.5 16t-16.5 40t16.5 40.5t40.5 16.5t40.5 -16.5zM111.5 -50.5q-17.5 -23.5 -17.5 -49.5q0 -18 11.5 -28t31.5 -10q28 0 49 24l44 -51q-42 -42 -103 -42q-48 0 -78.5 23.5t-30.5 64.5q0 33 20 62t58 57h-13
v476h84v-476q-38 -27 -55.5 -50.5z" />
    <glyph glyph-name="Idotaccent" unicode="&#x130;" horiz-adv-x="281" 
d="M175 870q17 -17 17 -42t-17 -42t-42 -17t-42 17t-17 42t17 42t42 17t42 -17zM96 0v700h90v-700h-90z" />
    <glyph glyph-name="dotlessi" unicode="&#x131;" horiz-adv-x="250" 
d="M83 0v476h84v-476h-84z" />
    <glyph glyph-name="IJ" unicode="&#x132;" horiz-adv-x="852" 
d="M96 0v700h90v-700h-90zM730.5 110.5q-31.5 -59.5 -87.5 -90t-127 -30.5q-133 0 -216 96l56 64q62 -73 158 -73q73 0 115.5 47.5t42.5 136.5v439h90v-448q0 -82 -31.5 -141.5z" />
    <glyph glyph-name="ij" unicode="&#x133;" horiz-adv-x="501" 
d="M165.5 681.5q16.5 -16.5 16.5 -40.5t-16.5 -40t-40.5 -16t-40.5 16t-16.5 40t16.5 40.5t40.5 16.5t40.5 -16.5zM415.5 681.5q16.5 -16.5 16.5 -40.5t-16.5 -40t-40.5 -16t-40 16t-16 40t16 40.5t40 16.5t40.5 -16.5zM83 0v476h84v-476h-84zM385.5 -173
q-32.5 -35 -89.5 -35q-18 0 -36.5 4t-31.5 11l16 74q20 -10 42 -10q23 0 35.5 15t12.5 45v545h84v-549q0 -65 -32.5 -100z" />
    <glyph glyph-name="Jcircumflex" unicode="&#x134;" horiz-adv-x="572" 
d="M436 845l-85 -92h-86l118 147h106l118 -147h-85zM449.5 110.5q-31.5 -59.5 -87.5 -90t-127 -30.5q-134 0 -215 96l56 64q27 -33 66 -53t91 -20q73 0 115.5 47.5t42.5 136.5v439h90v-448q0 -82 -31.5 -141.5z" />
    <glyph glyph-name="jcircumflex" unicode="&#x135;" horiz-adv-x="251" 
d="M126 639l-85 -93h-86l118 147h106l118 -147h-85zM136 -172.5q-33 -35.5 -89 -35.5q-18 0 -37 4t-32 11l16 74q22 -10 43 -10q48 0 48 60v545h84v-549q0 -64 -33 -99.5z" />
    <glyph glyph-name="Kcommaaccent" unicode="&#x136;" horiz-adv-x="694" 
d="M186 310v-310h-90v700h90v-306h83l279 306h115l-322 -343l343 -357h-119l-297 310h-82zM363 -223h-72l22 180h88z" />
    <glyph glyph-name="kcommaaccent" unicode="&#x137;" horiz-adv-x="531" 
d="M232 287l176 189h104l-211 -224l214 -252h-105l-178 212h-65v-212h-84v720h84v-433h65zM293 -223h-72l22 180h89z" />
    <glyph glyph-name="kgreenlandic" unicode="&#x138;" horiz-adv-x="528" 
d="M231 287l173 189h105l-209 -224l211 -252h-104l-177 212h-63v-212h-84v476h84v-189h64z" />
    <glyph glyph-name="Lacute" unicode="&#x139;" horiz-adv-x="603" 
d="M172 906h103l-128 -153h-81zM96 0v700h90v-615h398v-85h-488z" />
    <glyph glyph-name="lacute" unicode="&#x13a;" horiz-adv-x="250" 
d="M144 924h103l-128 -152h-82zM83 0v720h84v-720h-84z" />
    <glyph glyph-name="Lcommaaccent" unicode="&#x13b;" horiz-adv-x="603" 
d="M96 0v700h90v-615h398v-85h-488zM352 -223h-72l22 180h88z" />
    <glyph glyph-name="lcommaaccent" unicode="&#x13c;" horiz-adv-x="250" 
d="M83 0v720h84v-720h-84zM138 -223h-72l22 180h89z" />
    <glyph glyph-name="Lcaron" unicode="&#x13d;" horiz-adv-x="603" 
d="M96 0v700h90v-615h398v-85h-488zM303 700h84l-19 -201h-68z" />
    <glyph glyph-name="lcaron" unicode="&#x13e;" horiz-adv-x="279" 
d="M83 0v720h84v-720h-84zM222 720h85l-19 -201h-69z" />
    <glyph glyph-name="Ldot" unicode="&#x13f;" horiz-adv-x="603" 
d="M96 0v700h90v-615h398v-85h-488zM468 396.5q17 -17.5 17 -42.5t-17 -41.5t-42 -16.5t-41.5 16.5t-16.5 41.5t16.5 42.5t41.5 17.5t42 -17.5z" />
    <glyph glyph-name="ldot" unicode="&#x140;" horiz-adv-x="316" 
d="M83 0v720h84v-720h-84zM323.5 404.5q16.5 -16.5 16.5 -39.5t-16.5 -39t-39.5 -16t-39 16t-16 39t16 39.5t39 16.5t39.5 -16.5z" />
    <glyph glyph-name="Lslash" unicode="&#x141;" horiz-adv-x="668" 
d="M161 0v246l-104 -58v93l104 58v361h90v-310l252 141v-93l-252 -141v-212h398v-85h-488z" />
    <glyph glyph-name="lslash" unicode="&#x142;" horiz-adv-x="340" 
d="M315 517v-86l-103 -71v-360h-84v303l-103 -72v86l103 72v331h84v-275z" />
    <glyph glyph-name="Nacute" unicode="&#x143;" horiz-adv-x="785" 
d="M425 906h103l-128 -153h-82zM606 0l-420 548v-548h-90v700h83l420 -547v547h91v-700h-84z" />
    <glyph glyph-name="nacute" unicode="&#x144;" horiz-adv-x="596" 
d="M343 699h103l-128 -153h-82zM465 433.5q54 -51.5 54 -137.5v-296h-85v270q0 64 -34 100t-95 36q-59 0 -98.5 -38t-39.5 -101v-267h-84v476h83v-73q26 42 67.5 62t90.5 20q87 0 141 -51.5z" />
    <glyph glyph-name="Ncommaaccent" unicode="&#x145;" horiz-adv-x="785" 
d="M606 0l-420 548v-548h-90v700h83l420 -547v547h91v-700h-84zM408 -223h-73l22 180h89z" />
    <glyph glyph-name="ncommaaccent" unicode="&#x146;" horiz-adv-x="596" 
d="M465 433.5q54 -51.5 54 -137.5v-296h-85v270q0 64 -34 100t-95 36q-59 0 -98.5 -38t-39.5 -101v-267h-84v476h83v-73q26 42 67.5 62t90.5 20q87 0 141 -51.5zM314 -223h-72l21 180h89z" />
    <glyph glyph-name="Ncaron" unicode="&#x147;" horiz-adv-x="785" 
d="M393 806l86 93h86l-119 -147h-105l-119 147h86zM606 0l-420 548v-548h-90v700h83l420 -547v547h91v-700h-84z" />
    <glyph glyph-name="ncaron" unicode="&#x148;" horiz-adv-x="596" 
d="M306 600l85 93h86l-118 -148h-106l-118 148h85zM465 433.5q54 -51.5 54 -137.5v-296h-85v270q0 64 -34 100t-95 36q-59 0 -98.5 -38t-39.5 -101v-267h-84v476h83v-73q26 42 67.5 62t90.5 20q87 0 141 -51.5z" />
    <glyph glyph-name="napostrophe" unicode="&#x149;" horiz-adv-x="741" 
d="M133 458h-72l32 262h96zM609.5 433.5q53.5 -51.5 53.5 -137.5v-296h-84v270q0 64 -34.5 100t-95.5 36q-59 0 -98 -38t-39 -101v-267h-84v476h82v-73q26 42 68 62t91 20q87 0 140.5 -51.5z" />
    <glyph glyph-name="Eng" unicode="&#x14a;" horiz-adv-x="785" 
d="M646.5 -155.5q-43.5 -52.5 -130.5 -52.5q-75 0 -136 34l33 77q45 -25 91 -25q95 0 95 111v20l-413 539v-548h-90v700h83l420 -547v547h91v-716q0 -87 -43.5 -139.5z" />
    <glyph glyph-name="eng" unicode="&#x14b;" horiz-adv-x="596" 
d="M465 433.5q54 -51.5 54 -137.5v-331q0 -65 -32.5 -100t-89.5 -35q-39 0 -67 15l15 73q20 -9 42 -9q47 0 47 61v300q0 64 -34 100t-95 36q-59 0 -98.5 -38t-39.5 -101v-267h-84v476h83v-73q26 42 67.5 62t90.5 20q87 0 141 -51.5z" />
    <glyph glyph-name="Omacron" unicode="&#x14c;" horiz-adv-x="837" 
d="M572 859v-67h-306v67h306zM604.5 664q82.5 -46 129.5 -128.5t47 -185.5t-47 -185.5t-129.5 -128.5t-185.5 -46t-185.5 46t-129.5 128t-47 186t47 186t129.5 128t185.5 46t185.5 -46zM282 588.5q-61 -34.5 -96 -96.5t-35 -142q0 -79 35 -141.5t96 -97t137 -34.5
q75 0 136 34.5t96 96.5t35 142t-35 142t-95.5 96.5t-136.5 34.5t-137 -34.5z" />
    <glyph glyph-name="omacron" unicode="&#x14d;" horiz-adv-x="598" 
d="M452 653v-68h-306v68h306zM427 453q57 -32 90 -88.5t33 -126.5t-33 -126.5t-90.5 -89t-127.5 -32.5q-71 0 -128.5 32.5t-90 89t-32.5 126.5t32.5 126.5t90 88.5t128.5 32t128 -32zM215 385q-38 -22 -59.5 -60.5t-21.5 -86.5t21.5 -86.5t59.5 -60.5t84 -22t84 22
t59.5 60.5t21.5 86.5t-21.5 86.5t-59.5 60.5t-84 22t-84 -22z" />
    <glyph glyph-name="Obreve" unicode="&#x14e;" horiz-adv-x="837" 
d="M419 819q80 0 107 94l66 -20q-19 -69 -63.5 -106t-109.5 -37t-110 36.5t-64 106.5l66 20q28 -94 108 -94zM604.5 664q82.5 -46 129.5 -128.5t47 -185.5t-47 -185.5t-129.5 -128.5t-185.5 -46t-185.5 46t-129.5 128t-47 186t47 186t129.5 128t185.5 46t185.5 -46z
M282 588.5q-61 -34.5 -96 -96.5t-35 -142q0 -79 35 -141.5t96 -97t137 -34.5q75 0 136 34.5t96 96.5t35 142t-35 142t-95.5 96.5t-136.5 34.5t-137 -34.5z" />
    <glyph glyph-name="obreve" unicode="&#x14f;" horiz-adv-x="598" 
d="M232 635.5q27 -23.5 67 -23.5q80 0 107 94l67 -20q-19 -70 -64 -106.5t-110 -36.5t-110 37t-63 106l66 20q13 -47 40 -70.5zM427 453q57 -32 90 -88.5t33 -126.5t-33 -126.5t-90.5 -89t-127.5 -32.5q-71 0 -128.5 32.5t-90 89t-32.5 126.5t32.5 126.5t90 88.5t128.5 32
t128 -32zM215 385q-38 -22 -59.5 -60.5t-21.5 -86.5t21.5 -86.5t59.5 -60.5t84 -22t84 22t59.5 60.5t21.5 86.5t-21.5 86.5t-59.5 60.5t-84 22t-84 -22z" />
    <glyph glyph-name="Ohungarumlaut" unicode="&#x150;" horiz-adv-x="837" 
d="M379 906h92l-111 -153h-84zM564 906h95l-122 -153h-83zM604.5 664q82.5 -46 129.5 -128.5t47 -185.5t-47 -185.5t-129.5 -128.5t-185.5 -46t-185.5 46t-129.5 128t-47 186t47 186t129.5 128t185.5 46t185.5 -46zM282 588.5q-61 -34.5 -96 -96.5t-35 -142q0 -79 35 -141.5
t96 -97t137 -34.5q75 0 136 34.5t96 96.5t35 142t-35 142t-95.5 96.5t-136.5 34.5t-137 -34.5z" />
    <glyph glyph-name="ohungarumlaut" unicode="&#x151;" horiz-adv-x="598" 
d="M265 699h92l-111 -153h-84zM450 699h95l-122 -153h-83zM427 453q57 -32 90 -88.5t33 -126.5t-33 -126.5t-90.5 -89t-127.5 -32.5q-71 0 -128.5 32.5t-90 89t-32.5 126.5t32.5 126.5t90 88.5t128.5 32t128 -32zM215 385q-38 -22 -59.5 -60.5t-21.5 -86.5t21.5 -86.5
t59.5 -60.5t84 -22t84 22t59.5 60.5t21.5 86.5t-21.5 86.5t-59.5 60.5t-84 22t-84 -22z" />
    <glyph glyph-name="OE" unicode="&#x152;" horiz-adv-x="1123" 
d="M430 0q-113 0 -197.5 43t-130 122t-45.5 185t45.5 185t130 122t197.5 43h613v-83h-404v-223h390v-83h-390v-227h407v-84h-616zM223.5 156.5q72.5 -71.5 206.5 -71.5h119v530h-119q-134 0 -206.5 -71.5t-72.5 -193.5t72.5 -193.5z" />
    <glyph glyph-name="oe" unicode="&#x153;" horiz-adv-x="975" 
d="M817 454q51 -31 80.5 -86.5t30.5 -127.5q0 -17 -3 -31h-375q8 -69 52.5 -107.5t108.5 -38.5q81 0 145 59l48 -55q-42 -41 -91 -59t-108 -18q-68 0 -120 30t-81 84q-32 -53 -86 -83.5t-119 -30.5q-71 0 -128.5 32.5t-90 89t-32.5 126.5t32.5 126.5t90 88.5t128.5 32
q66 0 119.5 -30.5t85.5 -83.5q29 53 81 83.5t116 30.5q65 0 116 -31zM599 373.5q-40 -38.5 -48 -100.5h291q-8 63 -46 101t-96 38q-61 0 -101 -38.5zM215 385q-38 -22 -59.5 -60.5t-21.5 -86.5t21.5 -86.5t59.5 -60.5t84 -22t83.5 22t59.5 60.5t22 86.5t-22 86.5t-59.5 60.5
t-83.5 22t-84 -22z" />
    <glyph glyph-name="Racute" unicode="&#x154;" horiz-adv-x="674" 
d="M362 906h103l-128 -153h-82zM556 647.5q64 -52.5 64 -148.5q0 -89 -61.5 -142t-167.5 -57h-19l247 -300h-111l-240 299h-82v-299h-90v700h277q119 0 183 -52.5zM186 379h186q76 0 115.5 30.5t39.5 89.5q0 58 -40 88t-115 30h-186v-238z" />
    <glyph glyph-name="racute" unicode="&#x155;" horiz-adv-x="412" 
d="M271 699h103l-128 -153h-82zM387 471l-16 -83q-16 8 -38 12.5t-44 4.5q-54 0 -88 -38t-34 -102v-265h-84v476h82v-70q23 39 59.5 59.5t82.5 20.5q47 0 80 -15z" />
    <glyph glyph-name="Rcommaaccent" unicode="&#x156;" horiz-adv-x="674" 
d="M556 647.5q64 -52.5 64 -148.5q0 -89 -61 -142t-167 -57h-20l247 -300h-111l-240 299h-82v-299h-90v700h277q119 0 183 -52.5zM186 379h186q76 0 115.5 30.5t39.5 89.5q0 58 -40 88t-115 30h-186v-238zM348 -223h-72l21 180h89z" />
    <glyph glyph-name="rcommaaccent" unicode="&#x157;" horiz-adv-x="412" 
d="M387 471l-16 -83q-16 8 -38 12.5t-44 4.5q-54 0 -88 -38t-34 -102v-265h-84v476h82v-70q23 39 59.5 59.5t82.5 20.5q47 0 80 -15zM138 -223h-71l22 180h88z" />
    <glyph glyph-name="Rcaron" unicode="&#x158;" horiz-adv-x="674" 
d="M331 806l86 93h85l-119 -147h-105l-119 147h86zM556 647.5q64 -52.5 64 -148.5q0 -88 -60.5 -141t-167.5 -58h-20l247 -300h-111l-240 299h-82v-299h-90v700h277q119 0 183 -52.5zM186 379h186q76 0 115.5 30.5t39.5 89.5q0 58 -40 88t-115 30h-186v-238z" />
    <glyph glyph-name="rcaron" unicode="&#x159;" horiz-adv-x="412" 
d="M234 600l85 93h86l-118 -148h-106l-118 148h85zM387 471l-16 -83q-16 8 -38 12.5t-44 4.5q-54 0 -88 -38t-34 -102v-265h-84v476h82v-70q23 39 59.5 59.5t82.5 20.5q47 0 80 -15z" />
    <glyph glyph-name="Sacute" unicode="&#x15a;" horiz-adv-x="674" 
d="M387 906h103l-128 -153h-82zM347 625q-77 0 -125 -32t-48 -87q0 -46 40.5 -72t121.5 -37l62 -8q218 -28 218 -185q0 -69 -37.5 -117.5t-101 -72.5t-140.5 -24t-153 25t-127 65l48 72q41 -32 103 -54.5t129 -22.5q81 0 132.5 31.5t51.5 88.5q0 48 -40.5 73.5t-125.5 36.5
l-67 8q-99 12 -153.5 58t-54.5 129q0 65 35.5 112.5t96 72t134.5 24.5q141 0 257 -75l-45 -74q-95 65 -211 65z" />
    <glyph glyph-name="sacute" unicode="&#x15b;" horiz-adv-x="494" 
d="M294 699h103l-128 -153h-81zM337.5 400.5q-43.5 13.5 -86.5 13.5q-48 0 -77 -19t-29 -51q0 -27 24 -42t72 -21l54 -7q77 -10 118 -43t41 -90q0 -70 -57 -110.5t-154 -40.5q-54 0 -107.5 14.5t-93.5 45.5l35 63q33 -24 73 -37.5t94 -13.5q58 0 90.5 18.5t32.5 53.5
q0 28 -24 44t-74 22l-52 6q-158 20 -158 134q0 68 51.5 106.5t139.5 38.5q109 0 191 -50l-32 -66q-28 18 -71.5 31.5z" />
    <glyph glyph-name="Scircumflex" unicode="&#x15c;" horiz-adv-x="674" 
d="M356 845l-86 -92h-86l118 147h106l119 -147h-86zM347 625q-77 0 -125 -32t-48 -87q0 -46 40.5 -72t121.5 -37l62 -8q218 -28 218 -185q0 -69 -37.5 -117.5t-101 -72.5t-140.5 -24t-153 25t-127 65l48 72q41 -32 103 -54.5t129 -22.5q81 0 132.5 31.5t51.5 88.5
q0 48 -40.5 73.5t-125.5 36.5l-67 8q-99 12 -153.5 58t-54.5 129q0 65 35.5 112.5t96 72t134.5 24.5q141 0 257 -75l-45 -74q-95 65 -211 65z" />
    <glyph glyph-name="scircumflex" unicode="&#x15d;" horiz-adv-x="494" 
d="M257 639l-85 -93h-86l118 147h106l118 -147h-85zM337.5 400.5q-43.5 13.5 -86.5 13.5q-48 0 -77 -19t-29 -51q0 -27 24 -42t72 -21l54 -7q77 -10 118 -43t41 -90q0 -70 -57 -110.5t-154 -40.5q-54 0 -107.5 14.5t-93.5 45.5l35 63q33 -24 73 -37.5t94 -13.5
q58 0 90.5 18.5t32.5 53.5q0 28 -24 44t-74 22l-52 6q-158 20 -158 134q0 68 51.5 106.5t139.5 38.5q109 0 191 -50l-32 -66q-28 18 -71.5 31.5z" />
    <glyph glyph-name="Scedilla" unicode="&#x15e;" horiz-adv-x="674" 
d="M347 625q-77 0 -125 -32t-48 -87q0 -46 40.5 -72t121.5 -37l62 -8q218 -28 218 -185q0 -91 -62.5 -144.5t-163.5 -65.5l-48 -156h-89l51 154q-69 4 -135 28t-112 60l48 72q41 -32 103 -54.5t129 -22.5q81 0 132.5 31.5t51.5 88.5q0 48 -40.5 73.5t-125.5 36.5l-67 8
q-99 12 -153.5 58t-54.5 129q0 65 35.5 112.5t96 72t134.5 24.5q141 0 257 -75l-45 -74q-95 65 -211 65z" />
    <glyph glyph-name="scedilla" unicode="&#x15f;" horiz-adv-x="494" 
d="M337.5 400.5q-43.5 13.5 -86.5 13.5q-48 0 -77 -19t-29 -51q0 -27 24 -42t72 -21l54 -7q77 -10 118 -43t41 -90q0 -59 -41.5 -97t-113.5 -49l-49 -157h-85l51 154q-48 2 -93 16.5t-81 41.5l35 63q33 -24 73 -37.5t94 -13.5q58 0 90.5 18.5t32.5 53.5q0 28 -24 44t-74 22
l-52 6q-158 20 -158 134q0 68 51.5 106.5t139.5 38.5q109 0 191 -50l-32 -66q-28 18 -71.5 31.5z" />
    <glyph glyph-name="Scaron" unicode="&#x160;" horiz-adv-x="674" 
d="M356 806l85 93h86l-119 -147h-106l-118 147h86zM347 625q-77 0 -125 -32t-48 -87q0 -46 40.5 -72t121.5 -37l62 -8q218 -28 218 -185q0 -69 -37.5 -117.5t-101 -72.5t-140.5 -24t-153 25t-127 65l48 72q41 -32 103 -54.5t129 -22.5q81 0 132.5 31.5t51.5 88.5
q0 48 -40.5 73.5t-125.5 36.5l-67 8q-99 12 -153.5 58t-54.5 129q0 65 35.5 112.5t96 72t134.5 24.5q141 0 257 -75l-45 -74q-95 65 -211 65z" />
    <glyph glyph-name="scaron" unicode="&#x161;" horiz-adv-x="494" 
d="M257 600l86 93h85l-118 -148h-106l-118 148h86zM337.5 400.5q-43.5 13.5 -86.5 13.5q-48 0 -77 -19t-29 -51q0 -27 24 -42t72 -21l54 -7q77 -10 118 -43t41 -90q0 -70 -57 -110.5t-154 -40.5q-54 0 -107.5 14.5t-93.5 45.5l35 63q33 -24 73 -37.5t94 -13.5
q58 0 90.5 18.5t32.5 53.5q0 28 -24 44t-74 22l-52 6q-158 20 -158 134q0 68 51.5 106.5t139.5 38.5q109 0 191 -50l-32 -66q-28 18 -71.5 31.5z" />
    <glyph glyph-name="Tcaron" unicode="&#x164;" horiz-adv-x="607" 
d="M305 806l85 93h86l-119 -147h-105l-119 147h86zM348 615v-615h-90v615h-239v85h569v-85h-240z" />
    <glyph glyph-name="tcaron" unicode="&#x165;" horiz-adv-x="458" 
d="M275 727h85l-20 -202h-68zM212 400v-227q0 -52 25 -78t67 -26q27 0 53 9.5t47 25.5l35 -64q-62 -50 -145 -50q-80 0 -123 45t-43 133v232h-103v76h103v150h84v-150h202v-76h-202z" />
    <glyph glyph-name="Tbar" unicode="&#x166;" horiz-adv-x="607" 
d="M348 312v-312h-90v312h-154v83h154v220h-239v85h569v-85h-240v-220h155v-83h-155z" />
    <glyph glyph-name="tbar" unicode="&#x167;" horiz-adv-x="458" 
d="M212 400v-105h149v-70h-149v-52q0 -52 25 -78t67 -26q27 0 53 9.5t47 25.5l35 -64q-62 -50 -145 -50q-80 0 -123 45t-43 133v57h-98v70h98v105h-103v76h103v150h84v-150h202v-76h-202z" />
    <glyph glyph-name="Utilde" unicode="&#x168;" horiz-adv-x="752" 
d="M246 870q27 14 63 14q26 0 44 -6t40 -18q17 -8 27 -12t22 -4q18 0 33.5 9t32.5 28l48 -48q-24 -31 -51 -45.5t-63 -14.5q-25 0 -43 6t-39 17q-17 9 -27.5 13t-23.5 4q-17 0 -32.5 -8.5t-33.5 -27.5l-47 48q23 31 50 45zM628.5 119.5q-37.5 -64.5 -103 -97t-149.5 -32.5
t-149.5 32.5t-103 97t-37.5 156.5v424h90v-419q0 -101 55 -152.5t145 -51.5t144.5 51.5t54.5 152.5v419h91v-424q0 -92 -37.5 -156.5z" />
    <glyph glyph-name="utilde" unicode="&#x169;" horiz-adv-x="591" 
d="M169.5 663.5q26.5 14.5 62.5 14.5q26 0 44 -6t40 -18q3 -2 13 -6.5t19 -7t17 -2.5q35 0 66 36l48 -48q-24 -30 -51.5 -44.5t-62.5 -14.5q-25 0 -43 6t-39 17q-17 9 -27.5 13t-23.5 4q-18 0 -33 -9t-33 -28l-47 49q24 30 50.5 44.5zM484.5 84q-29.5 -47 -79 -70.5
t-109.5 -23.5q-61 0 -110.5 23.5t-78.5 70.5t-29 115v277h84v-269q0 -67 36.5 -102.5t97.5 -35.5q60 0 96.5 35.5t36.5 102.5v269h85v-277q0 -68 -29.5 -115z" />
    <glyph glyph-name="Umacron" unicode="&#x16a;" horiz-adv-x="752" 
d="M529 859v-67h-307v67h307zM628.5 119.5q-37.5 -64.5 -103 -97t-149.5 -32.5t-149.5 32.5t-103 97t-37.5 156.5v424h90v-419q0 -101 55 -152.5t145 -51.5t144.5 51.5t54.5 152.5v419h91v-424q0 -92 -37.5 -156.5z" />
    <glyph glyph-name="umacron" unicode="&#x16b;" horiz-adv-x="591" 
d="M449 653v-68h-306v68h306zM484.5 84q-29.5 -47 -79 -70.5t-109.5 -23.5q-61 0 -110.5 23.5t-78.5 70.5t-29 115v277h84v-269q0 -67 36.5 -102.5t97.5 -35.5q60 0 96.5 35.5t36.5 102.5v269h85v-277q0 -68 -29.5 -115z" />
    <glyph glyph-name="Ubreve" unicode="&#x16c;" horiz-adv-x="752" 
d="M376 819q80 0 107 94l66 -20q-19 -69 -64 -106t-109 -37q-65 0 -110 37t-63 106l65 20q27 -94 108 -94zM628.5 119.5q-37.5 -64.5 -103 -97t-149.5 -32.5t-149.5 32.5t-103 97t-37.5 156.5v424h90v-419q0 -101 55 -152.5t145 -51.5t144.5 51.5t54.5 152.5v419h91v-424
q0 -92 -37.5 -156.5z" />
    <glyph glyph-name="ubreve" unicode="&#x16d;" horiz-adv-x="591" 
d="M229 635.5q28 -23.5 67 -23.5q80 0 107 94l67 -20q-19 -70 -64 -106.5t-110 -36.5t-110 36.5t-64 106.5l66 20q13 -47 41 -70.5zM484.5 84q-29.5 -47 -79 -70.5t-109.5 -23.5q-61 0 -110.5 23.5t-78.5 70.5t-29 115v277h84v-269q0 -67 36.5 -102.5t97.5 -35.5
q60 0 96.5 35.5t36.5 102.5v269h85v-277q0 -68 -29.5 -115z" />
    <glyph glyph-name="Uring" unicode="&#x16e;" horiz-adv-x="752" 
d="M294 775.5q-34 33.5 -34 80.5q0 48 34 81.5t82 33.5t82 -33.5t34 -81.5q0 -47 -34.5 -80.5t-81.5 -33.5q-48 0 -82 33.5zM420.5 810.5q18.5 18.5 18.5 45.5t-18.5 45.5t-44.5 18.5t-45 -18.5t-19 -45.5t19 -45.5t45 -18.5t44.5 18.5zM628.5 119.5q-37.5 -64.5 -103 -97
t-149.5 -32.5t-149.5 32.5t-103 97t-37.5 156.5v424h90v-419q0 -101 55 -152.5t145 -51.5t144.5 51.5t54.5 152.5v419h91v-424q0 -92 -37.5 -156.5z" />
    <glyph glyph-name="uring" unicode="&#x16f;" horiz-adv-x="591" 
d="M213.5 569q-34.5 34 -34.5 81t34.5 81t82.5 34t82 -34t34 -81t-34 -81t-82 -34t-82.5 34zM340.5 604.5q18.5 18.5 18.5 45.5q0 26 -18.5 44.5t-44.5 18.5t-44.5 -18.5t-18.5 -44.5q0 -27 18.5 -45.5t44.5 -18.5t44.5 18.5zM484.5 84q-29.5 -47 -79 -70.5t-109.5 -23.5
q-61 0 -110.5 23.5t-78.5 70.5t-29 115v277h84v-269q0 -67 36.5 -102.5t97.5 -35.5q60 0 96.5 35.5t36.5 102.5v269h85v-277q0 -68 -29.5 -115z" />
    <glyph glyph-name="Uhungarumlaut" unicode="&#x170;" horiz-adv-x="752" 
d="M336 906h92l-112 -153h-83zM521 906h95l-122 -153h-84zM628.5 119.5q-37.5 -64.5 -103 -97t-149.5 -32.5t-149.5 32.5t-103 97t-37.5 156.5v424h90v-419q0 -101 55 -152.5t145 -51.5t144.5 51.5t54.5 152.5v419h91v-424q0 -92 -37.5 -156.5z" />
    <glyph glyph-name="uhungarumlaut" unicode="&#x171;" horiz-adv-x="591" 
d="M261 699h93l-112 -153h-83zM447 699h95l-122 -153h-84zM484.5 84q-29.5 -47 -79 -70.5t-109.5 -23.5q-61 0 -110.5 23.5t-78.5 70.5t-29 115v277h84v-269q0 -67 36.5 -102.5t97.5 -35.5q60 0 96.5 35.5t36.5 102.5v269h85v-277q0 -68 -29.5 -115z" />
    <glyph glyph-name="Uogonek" unicode="&#x172;" horiz-adv-x="752" 
d="M544 -195q-31 -12 -66 -12q-58 0 -94.5 28.5t-36.5 73.5q0 57 57 97q-11 -1 -31 -1q-86 0 -150.5 33.5t-100.5 98t-36 153.5v424h90v-419q0 -101 55 -152.5t145 -51.5t144.5 51.5t54.5 152.5v419h91v-424q0 -92 -37 -156t-104 -98q-51 -27 -75 -53t-24 -57
q0 -23 16.5 -36.5t43.5 -13.5q38 0 69 28l44 -51q-24 -22 -55 -34z" />
    <glyph glyph-name="uogonek" unicode="&#x173;" horiz-adv-x="591" 
d="M441 -195q-31 -12 -66 -12q-58 0 -94.5 28.5t-36.5 73.5q0 58 55 96q-63 -2 -113 22.5t-79 72t-29 113.5v277h84v-269q0 -67 36.5 -102.5t97.5 -35.5q60 0 96.5 35.5t36.5 102.5v269h85v-277q0 -63 -25.5 -108t-70.5 -70q-49 -28 -72 -53.5t-23 -55.5q0 -23 16 -36.5
t43 -13.5q38 0 69 28l44 -51q-23 -22 -54 -34z" />
    <glyph glyph-name="Wcircumflex" unicode="&#x174;" horiz-adv-x="1099" 
d="M549 845l-85 -92h-85l118 147h106l118 -147h-86zM737 0l-188 576l-187 -576h-110l-226 700h95l188 -597l191 597h101l191 -596l188 596h92l-226 -700h-109z" />
    <glyph glyph-name="wcircumflex" unicode="&#x175;" horiz-adv-x="864" 
d="M432 639l-85 -93h-86l118 147h106l118 -147h-85zM755 476h88l-177 -476h-97l-138 380l-136 -380h-97l-176 476h89l138 -385l138 385h91l138 -386z" />
    <glyph glyph-name="Ycircumflex" unicode="&#x176;" horiz-adv-x="650" 
d="M327 845l-86 -92h-86l118 147h106l119 -147h-86zM371 0h-90v292l-276 408h107l215 -325l214 325h104l-274 -409v-291z" />
    <glyph glyph-name="ycircumflex" unicode="&#x177;" horiz-adv-x="533" 
d="M270 639l-86 -93h-86l118 147h106l119 -147h-86zM50 -202l177 306l-217 372h95l169 -287l159 287h93l-383 -678h-93z" />
    <glyph glyph-name="Ydieresis" unicode="&#x178;" horiz-adv-x="650" 
d="M262.5 866q16.5 -17 16.5 -41q0 -23 -16.5 -39.5t-40.5 -16.5t-40 16.5t-16 39.5q0 24 16 41t40 17t40.5 -17zM470.5 866q16.5 -17 16.5 -41q0 -23 -16.5 -39.5t-39.5 -16.5q-24 0 -40.5 16.5t-16.5 39.5q0 24 16.5 41t40.5 17q23 0 39.5 -17zM371 0h-90v292l-276 408
h107l215 -325l214 325h104l-274 -409v-291z" />
    <glyph glyph-name="Zacute" unicode="&#x179;" horiz-adv-x="657" 
d="M362 906h103l-128 -153h-82zM177 84h423v-84h-543v71l421 545h-416v84h536v-70z" />
    <glyph glyph-name="zacute" unicode="&#x17a;" horiz-adv-x="528" 
d="M304 699h103l-128 -153h-81zM173 76h298v-76h-413v61l297 339h-287v76h398v-62z" />
    <glyph glyph-name="Zdotaccent" unicode="&#x17b;" horiz-adv-x="657" 
d="M364 870q17 -17 17 -42t-17 -42t-42 -17t-41.5 17t-16.5 42t16.5 42t41.5 17t42 -17zM177 84h423v-84h-543v71l421 545h-416v84h536v-70z" />
    <glyph glyph-name="zdotaccent" unicode="&#x17c;" horiz-adv-x="528" 
d="M307.5 681.5q16.5 -16.5 16.5 -40.5t-16.5 -40t-40.5 -16t-40.5 16t-16.5 40t16.5 40.5t40.5 16.5t40.5 -16.5zM173 76h298v-76h-413v61l297 339h-287v76h398v-62z" />
    <glyph glyph-name="Zcaron" unicode="&#x17d;" horiz-adv-x="657" 
d="M330 806l85 93h87l-119 -147h-106l-118 147h85zM177 84h423v-84h-543v71l421 545h-416v84h536v-70z" />
    <glyph glyph-name="zcaron" unicode="&#x17e;" horiz-adv-x="528" 
d="M267 600l86 93h85l-118 -148h-106l-119 148h87zM173 76h298v-76h-413v61l297 339h-287v76h398v-62z" />
    <glyph glyph-name="longs" unicode="&#x17f;" horiz-adv-x="327" 
d="M376 692l-33 -68q-45 27 -95 27q-85 0 -85 -102v-549h-84v549q0 84 40 132.5t122 48.5q73 0 135 -38z" />
    <glyph glyph-name="uni018F" unicode="&#x18f;" horiz-adv-x="804" 
d="M572.5 663.5q81.5 -46.5 128 -128.5t46.5 -185t-45.5 -185t-124.5 -128.5t-176 -46.5q-98 0 -176.5 45t-123 126t-44.5 184l1 44h594q-8 69 -44 122t-92 83t-122 30q-132 0 -222 -105l-63 62q114 129 283 129q99 0 180.5 -46.5zM519 105.5q54 29.5 89 82.5t43 121h-496
q4 -68 36.5 -121t87 -82.5t122.5 -29.5q64 0 118 29.5z" />
    <glyph glyph-name="florin" unicode="&#x192;" horiz-adv-x="700" 
d="M389 326l-16 -168q-8 -80 -45 -124t-106 -44q-66 0 -122 36l32 65q17 -10 39 -17t44 -7q35 0 53 24t23 70l16 165h-129v74h136l15 143q16 167 150 167q67 0 122 -35l-31 -66q-38 24 -83 24q-35 0 -53 -23.5t-24 -69.5l-14 -140h145v-74h-152z" />
    <glyph glyph-name="uni01B5" unicode="&#x1b5;" horiz-adv-x="657" 
d="M350 309l-173 -225h423v-84h-543v71l188 241h-122v81h183l172 223h-416v84h536v-70l-186 -239h122v-82h-184z" />
    <glyph glyph-name="uni01B6" unicode="&#x1b6;" horiz-adv-x="528" 
d="M289 211l-116 -135h298v-76h-413v61l135 152h-92v61h143l111 126h-287v76h398v-62l-125 -143h90v-60h-142z" />
    <glyph glyph-name="uni01CD" unicode="&#x1cd;" horiz-adv-x="715" 
d="M358 806l86 93h85l-118 -147h-106l-118 147h85zM603 0l-76 189h-340l-76 -189h-94l285 700h111l286 -700h-96zM493 274l-136 338l-137 -338h273z" />
    <glyph glyph-name="uni01CE" unicode="&#x1ce;" horiz-adv-x="619" 
d="M305 600l86 93h86l-119 -148h-105l-119 148h86zM454 0v77q-28 -40 -71.5 -63.5t-99.5 -23.5q-65 0 -119 32.5t-85 89t-31 126.5t31 126.5t85 88.5t119 32q57 0 100 -22.5t71 -63.5v77h83v-476h-83zM212 384.5q-37 -22.5 -57.5 -61t-20.5 -85.5t20.5 -85.5t57.5 -61
t84 -22.5t83.5 22t57 60.5t20.5 86.5t-20.5 86.5t-57 60.5t-83.5 22t-84 -22.5z" />
    <glyph glyph-name="uni01CF" unicode="&#x1cf;" horiz-adv-x="281" 
d="M141 806l85 93h86l-118 -147h-106l-119 147h86zM96 0v700h90v-700h-90z" />
    <glyph glyph-name="uni01D0" unicode="&#x1d0;" horiz-adv-x="250" 
d="M125 600l86 93h85l-118 -148h-106l-118 148h86zM83 0v476h84v-476h-84z" />
    <glyph glyph-name="uni01D1" unicode="&#x1d1;" horiz-adv-x="837" 
d="M419 806l86 93h85l-118 -147h-106l-119 147h87zM604.5 664q82.5 -46 129.5 -128.5t47 -185.5t-47 -185.5t-129.5 -128.5t-185.5 -46t-185.5 46t-129.5 128t-47 186t47 186t129.5 128t185.5 46t185.5 -46zM282 588.5q-61 -34.5 -96 -96.5t-35 -142q0 -79 35 -141.5t96 -97
t137 -34.5q75 0 136 34.5t96 96.5t35 142t-35 142t-95.5 96.5t-136.5 34.5t-137 -34.5z" />
    <glyph glyph-name="uni01D2" unicode="&#x1d2;" horiz-adv-x="598" 
d="M299 600l86 93h85l-118 -148h-105l-119 148h85zM427 453q57 -32 90 -88.5t33 -126.5t-33 -126.5t-90.5 -89t-127.5 -32.5q-71 0 -128.5 32.5t-90 89t-32.5 126.5t32.5 126.5t90 88.5t128.5 32t128 -32zM215 385q-38 -22 -59.5 -60.5t-21.5 -86.5t21.5 -86.5t59.5 -60.5
t84 -22t84 22t59.5 60.5t21.5 86.5t-21.5 86.5t-59.5 60.5t-84 22t-84 -22z" />
    <glyph glyph-name="uni01D3" unicode="&#x1d3;" horiz-adv-x="752" 
d="M376 806l85 93h86l-118 -147h-106l-118 147h85zM628.5 119.5q-37.5 -64.5 -103 -97t-149.5 -32.5t-149.5 32.5t-103 97t-37.5 156.5v424h90v-419q0 -101 55 -152.5t145 -51.5t144.5 51.5t54.5 152.5v419h91v-424q0 -92 -37.5 -156.5z" />
    <glyph glyph-name="uni01D4" unicode="&#x1d4;" horiz-adv-x="591" 
d="M296 600l86 93h85l-119 -148h-105l-118 148h85zM484.5 84q-29.5 -47 -79 -70.5t-109.5 -23.5q-61 0 -110.5 23.5t-78.5 70.5t-29 115v277h84v-269q0 -67 36.5 -102.5t97.5 -35.5q60 0 96.5 35.5t36.5 102.5v269h85v-277q0 -68 -29.5 -115z" />
    <glyph glyph-name="uni01D5" unicode="&#x1d5;" horiz-adv-x="752" 
d="M529 1029v-68h-307v68h307zM311.5 866q16.5 -17 16.5 -41q0 -23 -16.5 -39.5t-40.5 -16.5t-40 16.5t-16 39.5q0 24 16 41t40 17t40.5 -17zM520.5 866q16.5 -17 16.5 -41q0 -23 -16.5 -39.5t-40.5 -16.5t-40 16.5t-16 39.5q0 24 16 41t40 17t40.5 -17zM628.5 119.5
q-37.5 -64.5 -103 -97t-149.5 -32.5t-149.5 32.5t-103 97t-37.5 156.5v424h90v-419q0 -101 55 -152.5t145 -51.5t144.5 51.5t54.5 152.5v419h91v-424q0 -92 -37.5 -156.5z" />
    <glyph glyph-name="uni01D6" unicode="&#x1d6;" horiz-adv-x="591" 
d="M449 822v-68h-307v68h307zM231.5 659.5q16.5 -16.5 16.5 -40.5t-16.5 -40t-40.5 -16t-40 16t-16 40t16 40.5t40 16.5t40.5 -16.5zM440.5 659.5q16.5 -16.5 16.5 -40.5t-16.5 -40t-40.5 -16t-40.5 16t-16.5 40t16.5 40.5t40.5 16.5t40.5 -16.5zM484.5 84
q-29.5 -47 -79 -70.5t-109.5 -23.5q-61 0 -110.5 23.5t-78.5 70.5t-29 115v277h84v-269q0 -67 36.5 -102.5t97.5 -35.5q60 0 96.5 35.5t36.5 102.5v269h85v-277q0 -68 -29.5 -115z" />
    <glyph glyph-name="uni01D7" unicode="&#x1d7;" horiz-adv-x="752" 
d="M407 1106h103l-128 -153h-81zM311.5 866q16.5 -17 16.5 -41q0 -23 -16.5 -39.5t-40.5 -16.5t-40 16.5t-16 39.5q0 24 16 41t40 17t40.5 -17zM520.5 866q16.5 -17 16.5 -41q0 -23 -16.5 -39.5t-40.5 -16.5t-40 16.5t-16 39.5q0 24 16 41t40 17t40.5 -17zM628.5 119.5
q-37.5 -64.5 -103 -97t-149.5 -32.5t-149.5 32.5t-103 97t-37.5 156.5v424h90v-419q0 -101 55 -152.5t145 -51.5t144.5 51.5t54.5 152.5v419h91v-424q0 -92 -37.5 -156.5z" />
    <glyph glyph-name="uni01D8" unicode="&#x1d8;" horiz-adv-x="591" 
d="M327 900h103l-128 -153h-82zM231.5 659.5q16.5 -16.5 16.5 -40.5t-16.5 -40t-40.5 -16t-40 16t-16 40t16 40.5t40 16.5t40.5 -16.5zM440.5 659.5q16.5 -16.5 16.5 -40.5t-16.5 -40t-40.5 -16t-40.5 16t-16.5 40t16.5 40.5t40.5 16.5t40.5 -16.5zM484.5 84
q-29.5 -47 -79 -70.5t-109.5 -23.5q-61 0 -110.5 23.5t-78.5 70.5t-29 115v277h84v-269q0 -67 36.5 -102.5t97.5 -35.5q60 0 96.5 35.5t36.5 102.5v269h85v-277q0 -68 -29.5 -115z" />
    <glyph glyph-name="uni01D9" unicode="&#x1d9;" horiz-adv-x="752" 
d="M376 1007l85 93h86l-118 -147h-106l-118 147h85zM311.5 866q16.5 -17 16.5 -41q0 -23 -16.5 -39.5t-40.5 -16.5t-40 16.5t-16 39.5q0 24 16 41t40 17t40.5 -17zM520.5 866q16.5 -17 16.5 -41q0 -23 -16.5 -39.5t-40.5 -16.5t-40 16.5t-16 39.5q0 24 16 41t40 17t40.5 -17
zM628.5 119.5q-37.5 -64.5 -103 -97t-149.5 -32.5t-149.5 32.5t-103 97t-37.5 156.5v424h90v-419q0 -101 55 -152.5t145 -51.5t144.5 51.5t54.5 152.5v419h91v-424q0 -92 -37.5 -156.5z" />
    <glyph glyph-name="uni01DA" unicode="&#x1da;" horiz-adv-x="591" 
d="M296 800l85 93h86l-119 -147h-105l-119 147h86zM231.5 659.5q16.5 -16.5 16.5 -40.5t-16.5 -40t-40.5 -16t-40 16t-16 40t16 40.5t40 16.5t40.5 -16.5zM440.5 659.5q16.5 -16.5 16.5 -40.5t-16.5 -40t-40.5 -16t-40.5 16t-16.5 40t16.5 40.5t40.5 16.5t40.5 -16.5z
M484.5 84q-29.5 -47 -79 -70.5t-109.5 -23.5q-61 0 -110.5 23.5t-78.5 70.5t-29 115v277h84v-269q0 -67 36.5 -102.5t97.5 -35.5q60 0 96.5 35.5t36.5 102.5v269h85v-277q0 -68 -29.5 -115z" />
    <glyph glyph-name="uni01DB" unicode="&#x1db;" horiz-adv-x="752" 
d="M339 1106l107 -153h-82l-128 153h103zM311.5 866q16.5 -17 16.5 -41q0 -23 -16.5 -39.5t-40.5 -16.5t-40 16.5t-16 39.5q0 24 16 41t40 17t40.5 -17zM520.5 866q16.5 -17 16.5 -41q0 -23 -16.5 -39.5t-40.5 -16.5t-40 16.5t-16 39.5q0 24 16 41t40 17t40.5 -17z
M628.5 119.5q-37.5 -64.5 -103 -97t-149.5 -32.5t-149.5 32.5t-103 97t-37.5 156.5v424h90v-419q0 -101 55 -152.5t145 -51.5t144.5 51.5t54.5 152.5v419h91v-424q0 -92 -37.5 -156.5z" />
    <glyph glyph-name="uni01DC" unicode="&#x1dc;" horiz-adv-x="591" 
d="M259 900l106 -153h-81l-128 153h103zM231.5 659.5q16.5 -16.5 16.5 -40.5t-16.5 -40t-40.5 -16t-40 16t-16 40t16 40.5t40 16.5t40.5 -16.5zM440.5 659.5q16.5 -16.5 16.5 -40.5t-16.5 -40t-40.5 -16t-40.5 16t-16.5 40t16.5 40.5t40.5 16.5t40.5 -16.5zM484.5 84
q-29.5 -47 -79 -70.5t-109.5 -23.5q-61 0 -110.5 23.5t-78.5 70.5t-29 115v277h84v-269q0 -67 36.5 -102.5t97.5 -35.5q60 0 96.5 35.5t36.5 102.5v269h85v-277q0 -68 -29.5 -115z" />
    <glyph glyph-name="uni01E2" unicode="&#x1e2;" horiz-adv-x="1140" 
d="M916 859v-67h-307v67h307zM566 0v177h-312l-132 -177h-109l524 700h522v-83h-402v-223h389v-83h-389v-227h406v-84h-497zM566 597l-251 -335h251v335z" />
    <glyph glyph-name="uni01E3" unicode="&#x1e3;" horiz-adv-x="897" 
d="M600 653v-68h-308v68h308zM740 454q51 -31 80 -86.5t29 -127.5q0 -13 -2 -31h-375q8 -69 52 -107.5t108 -38.5q82 0 146 59l47 -55q-78 -77 -198 -77q-61 0 -111 24t-83 67q-35 -41 -85 -66t-115 -25q-86 0 -135.5 39.5t-49.5 104.5q0 64 52 101.5t146 37.5h140
q-2 70 -34.5 104t-100.5 34q-74 0 -140 -48l-35 64q78 58 186 58q66 0 111 -24.5t65 -74.5q29 47 78 73t108 26q65 0 116 -31zM521 373.5q-40 -37.5 -49 -100.5h291q-7 63 -45.5 100.5t-95.5 37.5q-61 0 -101 -37.5zM332.5 83q41.5 21 69.5 57q-13 35 -16 70h-129
q-62 0 -91 -20t-29 -54q0 -33 28.5 -53.5t80.5 -20.5q45 0 86.5 21z" />
    <glyph glyph-name="Gcaron" unicode="&#x1e6;" horiz-adv-x="812" 
d="M408 806l86 93h85l-118 -147h-106l-118 147h86zM570.5 680q69.5 -30 118.5 -85l-66 -64q-37 44 -90 68.5t-115 24.5q-76 0 -136.5 -34.5t-95.5 -97t-35 -142.5q0 -81 35 -143t95.5 -96.5t133.5 -34.5q107 0 171 59t73 162h-215v79h310q1 -9 1 -24q0 -104 -42.5 -186.5
t-119.5 -129t-177 -46.5q-96 0 -178 44t-131.5 126t-49.5 190q0 104 47 186t130 128t186 46q81 0 150.5 -30z" />
    <glyph glyph-name="gcaron" unicode="&#x1e7;" horiz-adv-x="614" 
d="M299 600l85 93h86l-118 -148h-106l-118 148h85zM378.5 462q43.5 -23 70.5 -64v78h83v-441q0 -77 -32 -131.5t-89 -82.5t-131 -28q-58 0 -112.5 17t-90.5 47l35 65q73 -54 166 -54q75 0 123 42.5t48 121.5v55q-28 -41 -71 -64.5t-100 -23.5q-63 0 -115.5 31t-83.5 86.5
t-31 125.5t30.5 125.5t83.5 86.5t116 31q57 0 100.5 -23zM211.5 386q-36.5 -22 -56.5 -60t-20 -84t20 -83.5t56.5 -59t82.5 -21.5t82 21.5t56.5 59t20.5 83.5q0 47 -20.5 84.5t-56.5 59.5t-82 22t-82.5 -22z" />
    <glyph glyph-name="Aringacute" unicode="&#x1fa;" horiz-adv-x="715" 
d="M388 1066h103l-128 -153h-82zM292 675q-24 15 -38 40t-14 54q0 47 34.5 80.5t82.5 33.5q47 0 81 -33.5t34 -80.5q0 -29 -13 -53t-36 -39l276 -677h-96l-76 189h-340l-76 -189h-94zM401.5 723.5q18.5 18.5 18.5 45.5q0 26 -18.5 44.5t-44.5 18.5t-44.5 -18.5t-18.5 -44.5
q0 -27 18.5 -45.5t44.5 -18.5t44.5 18.5zM493 274l-136 338l-137 -338h273z" />
    <glyph glyph-name="aringacute" unicode="&#x1fb;" horiz-adv-x="619" 
d="M329 929h103l-128 -152h-81zM215 553q-34 34 -34 82q0 47 34 80.5t82 33.5t82.5 -33.5t34.5 -80.5q0 -48 -34.5 -82t-82.5 -34t-82 34zM341.5 589q18.5 19 18.5 46q0 26 -18.5 44.5t-44.5 18.5t-44.5 -18.5t-18.5 -44.5q0 -27 18.5 -46t44.5 -19t44.5 19zM454 0v77
q-28 -40 -71.5 -63.5t-99.5 -23.5q-65 0 -119 32.5t-85 89t-31 126.5t31 126.5t85 88.5t119 32q57 0 100 -22.5t71 -63.5v77h83v-476h-83zM212 384.5q-37 -22.5 -57.5 -61t-20.5 -85.5t20.5 -85.5t57.5 -61t84 -22.5t83.5 22t57 60.5t20.5 86.5t-20.5 86.5t-57 60.5
t-83.5 22t-84 -22.5z" />
    <glyph glyph-name="AEacute" unicode="&#x1fc;" horiz-adv-x="1140" 
d="M793 906h104l-128 -153h-82zM566 0v177h-312l-132 -177h-109l524 700h522v-83h-402v-223h389v-83h-389v-227h406v-84h-497zM566 597l-251 -335h251v335z" />
    <glyph glyph-name="aeacute" unicode="&#x1fd;" horiz-adv-x="897" 
d="M483 699h103l-128 -153h-81zM740 454q51 -31 80 -86.5t29 -127.5q0 -13 -2 -31h-375q8 -69 52 -107.5t108 -38.5q82 0 146 59l47 -55q-78 -77 -198 -77q-61 0 -111 24t-83 67q-35 -41 -85 -66t-115 -25q-86 0 -135.5 39.5t-49.5 104.5q0 64 52 101.5t146 37.5h140
q-2 70 -34.5 104t-100.5 34q-74 0 -140 -48l-35 64q78 58 186 58q66 0 111 -24.5t65 -74.5q29 47 78 73t108 26q65 0 116 -31zM521 373.5q-40 -37.5 -49 -100.5h291q-7 63 -45.5 100.5t-95.5 37.5q-61 0 -101 -37.5zM332.5 83q41.5 21 69.5 57q-13 35 -16 70h-129
q-62 0 -91 -20t-29 -54q0 -33 28.5 -53.5t80.5 -20.5q45 0 86.5 21z" />
    <glyph glyph-name="Oslashacute" unicode="&#x1fe;" horiz-adv-x="837" 
d="M451 906h103l-128 -153h-82zM542 690.5q58 -19.5 105 -55.5l75 75l57 -57l-74 -74q76 -97 76 -229q0 -103 -47 -185.5t-129.5 -128.5t-185.5 -46q-65 0 -123 19.5t-105 55.5l-74 -74l-57 56l73 74q-76 97 -76 229q0 104 47 186t129.5 128t185.5 46q65 0 123 -19.5z
M282 588.5q-61 -34.5 -96 -96.5t-35 -142q0 -94 49 -162l382 382q-69 53 -163 53q-76 0 -137 -34.5zM637 512l-382 -382q70 -53 164 -53q75 0 136 34.5t96 96.5t35 142q0 92 -49 162z" />
    <glyph glyph-name="oslashacute" unicode="&#x1ff;" horiz-adv-x="598" 
d="M336 699h103l-128 -153h-82zM450 438l55 55l50 -49l-55 -54q50 -68 50 -152q0 -70 -33 -126.5t-90.5 -89t-127.5 -32.5q-84 0 -151 48l-54 -56l-50 49l54 55q-24 31 -37 70t-13 82q0 70 32.5 126.5t90 88.5t128.5 32q87 0 151 -47zM214.5 386q-37.5 -22 -59.5 -60.5
t-22 -87.5q0 -52 27 -92l233 233q-42 29 -94 29q-47 0 -84.5 -22zM439 331l-234 -234q44 -29 94 -29q47 0 85 22t59.5 61t21.5 87q0 51 -26 93z" />
    <glyph glyph-name="Scommaaccent" unicode="&#x218;" horiz-adv-x="674" 
d="M347 625q-77 0 -125 -32t-48 -87q0 -46 40.5 -72t121.5 -37l62 -8q218 -28 218 -185q0 -69 -37.5 -117.5t-101 -72.5t-140.5 -24t-153 25t-127 65l48 72q41 -32 103 -54.5t129 -22.5q81 0 132.5 31.5t51.5 88.5q0 48 -40.5 73.5t-125.5 36.5l-67 8q-99 12 -153.5 58
t-54.5 129q0 65 35.5 112.5t96 72t134.5 24.5q141 0 257 -75l-45 -74q-95 65 -211 65zM366 -223h-72l22 180h88z" />
    <glyph glyph-name="scommaaccent" unicode="&#x219;" horiz-adv-x="494" 
d="M337.5 400.5q-43.5 13.5 -86.5 13.5q-48 0 -77 -19t-29 -51q0 -27 24 -42t72 -21l54 -7q77 -10 118 -43t41 -90q0 -70 -57 -110.5t-154 -40.5q-54 0 -107.5 14.5t-93.5 45.5l35 63q33 -24 73 -37.5t94 -13.5q58 0 90.5 18.5t32.5 53.5q0 28 -24 44t-74 22l-52 6
q-158 20 -158 134q0 68 51.5 106.5t139.5 38.5q109 0 191 -50l-32 -66q-28 18 -71.5 31.5zM266 -223h-73l22 180h89z" />
    <glyph glyph-name="uni021A" unicode="&#x21a;" horiz-adv-x="607" 
d="M348 615v-615h-2l-51 -162h-88l54 162h-3v615h-239v85h569v-85h-240z" />
    <glyph glyph-name="uni0232" unicode="&#x232;" horiz-adv-x="650" 
d="M480 859v-67h-307v67h307zM371 0h-90v292l-276 408h107l215 -325l214 325h104l-274 -409v-291z" />
    <glyph glyph-name="uni0233" unicode="&#x233;" horiz-adv-x="533" 
d="M423 653v-68h-307v68h307zM50 -202l177 306l-217 372h95l169 -287l159 287h93l-383 -678h-93z" />
    <glyph glyph-name="uni0237" unicode="&#x237;" horiz-adv-x="251" 
d="M136 -172.5q-33 -35.5 -89 -35.5q-18 0 -37 4t-32 11l16 74q22 -10 43 -10q48 0 48 60v545h84v-549q0 -64 -33 -99.5z" />
    <glyph glyph-name="uni0259" unicode="&#x259;" horiz-adv-x="560" 
d="M158 21.5q-51 31.5 -80.5 87.5t-29.5 127q0 23 2 31h375q-7 69 -51.5 107.5t-109.5 38.5q-83 0 -146 -60l-46 57q76 75 198 75q70 0 124.5 -31t85.5 -87t31 -128t-30.5 -128.5t-84.5 -88.5t-122 -32q-65 0 -116 31.5zM376 102q40 38 48 101h-291q8 -63 46.5 -101
t95.5 -38q61 0 101 38z" />
    <glyph glyph-name="uni02BB" unicode="&#x2bb;" horiz-adv-x="253" 
d="M120 720h72l-31 -262h-97z" />
    <glyph glyph-name="uni02BC" unicode="&#x2bc;" horiz-adv-x="253" 
d="M133 458h-72l32 262h96z" />
    <glyph glyph-name="uni02BE" unicode="&#x2be;" horiz-adv-x="269" 
d="M138.5 473q29.5 31 29.5 74q0 44 -29.5 75t-71.5 31v73q49 0 90 -24t65 -65t24 -90t-24 -90t-65 -65t-90 -24v74q42 0 71.5 31z" />
    <glyph glyph-name="uni02BF" unicode="&#x2bf;" horiz-adv-x="269" 
d="M130.5 621.5q-29.5 -30.5 -29.5 -74.5t29.5 -74.5t71.5 -30.5v-74q-49 0 -90 24t-65 65t-24 90t24 90t65 65.5t90 24.5v-75q-42 0 -71.5 -30.5z" />
    <glyph glyph-name="circumflex" unicode="&#x2c6;" horiz-adv-x="483" 
d="M242 639l-86 -93h-85l118 147h106l118 -147h-86z" />
    <glyph glyph-name="caron" unicode="&#x2c7;" horiz-adv-x="483" 
d="M242 600l85 93h86l-118 -148h-106l-118 148h85z" />
    <glyph glyph-name="breve" unicode="&#x2d8;" horiz-adv-x="483" 
d="M242 612q80 0 107 94l66 -20q-19 -69 -64 -106t-109 -37q-65 0 -110 37t-64 106l67 20q25 -94 107 -94z" />
    <glyph glyph-name="dotaccent" unicode="&#x2d9;" horiz-adv-x="278" 
d="M179.5 681.5q16.5 -16.5 16.5 -40.5t-16.5 -40t-40.5 -16q-23 0 -39.5 16t-16.5 40t16.5 40.5t39.5 16.5q24 0 40.5 -16.5z" />
    <glyph glyph-name="ring" unicode="&#x2da;" horiz-adv-x="470" 
d="M153 569q-34 34 -34 81t34 81t82 34t82 -34t34 -81t-34 -81t-82 -34t-82 34zM279.5 604.5q18.5 18.5 18.5 45.5q0 26 -18.5 44.5t-44.5 18.5t-44.5 -18.5t-18.5 -44.5q0 -27 18.5 -45.5t44.5 -18.5t44.5 18.5z" />
    <glyph glyph-name="ogonek" unicode="&#x2db;" horiz-adv-x="544" 
d="M335 -207q-57 0 -93 29.5t-36 78.5t37 83t108 64l44 -38q-59 -26 -85.5 -48t-26.5 -51q0 -22 16.5 -35.5t43.5 -13.5q38 0 69 28l44 -51q-49 -46 -121 -46z" />
    <glyph glyph-name="tilde" unicode="&#x2dc;" horiz-adv-x="483" 
d="M113 663.5q27 14.5 63 14.5q25 0 43 -6t40 -18q3 -2 13 -6.5t19 -7t17 -2.5q18 0 33.5 8.5t32.5 27.5l48 -48q-23 -30 -50.5 -44.5t-63.5 -14.5q-25 0 -43 6t-39 17q-17 9 -27 13t-23 4q-18 0 -34 -9t-32 -28l-47 49q23 30 50 44.5z" />
    <glyph glyph-name="hungarumlaut" unicode="&#x2dd;" horiz-adv-x="483" 
d="M145 699h104l-128 -153h-82zM341 699h103l-127 -153h-83z" />
    <glyph glyph-name="gravecomb" unicode="&#x300;" horiz-adv-x="0" 
d="M-342 699l107 -153h-82l-128 153h103z" />
    <glyph glyph-name="acutecomb" unicode="&#x301;" horiz-adv-x="0" 
d="M-263 699h103l-128 -153h-82z" />
    <glyph glyph-name="uni0302" unicode="&#x302;" horiz-adv-x="0" 
d="M-300 639l-86 -93h-85l118 147h105l119 -147h-85z" />
    <glyph glyph-name="tildecomb" unicode="&#x303;" horiz-adv-x="0" 
d="M-426.5 663.5q26.5 14.5 62.5 14.5q26 0 44 -6t40 -18q3 -2 13 -6.5t19 -7t17 -2.5q34 0 66 36l48 -48q-24 -30 -51.5 -44.5t-62.5 -14.5q-25 0 -43 6t-39 17q-17 9 -27.5 13t-23.5 4q-18 0 -33 -9t-33 -28l-47 49q24 30 50.5 44.5z" />
    <glyph glyph-name="uni0304" unicode="&#x304;" horiz-adv-x="0" 
d="M-147 653v-68h-306v68h306z" />
    <glyph glyph-name="uni0306" unicode="&#x306;" horiz-adv-x="0" 
d="M-367 635.5q28 -23.5 67 -23.5q80 0 107 94l67 -20q-19 -70 -64 -106.5t-110 -36.5t-110 36.5t-64 106.5l66 20q13 -47 41 -70.5z" />
    <glyph glyph-name="uni0307" unicode="&#x307;" horiz-adv-x="0" 
d="M-260 681.5q16 -16.5 16 -40.5t-16 -40t-40 -16t-40.5 16t-16.5 40t16.5 40.5t40.5 16.5t40 -16.5z" />
    <glyph glyph-name="uni0308" unicode="&#x308;" horiz-adv-x="0" 
d="M-364.5 659.5q16.5 -16.5 16.5 -40.5t-16.5 -40t-40.5 -16t-40 16t-16 40t16 40.5t40 16.5t40.5 -16.5zM-155.5 659.5q16.5 -16.5 16.5 -40.5t-16.5 -40t-40.5 -16t-40.5 16t-16.5 40t16.5 40.5t40.5 16.5t40.5 -16.5z" />
    <glyph glyph-name="uni030A" unicode="&#x30a;" horiz-adv-x="0" 
d="M-382.5 569q-34.5 34 -34.5 81t34.5 81t82.5 34t82 -34t34 -81t-34 -81t-82 -34t-82.5 34zM-255.5 604.5q18.5 18.5 18.5 45.5q0 26 -18.5 44.5t-44.5 18.5t-44.5 -18.5t-18.5 -44.5q0 -27 18.5 -45.5t44.5 -18.5t44.5 18.5z" />
    <glyph glyph-name="uni030B" unicode="&#x30b;" horiz-adv-x="0" 
d="M-335 699h93l-112 -153h-83zM-149 699h95l-122 -153h-84z" />
    <glyph glyph-name="uni030C" unicode="&#x30c;" horiz-adv-x="0" 
d="M-300 600l86 93h85l-119 -148h-105l-118 148h85z" />
    <glyph glyph-name="uni0312" unicode="&#x312;" horiz-adv-x="0" 
d="M-310 725h72l-22 -179h-88z" />
    <glyph glyph-name="dotbelowcomb" unicode="&#x323;" horiz-adv-x="0" 
d="M-259.5 -92.5q16.5 -16.5 16.5 -40.5t-16.5 -40t-40.5 -16t-40 16t-16 40t16 40.5t40 16.5t40.5 -16.5z" />
    <glyph glyph-name="uni0326" unicode="&#x326;" horiz-adv-x="0" 
d="M-287 -223h-71l22 180h88z" />
    <glyph glyph-name="uni0327" unicode="&#x327;" horiz-adv-x="0" 
d="M-367 -162l54 165h82l-52 -165h-84z" />
    <glyph glyph-name="uni0328" unicode="&#x328;" horiz-adv-x="0" 
d="M-294 -207q-58 0 -95 28.5t-37 73.5q0 51 40.5 84.5t122.5 64.5l16 -21q-52 -29 -75.5 -54.5t-23.5 -56.5q0 -23 16 -36.5t43 -13.5q39 0 69 28l45 -51q-51 -46 -121 -46z" />
    <glyph glyph-name="uni032E" unicode="&#x32e;" horiz-adv-x="0" 
d="M-300 -143q80 0 108 94l66 -19q-19 -70 -64 -106.5t-110 -36.5t-109.5 36.5t-63.5 106.5l66 19q27 -94 107 -94z" />
    <glyph glyph-name="uni0331" unicode="&#x331;" horiz-adv-x="0" 
d="M-146 -97v-68h-307v68h307z" />
    <glyph glyph-name="uni0335" unicode="&#x335;" horiz-adv-x="0" 
d="M-481 227v73h361v-73h-361z" />
    <glyph glyph-name="uni0336" unicode="&#x336;" horiz-adv-x="0" 
d="M-676 227v73h752v-73h-752z" />
    <glyph glyph-name="uni0394" unicode="&#x394;" horiz-adv-x="704" 
d="M666 0h-628v71l259 630h110l259 -630v-71zM566 85l-214 526l-214 -526h428z" />
    <glyph glyph-name="uni03A9" unicode="&#x3a9;" horiz-adv-x="856" 
d="M103.5 196.5q-37.5 69.5 -37.5 156.5q0 102 47 183.5t130 127.5t186 46t185.5 -46t129 -127t46.5 -184q0 -87 -37 -156.5t-103 -112.5h168v-84h-305v73q83 26 133 98t50 172q0 82 -35 146t-95.5 99t-136.5 35t-137 -35t-96 -99t-35 -146q0 -100 50 -172t132 -98v-73h-305
v84h168q-65 43 -102.5 112.5z" />
    <glyph glyph-name="uni03BC" unicode="&#x3bc;" horiz-adv-x="596" 
d="M78 476h84v-269q0 -65 34.5 -101t96.5 -36q58 0 97 38t39 101v267h85v-476h-83v73q-26 -42 -68 -62.5t-91 -20.5q-67 0 -112 37v-227h-82v676z" />
    <glyph glyph-name="pi" unicode="&#x3c0;" horiz-adv-x="596" 
d="M435 0v400h-268v-400h-84v476h436v-476h-84z" />
    <glyph glyph-name="uni10D0" unicode="&#x10d0;" horiz-adv-x="540" 
d="M155.5 14.5q-51.5 24.5 -82 70.5t-30.5 107q0 42 16 75l77 -17q-9 -27 -9 -54q0 -61 40 -95t100 -34q62 0 101 33.5t39 93.5q0 44 -21.5 71t-64.5 58q-32 25 -50.5 43t-31.5 45t-13 65h84q0 -29 17.5 -49.5t53.5 -48.5q35 -27 57 -49t38 -56.5t16 -82.5q0 -58 -30.5 -104
t-82 -71t-112.5 -25q-60 0 -111.5 24.5z" />
    <glyph glyph-name="uni10D1" unicode="&#x10d1;" horiz-adv-x="598" 
d="M170.5 22.5q-57.5 32.5 -90 89t-32.5 126.5q0 65 28.5 118.5t79 87t113.5 40.5v57q0 28 -10 44t-31 35q-24 22 -36 42t-12 58h88q0 -21 9 -34.5t28 -30.5q25 -21 38.5 -43.5t13.5 -64.5v-68q86 -18 139.5 -84t53.5 -157q0 -70 -33 -126.5t-90.5 -89t-127.5 -32.5
q-71 0 -128.5 32.5zM383 91q38 22 59.5 60.5t21.5 86.5t-21.5 86.5t-59.5 60.5t-84 22t-84 -22t-59.5 -60.5t-21.5 -86.5t21.5 -86.5t59.5 -60.5t84 -22t84 22z" />
    <glyph glyph-name="uni10D2" unicode="&#x10d2;" 
d="M511 156q39 -56 39 -129q0 -66 -33 -119.5t-90.5 -84t-127.5 -30.5q-71 0 -128.5 31t-90 85t-32.5 121q0 101 67 163t176 72q62 4 88 22t26 53q0 31 -28 52t-77 21q-50 0 -79.5 -25.5t-29.5 -65.5h-83q0 74 54 118.5t138 44.5q55 0 98.5 -18.5t67.5 -50.5t24 -70
q0 -83 -87 -112q69 -22 108 -78zM384 -108.5q38 20.5 59 56.5t21 81t-21 81.5t-59 57t-85 20.5t-85 -20.5t-59 -57t-21 -81.5t21 -81t59 -56.5t85 -20.5t85 20.5z" />
    <glyph glyph-name="uni10D3" unicode="&#x10d3;" horiz-adv-x="865" 
d="M234.5 -142q-99.5 58 -143 149t-43.5 197q0 137 55 209t149 72q57 0 101 -29.5t64 -89.5q21 59 70.5 89.5t114.5 30.5q57 0 106 -29.5t79 -83.5t30 -125q0 -72 -30 -125.5t-81 -82.5t-112 -29t-112 28.5t-81 82t-30 123.5v21q0 68 -30 104.5t-83 36.5q-123 0 -123 -203
q0 -145 88.5 -235t278.5 -90h178v-79h-188q-158 0 -257.5 58zM663 106.5q32 18.5 51 54.5t19 86t-19.5 86t-51 55t-68.5 19t-68.5 -19t-51 -55t-19.5 -86t19 -86t51 -54.5t69 -18.5t69 18.5z" />
    <glyph glyph-name="uni10D4" unicode="&#x10d4;" horiz-adv-x="578" 
d="M161 -180q-54 27 -86 75t-32 109q0 48 19 90l76 -17q-10 -30 -10 -65q0 -61 43 -100.5t108 -39.5t106.5 44t41.5 120v218q0 71 -40.5 112t-105.5 41q-59 0 -98.5 -32.5t-39.5 -88.5q0 -25 7 -49l-80 -15q-11 36 -11 67q0 58 30.5 102.5t81.5 69t110 24.5
q63 0 115.5 -26.5t83.5 -78t31 -122.5v-226q0 -74 -31.5 -128.5t-84.5 -82.5t-116 -28q-64 0 -118 27z" />
    <glyph glyph-name="uni10D5" unicode="&#x10d5;" horiz-adv-x="576" 
d="M159.5 -181.5q-55.5 25.5 -86 70.5t-30.5 101q0 44 17 82l76 -17q-8 -29 -8 -53q0 -62 41 -96.5t118 -34.5q70 0 113 34t43 89t-37.5 88t-100.5 33h-47v77h42q65 0 94.5 24t29.5 73q0 52 -39.5 85t-101.5 33q-65 0 -103.5 -31.5t-38.5 -79.5q0 -22 7 -42l-80 -15
q-10 33 -10 59q0 51 29 93.5t80.5 68t114.5 25.5q62 0 114.5 -24t83.5 -67.5t31 -99.5q0 -52 -28 -88.5t-79 -52.5q55 -13 90 -58t35 -108q0 -55 -32.5 -99.5t-87.5 -69.5t-122 -25q-72 0 -127.5 25.5z" />
    <glyph glyph-name="uni10D6" unicode="&#x10d6;" horiz-adv-x="625" 
d="M208.5 22q-55.5 32 -87 88t-31.5 126q0 47 18.5 90.5t52.5 70.5q-63 14 -99.5 56.5t-36.5 103.5q0 49 23 88.5t65 62t97 22.5t97.5 -22t66 -59.5t23.5 -82.5q0 -57 -37 -97q63 -4 112 -35.5t77 -83.5t28 -114q0 -69 -32 -125.5t-88 -88.5t-124 -32q-69 0 -124.5 32z
M285.5 482.5q28.5 27.5 28.5 72.5q0 44 -28.5 73t-74.5 29t-74.5 -29t-28.5 -73q0 -43 28.5 -71.5t74.5 -28.5t74.5 27.5zM413 90.5q36 21.5 56.5 59.5t20.5 86t-20.5 85.5t-56.5 59t-80 21.5q-45 0 -80.5 -21.5t-56 -59t-20.5 -85.5t20.5 -86t56 -59.5t80.5 -21.5
q44 0 80 21.5z" />
    <glyph glyph-name="uni10D7" unicode="&#x10d7;" horiz-adv-x="879" 
d="M163 20.5q-53 30.5 -84 86.5t-31 131q0 74 30.5 130t81 86.5t108.5 30.5q70 0 121.5 -30t73.5 -92q20 61 64 91.5t101 30.5q60 0 106.5 -31t72 -87.5t25.5 -130.5q0 -121 -64 -236h-87q65 120 65 234q0 80 -32.5 126.5t-91.5 46.5q-52 0 -82.5 -38t-30.5 -108v-23
q0 -75 -31 -131t-83.5 -86.5t-115.5 -30.5t-116 30.5zM351 88.5q33 19.5 53 58t20 91.5t-20 91.5t-53 58t-72 19.5t-72.5 -19.5t-53 -58t-19.5 -91.5t19.5 -91.5t53 -58t72.5 -19.5t72 19.5z" />
    <glyph glyph-name="uni10D8" unicode="&#x10d8;" horiz-adv-x="577" 
d="M67 107.5q-19 60.5 -19 128.5q0 74 30 130.5t85 87.5t126 31t125.5 -31t85 -87.5t30.5 -130.5q0 -68 -19 -128.5t-46 -107.5h-86q64 121 64 234q0 79 -42 126t-112 47q-71 0 -113 -47t-42 -126q0 -62 17 -119t48 -115h-86q-27 47 -46 107.5z" />
    <glyph glyph-name="uni10D9" unicode="&#x10d9;" horiz-adv-x="545" 
d="M138 -180.5q-54 26.5 -83.5 72.5t-29.5 102q0 43 17 81l78 -16q-9 -27 -9 -53q0 -61 39.5 -97.5t110.5 -36.5t113 34t42 91q0 60 -37 93.5t-100 33.5h-48v78h43q61 0 92.5 25t31.5 72q0 46 -33.5 76t-89.5 32v78q58 -2 105.5 -25t75 -63.5t27.5 -92.5t-27.5 -87.5
t-79.5 -52.5q55 -13 90.5 -57.5t35.5 -114.5q0 -58 -32 -103t-87 -70.5t-122 -25.5q-69 0 -123 26.5z" />
    <glyph glyph-name="uni10DA" unicode="&#x10da;" horiz-adv-x="1093" 
d="M244.5 -141q-105.5 59 -151 153.5t-45.5 207.5q0 84 24.5 144t67.5 90.5t100 30.5q53 0 95 -28.5t61 -85.5q18 57 59 85.5t92 28.5t93.5 -28.5t58.5 -85.5q19 57 60.5 85.5t94.5 28.5q54 0 98 -31t69 -87.5t25 -130.5q0 -105 -51 -201l-74 25q39 85 39 174
q0 79 -31.5 126t-84.5 47q-48 0 -76 -39t-28 -114v-141h-85v145q0 72 -29 110.5t-79 38.5t-78.5 -38.5t-28.5 -110.5v-145h-86v141q0 75 -28 114t-78 39q-54 0 -84 -46t-30 -138q0 -157 95 -250.5t304 -93.5h287v-79h-300q-170 0 -275.5 59z" />
    <glyph glyph-name="uni10DB" unicode="&#x10db;" horiz-adv-x="604" 
d="M167.5 22q-56.5 32 -88 89t-31.5 127q0 69 31 125t85 88.5t119 32.5q109 0 170 -86v108q0 68 -43.5 107t-111.5 39q-63 0 -105 -31.5t-42 -84.5h-84q0 60 31.5 104t84.5 67t116 23q67 0 121.5 -26.5t85.5 -76t31 -117.5v-272q0 -75 -31.5 -131t-86.5 -86.5t-123 -30.5
q-72 0 -128.5 32zM378.5 91q36.5 22 56.5 60.5t20 86.5q0 47 -20 85t-56.5 60t-82.5 22q-47 0 -84 -22.5t-57.5 -60.5t-20.5 -84q0 -47 20.5 -85.5t57.5 -61t84 -22.5q46 0 82.5 22z" />
    <glyph glyph-name="uni10DC" unicode="&#x10dc;" horiz-adv-x="604" 
d="M186 20.5q-55 30.5 -86.5 86.5t-31.5 131v294q0 59 28.5 101.5t77.5 64.5t107 22h225v-78h-217q-60 0 -98.5 -30.5t-38.5 -87.5v-124q60 85 170 85q65 0 119 -32t85 -88.5t31 -126.5t-31.5 -127t-88 -89t-128.5 -32q-68 0 -123 30.5zM393 91.5q37 22.5 57.5 61t20.5 85.5
t-20.5 85.5t-57.5 61t-84 22.5q-46 0 -82.5 -22t-56.5 -60.5t-20 -86.5t20 -86.5t56.5 -60.5t82.5 -22q47 0 84 22.5z" />
    <glyph glyph-name="uni10DD" unicode="&#x10dd;" horiz-adv-x="825" 
d="M67 107.5q-19 60.5 -19 128.5q0 74 25.5 130.5t71 87.5t103.5 31q59 0 102.5 -28t63.5 -86q19 58 62 86t102 28q58 0 103.5 -31t71 -87.5t25.5 -130.5q0 -68 -19 -128.5t-46 -107.5h-86q31 58 48 115t17 119q0 80 -32.5 126.5t-90.5 46.5q-54 0 -83.5 -40.5t-29.5 -115.5
v-138h-85v138q0 75 -29.5 115.5t-83.5 40.5q-59 0 -91.5 -46.5t-32.5 -126.5q0 -62 17 -119t48 -115h-86q-27 47 -46 107.5z" />
    <glyph glyph-name="uni10DE" unicode="&#x10de;" horiz-adv-x="578" 
d="M161 17.5q-56 26.5 -87 73t-31 102.5q0 43 17 81l78 -16q-9 -28 -9 -53q0 -62 42 -98.5t118 -36.5q71 0 113 35.5t42 99.5q0 61 -41 95t-107 34h-43v77h72q101 0 101 74q0 33 -20.5 52.5t-62.5 43.5q-34 19 -55 34.5t-35.5 41t-14.5 63.5h84q0 -26 18.5 -43t58.5 -39
q35 -19 58 -36t39 -44.5t16 -66.5q0 -48 -29 -79t-75 -43q50 -13 86 -59t36 -114q0 -60 -32 -106.5t-87 -72.5t-122 -26q-72 0 -128 26.5z" />
    <glyph glyph-name="uni10DF" unicode="&#x10df;" horiz-adv-x="581" 
d="M504 476v-454q0 -72 -31 -124t-84 -78.5t-119 -26.5t-118 25.5t-80.5 68.5t-28.5 94q0 29 11 62l77 -16q-4 -22 -4 -34q0 -52 38.5 -87t104.5 -35q69 0 109.5 41t40.5 114v381l-228 -48q111 -39 111 -132q0 -56 -37 -87t-94 -31q-37 0 -69 12t-54 35l40 50q33 -28 73 -28
q29 0 45.5 13.5t16.5 39.5q0 30 -20 53.5t-62 36.5l-41 13v75l314 68z" />
    <glyph glyph-name="uni10E0" unicode="&#x10e0;" horiz-adv-x="825" 
d="M65.5 125q-17.5 69 -17.5 165q0 196 99 313t322 117h119v-79h-115q-153 0 -236.5 -58t-109.5 -172q44 74 132 74q54 0 95 -28.5t60 -85.5q18 58 61.5 86t102.5 28q58 0 103.5 -31t71 -87.5t25.5 -130.5q0 -68 -19 -128.5t-46 -107.5h-86q31 58 48 115t17 119
q0 80 -32.5 126.5t-91.5 46.5q-54 0 -83 -40.5t-29 -115.5v-127h-85v127q0 75 -29.5 115.5t-83.5 40.5q-59 0 -91.5 -46.5t-32.5 -126.5q0 -62 17 -119t48 -115h-86q-30 56 -47.5 125z" />
    <glyph glyph-name="uni10E1" unicode="&#x10e1;" horiz-adv-x="609" 
d="M192 21q-55 31 -87 88.5t-32 134.5v476h84l-1 -476q0 -77 44 -126t114 -49q47 0 84 19.5t57.5 54t20.5 76.5q0 38 -12.5 64t-37.5 59q-27 34 -40.5 62.5t-13.5 71.5h84q0 -26 10.5 -46.5t33.5 -52.5q30 -41 46 -74.5t16 -83.5q0 -66 -31.5 -118t-88 -81.5t-128.5 -29.5
q-67 0 -122 31z" />
    <glyph glyph-name="uni10E2" unicode="&#x10e2;" horiz-adv-x="723" 
d="M541 424.5q63 -44.5 99 -119.5t36 -171q0 -99 -41 -177t-112.5 -121t-159.5 -43q-89 0 -161 43t-113 120.5t-41 177.5q0 95 35.5 170t98.5 119.5t142 52.5l-5 112h84l-5 -112q80 -7 143 -51.5zM478.5 -96.5q51.5 32.5 81 92t29.5 138.5q0 75 -24.5 132t-68 90.5
t-98.5 41.5q5 -40 5 -97v-188h-84v186q0 58 5 99q-84 -13 -136.5 -83t-52.5 -181q0 -79 30 -138.5t81.5 -92t116.5 -32.5q64 0 115.5 32.5z" />
    <glyph glyph-name="uni10E3" unicode="&#x10e3;" horiz-adv-x="587" 
d="M439.5 466q35.5 -19 57.5 -57t22 -92v-285q0 -75 -31 -129t-84 -82t-116 -28q-64 0 -118 27t-86 75t-32 109q0 47 18 90l76 -17q-9 -31 -9 -65q0 -61 42.5 -100.5t108.5 -39.5q65 0 106 44t41 120v273q0 50 -23.5 74.5t-60.5 24.5q-35 0 -57 -24.5t-22 -69.5v-116h-85
v115q0 44 -20 66.5t-53 22.5h-71v79h74q86 0 114 -77q33 81 131 81q42 0 77.5 -19z" />
    <glyph glyph-name="uni10E4" unicode="&#x10e4;" horiz-adv-x="819" 
d="M724 58.5q23 -35.5 23 -84.5q0 -85 -71.5 -133t-190.5 -48q-79 0 -136.5 20t-88 56t-30.5 81q0 13 3 25l80 -10q-4 -45 39.5 -70t132.5 -25q85 0 130.5 27.5t45.5 80.5q0 40 -25 67.5t-80 27.5h-29v78h41q59 0 88.5 34t29.5 90q0 60 -29 96t-76 36q-50 0 -79 -34
t-29 -100v-18q0 -62 -28.5 -110.5t-77.5 -75.5t-107 -27t-106.5 28t-77 78.5t-28.5 115.5t28 115t75 78t102 28q62 0 108.5 -29.5t67.5 -87.5q19 59 62.5 88t102.5 29q49 0 90 -25.5t64.5 -71.5t23.5 -105q0 -68 -32 -114t-92 -62q53 -13 76 -48.5zM353.5 157
q37.5 40 37.5 107q0 66 -37.5 106t-92.5 40t-92.5 -40t-37.5 -106q0 -67 37 -107t92 -40q56 0 93.5 40z" />
    <glyph glyph-name="uni10E5" unicode="&#x10e5;" horiz-adv-x="588" 
d="M161 -180q-54 27 -86 75t-32 109q0 48 19 90l76 -17q-9 -31 -9 -68q0 -39 20 -70t54.5 -49t76.5 -18q66 0 106.5 43t40.5 121v202q0 73 -42.5 121t-111.5 48q-53 0 -91 -32.5t-38 -88.5q0 -25 7 -49l-80 -15q-12 35 -12 67q0 59 28.5 103.5t74 68.5t95.5 24
q56 0 99.5 -22.5t70.5 -62.5v320h84v-688q0 -74 -31.5 -128.5t-84 -82.5t-115.5 -28q-65 0 -119 27z" />
    <glyph glyph-name="uni10E6" unicode="&#x10e6;" horiz-adv-x="825" 
d="M222.5 -144q-93.5 56 -134 145.5t-40.5 196.5q0 143 54 215t146 72q59 0 103 -28t63 -86q19 58 62 86t102 28q58 0 103.5 -31t71 -87.5t25.5 -130.5q0 -105 -51 -201l-74 25q39 85 39 174q0 80 -32.5 126.5t-90.5 46.5q-54 0 -83.5 -40.5t-29.5 -115.5v-138h-85v138
q0 75 -29.5 115.5t-83.5 40.5q-61 0 -92.5 -49.5t-31.5 -159.5q0 -147 81 -233t261 -86h144v-79h-154q-150 0 -243.5 56z" />
    <glyph glyph-name="uni10E7" unicode="&#x10e7;" horiz-adv-x="602" 
d="M525 476v-456q0 -70 -30.5 -121.5t-85 -78.5t-126.5 -27q-68 0 -120.5 25.5t-82 68.5t-29.5 94q0 32 10 62l78 -16q-5 -18 -5 -34q0 -52 40.5 -87t108.5 -35q73 0 115.5 39.5t42.5 113.5v143q-28 -40 -71 -63t-97 -23q-68 0 -118.5 29t-77.5 79.5t-27 114.5q-1 83 43 172
h83q-41 -88 -41 -162q0 -71 39 -112.5t115 -41.5q69 0 111 44.5t42 124.5v147h83z" />
    <glyph glyph-name="uni10E8" unicode="&#x10e8;" horiz-adv-x="615" 
d="M468 710.5q36 -19.5 58 -59t22 -95.5v-321q0 -73 -32 -129t-86.5 -86t-122.5 -30q-71 0 -127.5 32t-88 88t-31.5 125q0 67 31 122t85 87t119 32q109 0 169 -85v159q0 52 -25.5 77t-62.5 25q-35 0 -58.5 -22.5t-23.5 -62.5v-28h-85v28q0 40 -19.5 62t-50.5 22
q-22 0 -39.5 -6t-39.5 -19l-35 66q52 38 117 38q82 0 112 -82q17 43 53.5 62.5t82.5 19.5q42 0 78 -19.5zM390 91q36 22 56.5 59.5t20.5 84.5q0 45 -20.5 82t-57 59t-82.5 22q-47 0 -83.5 -22t-57 -59.5t-20.5 -81.5q0 -45 20.5 -83t57 -60.5t83.5 -22.5t83 22z" />
    <glyph glyph-name="uni10E9" unicode="&#x10e9;" horiz-adv-x="604" 
d="M70 527q0 63 27 109t73.5 70t101.5 24q56 0 100 -20t69 -55t25 -79q0 -88 -95 -125q88 -13 133.5 -73t47.5 -158q0 -68 -14 -119.5t-40 -100.5h-82q25 55 37.5 101.5t12.5 108.5q0 87 -38.5 133t-115.5 46q-74 0 -116.5 -47.5t-42.5 -142.5v-199h-83v527zM208 434
q31 19 77 37q34 13 53 23.5t31.5 28t12.5 43.5q0 39 -31 62.5t-79 23.5q-50 0 -84 -32.5t-34 -92.5v-145q23 33 54 52z" />
    <glyph glyph-name="uni10EA" unicode="&#x10ea;" horiz-adv-x="643" 
d="M560 113q35 -44 35 -116q0 -58 -33.5 -104.5t-91 -73t-126.5 -26.5q-81 0 -148.5 40t-107.5 121.5t-40 200.5q0 97 28.5 179t68.5 142h86q-44 -74 -69.5 -151t-25.5 -170q0 -143 58 -213.5t150 -70.5q75 0 120 36.5t45 98.5t-39.5 95.5t-108.5 33.5h-57v77h93
q48 0 72.5 17.5t24.5 47.5q0 29 -13 47t-40 40q-31 25 -47 48t-16 64h84q1 -20 12 -34t34 -32q35 -29 53.5 -56t18.5 -75q0 -41 -30.5 -70t-76.5 -39q52 -13 87 -57z" />
    <glyph glyph-name="uni10EB" unicode="&#x10eb;" horiz-adv-x="606" 
d="M167.5 22q-56.5 32 -88 89t-31.5 127t31 126.5t85 88.5t119 32q110 0 170 -85v320h84v-482q0 -74 -32 -130.5t-87 -87t-122 -30.5q-72 0 -128.5 32zM378.5 91q36.5 22 56.5 60.5t20 86.5t-20 86.5t-56.5 60.5t-82.5 22q-47 0 -84 -22.5t-57.5 -61t-20.5 -85.5t20.5 -85.5
t57.5 -61t84 -22.5q46 0 82.5 22z" />
    <glyph glyph-name="uni10EC" unicode="&#x10ec;" horiz-adv-x="616" 
d="M308.5 710.5q36.5 -19.5 54.5 -62.5q30 82 111 82q35 0 63 -9.5t54 -28.5l-35 -66q-21 13 -38.5 19t-40.5 6q-31 0 -50.5 -22t-19.5 -62v-28h-85v28q0 40 -23.5 62.5t-58.5 22.5q-37 0 -62.5 -25t-25.5 -77v-159q60 85 170 85q65 0 119 -32t85 -87t31 -122
q0 -69 -31.5 -125t-88 -88t-128.5 -32q-68 0 -122.5 30t-86.5 86t-32 129v321q0 56 22 95.5t58 59t78 19.5q46 0 82.5 -19.5zM393 91.5q37 22.5 57.5 60.5t20.5 83q0 44 -20.5 81.5t-57.5 59.5t-84 22q-46 0 -82 -22t-56.5 -59t-20.5 -82q0 -47 20 -84.5t56.5 -59.5
t82.5 -22q47 0 84 22.5z" />
    <glyph glyph-name="uni10ED" unicode="&#x10ed;" horiz-adv-x="640" 
d="M159 -180.5q-54 26.5 -85 72.5t-31 103q0 47 18 86l76 -15q-10 -30 -10 -64q0 -56 43 -93t108 -37t106 43.5t41 119.5v191q-27 -39 -71 -60t-104 -21q-52 0 -96.5 20.5t-71 58.5t-26.5 89q0 79 57.5 121t141.5 42h170v244h85v-244h126v-78h-126v-367q0 -74 -31.5 -128
t-84.5 -82t-116 -28q-65 0 -119 26.5zM382 255q43 36 43 90v54h-164q-58 0 -89 -20.5t-31 -66.5q0 -44 34 -68.5t93 -24.5q71 0 114 36z" />
    <glyph glyph-name="uni10EE" unicode="&#x10ee;" horiz-adv-x="609" 
d="M192 20.5q-55 30.5 -87 87t-32 130.5v482h84v-320q60 85 170 85q65 0 118.5 -32t84.5 -88.5t31 -126.5t-31.5 -127t-88 -89t-127.5 -32q-67 0 -122 30.5zM397.5 91.5q36.5 22.5 57 61t20.5 85.5t-20.5 85.5t-57 61t-83.5 22.5t-83 -22t-56.5 -60.5t-20.5 -86.5
q0 -73 44.5 -121t115.5 -48q47 0 83.5 22.5z" />
    <glyph glyph-name="uni10EF" unicode="&#x10ef;" horiz-adv-x="573" 
d="M474 133q51 -55 51 -141q0 -58 -32 -103t-87 -70.5t-122 -25.5q-69 0 -122.5 26.5t-83.5 71.5t-30 99q0 42 17 82l78 -17q-9 -27 -9 -52q0 -60 40 -95.5t110 -35.5q71 0 113 34t42 91q0 61 -37.5 95t-104.5 34h-53v170h-179v78h179v112h85v-112h179v-78h-179v-100
q94 -8 145 -63z" />
    <glyph glyph-name="uni10F0" unicode="&#x10f0;" horiz-adv-x="565" 
d="M152 14q-53 23 -81 62.5t-28 87.5q0 22 8 48l78 -12q-2 -8 -2 -24q0 -49 39 -78.5t112 -29.5q75 0 114 24.5t39 67.5q0 46 -37.5 65t-106.5 19h-40v74h90q86 0 86 50q0 54 -86 54h-90v74h90q37 0 56.5 10t19.5 36q0 25 -19 37.5t-59 27.5q-35 12 -57 23.5t-37.5 33.5
t-15.5 56h84q0 -20 18 -31.5t56 -24.5q36 -13 59.5 -25t40 -34t16.5 -56q0 -40 -23.5 -60.5t-70.5 -31.5q49 -7 76.5 -29.5t27.5 -61.5q0 -36 -27 -58.5t-75 -30.5q50 -9 80.5 -39t30.5 -82q0 -47 -30 -84.5t-84.5 -59t-125.5 -21.5q-73 0 -126 23z" />
    <glyph glyph-name="uni10FB" unicode="&#x10fb;" horiz-adv-x="503" 
d="M67 0zM180 465.5q20 -19.5 20 -46.5q0 -26 -20 -46t-47 -20q-26 0 -46 20t-20 46q0 27 20 46.5t46 19.5q27 0 47 -19.5zM180 104q20 -20 20 -46q0 -27 -20 -47t-47 -20q-26 0 -46 20t-20 47q0 26 20 46t46 20q27 0 47 -20zM416 286q20 -20 20 -47q0 -26 -20 -46.5
t-47 -20.5q-26 0 -46 20.5t-20 46.5q0 27 20 47t46 20q27 0 47 -20z" />
    <glyph glyph-name="uni1E0C" unicode="&#x1e0c;" horiz-adv-x="792" 
d="M560.5 657q84.5 -43 130 -122t45.5 -185t-45.5 -185t-130 -122t-197.5 -43h-267v700h267q113 0 197.5 -43zM186 85h177q134 0 206.5 72t72.5 193q0 122 -72.5 193.5t-206.5 71.5h-177v-530zM417.5 -92.5q16.5 -16.5 16.5 -40.5t-16.5 -40t-39.5 -16q-24 0 -40 16t-16 40
t16 40.5t40 16.5q23 0 39.5 -16.5z" />
    <glyph glyph-name="uni1E0D" unicode="&#x1e0d;" horiz-adv-x="619" 
d="M382 462.5q43 -22.5 71 -62.5v320h84v-720h-83v77q-28 -40 -71.5 -63.5t-99.5 -23.5q-65 0 -119 32.5t-85 89t-31 126.5t31 126.5t85 88.5t119 32q56 0 99 -22.5zM212 384.5q-37 -22.5 -57.5 -61t-20.5 -85.5t20.5 -85.5t57.5 -61t84 -22.5t83.5 22t57 60.5t20.5 86.5
t-20.5 86.5t-57 60.5t-83.5 22t-84 -22.5zM347.5 -92.5q16.5 -16.5 16.5 -40.5t-16.5 -40t-40.5 -16q-23 0 -39 16t-16 40t16 40.5t39 16.5q24 0 40.5 -16.5z" />
    <glyph glyph-name="uni1E0E" unicode="&#x1e0e;" horiz-adv-x="792" 
d="M560.5 657q84.5 -43 130 -122t45.5 -185t-45.5 -185t-130 -122t-197.5 -43h-267v700h267q113 0 197.5 -43zM186 85h177q134 0 206.5 72t72.5 193q0 122 -72.5 193.5t-206.5 71.5h-177v-530zM532 -97v-68h-308v68h308z" />
    <glyph glyph-name="uni1E0F" unicode="&#x1e0f;" horiz-adv-x="619" 
d="M382 462.5q43 -22.5 71 -62.5v320h84v-720h-83v77q-28 -40 -71.5 -63.5t-99.5 -23.5q-65 0 -119 32.5t-85 89t-31 126.5t31 126.5t85 88.5t119 32q56 0 99 -22.5zM212 384.5q-37 -22.5 -57.5 -61t-20.5 -85.5t20.5 -85.5t57.5 -61t84 -22.5t83.5 22t57 60.5t20.5 86.5
t-20.5 86.5t-57 60.5t-83.5 22t-84 -22.5zM461 -97v-68h-307v68h307z" />
    <glyph glyph-name="uni1E24" unicode="&#x1e24;" horiz-adv-x="780" 
d="M594 395v305h91v-700h-91v311h-408v-311h-90v700h90v-305h408zM429.5 -92.5q16.5 -16.5 16.5 -40.5t-16.5 -40t-39.5 -16q-24 0 -40 16t-16 40t16 40.5t40 16.5q23 0 39.5 -16.5z" />
    <glyph glyph-name="uni1E25" unicode="&#x1e25;" horiz-adv-x="596" 
d="M234.5 465.5q41.5 19.5 89.5 19.5q87 0 141 -51.5t54 -137.5v-296h-85v270q0 64 -34 100t-95 36q-59 0 -98.5 -38t-39.5 -101v-267h-84v720h84v-315q26 41 67.5 60.5zM341.5 -92.5q16.5 -16.5 16.5 -40.5t-16.5 -40t-40.5 -16t-40 16t-16 40t16 40.5t40 16.5t40.5 -16.5z
" />
    <glyph glyph-name="uni1E28" unicode="&#x1e28;" horiz-adv-x="780" 
d="M594 395v305h91v-700h-91v311h-408v-311h-3l-50 -162h-89l54 162h-2v700h90v-305h408z" />
    <glyph glyph-name="uni1E29" unicode="&#x1e29;" horiz-adv-x="596" 
d="M234.5 465.5q41.5 19.5 89.5 19.5q87 0 141 -51.5t54 -137.5v-296h-85v270q0 64 -34 100t-95 36q-59 0 -98.5 -38t-39.5 -101v-267h-2l-51 -162h-84l55 162h-2v720h84v-315q26 41 67.5 60.5z" />
    <glyph glyph-name="uni1E2A" unicode="&#x1e2a;" horiz-adv-x="780" 
d="M594 395v305h91v-700h-91v311h-408v-311h-90v700h90v-305h408zM390 -143q80 0 108 94l65 -19q-19 -70 -64 -106.5t-109 -36.5q-65 0 -109.5 36.5t-63.5 106.5l66 19q25 -94 107 -94z" />
    <glyph glyph-name="uni1E2B" unicode="&#x1e2b;" horiz-adv-x="596" 
d="M234.5 465.5q41.5 19.5 89.5 19.5q87 0 141 -51.5t54 -137.5v-296h-85v270q0 64 -34 100t-95 36q-59 0 -98.5 -38t-39.5 -101v-267h-84v720h84v-315q26 41 67.5 60.5zM234 -119.5q28 -23.5 67 -23.5q80 0 107 94l66 -19q-19 -70 -63.5 -106.5t-109.5 -36.5t-110 36.5
t-64 106.5l66 19q13 -47 41 -70.5z" />
    <glyph glyph-name="uni1E32" unicode="&#x1e32;" horiz-adv-x="694" 
d="M186 310v-310h-90v700h90v-306h83l279 306h115l-322 -343l343 -357h-119l-297 310h-82zM386.5 -92.5q16.5 -16.5 16.5 -40.5t-16.5 -40t-39.5 -16q-24 0 -40 16t-16 40t16 40.5t40 16.5q23 0 39.5 -16.5z" />
    <glyph glyph-name="uni1E33" unicode="&#x1e33;" horiz-adv-x="531" 
d="M232 287l176 189h104l-211 -224l214 -252h-105l-178 212h-65v-212h-84v720h84v-433h65zM320.5 -92.5q16.5 -16.5 16.5 -40.5t-16.5 -40t-40.5 -16t-40 16t-16 40t16 40.5t40 16.5t40.5 -16.5z" />
    <glyph glyph-name="uni1E36" unicode="&#x1e36;" horiz-adv-x="603" 
d="M96 0v700h90v-615h398v-85h-488zM375.5 -92.5q16.5 -16.5 16.5 -40.5t-16.5 -40t-39.5 -16q-24 0 -40 16t-16 40t16 40.5t40 16.5q23 0 39.5 -16.5z" />
    <glyph glyph-name="uni1E37" unicode="&#x1e37;" horiz-adv-x="250" 
d="M83 0v720h84v-720h-84zM165.5 -92.5q16.5 -16.5 16.5 -40.5t-16.5 -40t-40.5 -16t-40 16t-16 40t16 40.5t40 16.5t40.5 -16.5z" />
    <glyph glyph-name="uni1E38" unicode="&#x1e38;" horiz-adv-x="603" 
d="M294 859v-67h-307v67h307zM96 0v700h90v-615h398v-85h-488zM375.5 -92.5q16.5 -16.5 16.5 -40.5t-16.5 -40t-39.5 -16q-24 0 -40 16t-16 40t16 40.5t40 16.5q23 0 39.5 -16.5z" />
    <glyph glyph-name="uni1E39" unicode="&#x1e39;" horiz-adv-x="250" 
d="M270 869v-67h-307v67h307zM83 0v720h84v-720h-84zM165.5 -92.5q16.5 -16.5 16.5 -40.5t-16.5 -40t-40.5 -16t-40 16t-16 40t16 40.5t40 16.5t40.5 -16.5z" />
    <glyph glyph-name="uni1E3A" unicode="&#x1e3a;" horiz-adv-x="603" 
d="M96 0v700h90v-615h398v-85h-488zM490 -97v-68h-308v68h308z" />
    <glyph glyph-name="uni1E3B" unicode="&#x1e3b;" horiz-adv-x="250" 
d="M83 0v720h84v-720h-84zM279 -97v-68h-308v68h308z" />
    <glyph glyph-name="uni1E40" unicode="&#x1e40;" horiz-adv-x="931" 
d="M500 870q17 -17 17 -42t-17 -42t-42 -17t-42 17t-17 42t17 42t42 17t42 -17zM745 0v593l-232 -516h-95l-232 513v-590h-90v700h133l236 -518l236 518h134v-700h-90z" />
    <glyph glyph-name="uni1E41" unicode="&#x1e41;" horiz-adv-x="948" 
d="M518.5 685q16.5 -17 16.5 -41t-16.5 -40t-40.5 -16t-40 16t-16 40t16 41t40 17t40.5 -17zM816 433.5q54 -51.5 54 -137.5v-296h-84v270q0 64 -34.5 100t-96.5 36q-58 0 -97 -38t-39 -101v-267h-85v270q0 64 -34 100t-95 36q-59 0 -98.5 -38t-39.5 -101v-267h-84v476h83
v-73q26 42 67.5 62t90.5 20q60 0 106 -26t69 -73q26 50 72.5 74.5t102.5 24.5q88 0 142 -51.5z" />
    <glyph glyph-name="uni1E42" unicode="&#x1e42;" horiz-adv-x="931" 
d="M745 0v593l-232 -516h-95l-232 513v-590h-90v700h133l236 -518l236 518h134v-700h-90zM505.5 -92.5q16.5 -16.5 16.5 -40.5t-16.5 -40t-40.5 -16t-40 16t-16 40t16 40.5t40 16.5t40.5 -16.5z" />
    <glyph glyph-name="uni1E43" unicode="&#x1e43;" horiz-adv-x="948" 
d="M816 433.5q54 -51.5 54 -137.5v-296h-84v270q0 64 -34.5 100t-96.5 36q-58 0 -97 -38t-39 -101v-267h-85v270q0 64 -34 100t-95 36q-59 0 -98.5 -38t-39.5 -101v-267h-84v476h83v-73q26 42 67.5 62t90.5 20q60 0 106 -26t69 -73q26 50 72.5 74.5t102.5 24.5
q88 0 142 -51.5zM517.5 -92.5q16.5 -16.5 16.5 -40.5t-16.5 -40t-40.5 -16t-40.5 16t-16.5 40t16.5 40.5t40.5 16.5t40.5 -16.5z" />
    <glyph glyph-name="uni1E44" unicode="&#x1e44;" horiz-adv-x="785" 
d="M428 870q17 -17 17 -42t-17 -42t-42 -17t-42 17t-17 42t17 42t42 17t42 -17zM606 0l-420 548v-548h-90v700h83l420 -547v547h91v-700h-84z" />
    <glyph glyph-name="uni1E45" unicode="&#x1e45;" horiz-adv-x="596" 
d="M345.5 681.5q16.5 -16.5 16.5 -40.5t-16.5 -40t-39.5 -16q-24 0 -40 16t-16 40t16 40.5t40 16.5q23 0 39.5 -16.5zM465 433.5q54 -51.5 54 -137.5v-296h-85v270q0 64 -34 100t-95 36q-59 0 -98.5 -38t-39.5 -101v-267h-84v476h83v-73q26 42 67.5 62t90.5 20
q87 0 141 -51.5z" />
    <glyph glyph-name="uni1E46" unicode="&#x1e46;" horiz-adv-x="785" 
d="M606 0l-420 548v-548h-90v700h83l420 -547v547h91v-700h-84zM431.5 -92.5q16.5 -16.5 16.5 -40.5t-16.5 -40t-40.5 -16t-40 16t-16 40t16 40.5t40 16.5t40.5 -16.5z" />
    <glyph glyph-name="uni1E47" unicode="&#x1e47;" horiz-adv-x="596" 
d="M465 433.5q54 -51.5 54 -137.5v-296h-85v270q0 64 -34 100t-95 36q-59 0 -98.5 -38t-39.5 -101v-267h-84v476h83v-73q26 42 67.5 62t90.5 20q87 0 141 -51.5zM340.5 -92.5q16.5 -16.5 16.5 -40.5t-16.5 -40t-39.5 -16q-24 0 -40 16t-16 40t16 40.5t40 16.5
q23 0 39.5 -16.5z" />
    <glyph glyph-name="uni1E48" unicode="&#x1e48;" horiz-adv-x="785" 
d="M606 0l-420 548v-548h-90v700h83l420 -547v547h91v-700h-84zM545 -97v-68h-307v68h307z" />
    <glyph glyph-name="uni1E49" unicode="&#x1e49;" horiz-adv-x="596" 
d="M465 433.5q54 -51.5 54 -137.5v-296h-85v270q0 64 -34 100t-95 36q-59 0 -98.5 -38t-39.5 -101v-267h-84v476h83v-73q26 42 67.5 62t90.5 20q87 0 141 -51.5zM454 -97v-68h-307v68h307z" />
    <glyph glyph-name="uni1E58" unicode="&#x1e58;" horiz-adv-x="674" 
d="M365 870q17 -17 17 -42t-17 -42t-42 -17t-41.5 17t-16.5 42t16.5 42t41.5 17t42 -17zM556 647.5q64 -52.5 64 -148.5q0 -89 -61 -142t-168 -57h-19l247 -300h-111l-240 299h-82v-299h-90v700h277q119 0 183 -52.5zM186 379h186q76 0 115.5 30.5t39.5 89.5q0 58 -40 88
t-115 30h-186v-238z" />
    <glyph glyph-name="uni1E59" unicode="&#x1e59;" horiz-adv-x="412" 
d="M273.5 681.5q16.5 -16.5 16.5 -40.5t-16.5 -40t-40.5 -16t-40 16t-16 40t16 40.5t40 16.5t40.5 -16.5zM387 471l-16 -83q-16 8 -38 12.5t-44 4.5q-54 0 -88 -38t-34 -102v-265h-84v476h82v-70q23 39 59.5 59.5t82.5 20.5q47 0 80 -15z" />
    <glyph glyph-name="uni1E5A" unicode="&#x1e5a;" horiz-adv-x="674" 
d="M556 647.5q64 -52.5 64 -148.5q0 -89 -61 -142t-167 -57h-20l247 -300h-111l-240 299h-82v-299h-90v700h277q119 0 183 -52.5zM186 379h186q76 0 115.5 30.5t39.5 89.5q0 58 -40 88t-115 30h-186v-238zM371.5 -92.5q16.5 -16.5 16.5 -40.5t-16.5 -40t-40.5 -16t-40 16
t-16 40t16 40.5t40 16.5t40.5 -16.5z" />
    <glyph glyph-name="uni1E5B" unicode="&#x1e5b;" horiz-adv-x="412" 
d="M387 471l-16 -83q-16 8 -38 12.5t-44 4.5q-54 0 -88 -38t-34 -102v-265h-84v476h82v-70q23 39 59.5 59.5t82.5 20.5q47 0 80 -15zM166.5 -92.5q16.5 -16.5 16.5 -40.5t-16.5 -40t-40.5 -16t-40.5 16t-16.5 40t16.5 40.5t40.5 16.5t40.5 -16.5z" />
    <glyph glyph-name="uni1E5C" unicode="&#x1e5c;" horiz-adv-x="674" 
d="M484 859v-67h-306v67h306zM556 647.5q64 -52.5 64 -148.5q0 -89 -61.5 -142t-168.5 -57h-18l247 -300h-111l-240 299h-82v-299h-90v700h277q119 0 183 -52.5zM186 379h186q76 0 115.5 30.5t39.5 89.5q0 58 -40 88t-115 30h-186v-238zM371.5 -92.5q16.5 -16.5 16.5 -40.5
t-16.5 -40t-40.5 -16t-40 16t-16 40t16 40.5t40 16.5t40.5 -16.5z" />
    <glyph glyph-name="uni1E5D" unicode="&#x1e5d;" horiz-adv-x="412" 
d="M387 653v-68h-307v68h307zM387 471l-16 -83q-16 8 -38 12.5t-44 4.5q-54 0 -88 -38t-34 -102v-265h-84v476h82v-70q23 39 59.5 59.5t82.5 20.5q47 0 80 -15zM166.5 -92.5q16.5 -16.5 16.5 -40.5t-16.5 -40t-40.5 -16t-40.5 16t-16.5 40t16.5 40.5t40.5 16.5t40.5 -16.5z
" />
    <glyph glyph-name="uni1E5E" unicode="&#x1e5e;" horiz-adv-x="674" 
d="M556 647.5q64 -52.5 64 -148.5q0 -89 -61.5 -142t-168.5 -57h-18l247 -300h-111l-240 299h-82v-299h-90v700h277q119 0 183 -52.5zM186 379h186q76 0 115.5 30.5t39.5 89.5q0 58 -40 88t-115 30h-186v-238zM485 -97v-68h-307v68h307z" />
    <glyph glyph-name="uni1E5F" unicode="&#x1e5f;" horiz-adv-x="412" 
d="M387 471l-16 -83q-16 8 -38 12.5t-44 4.5q-54 0 -88 -38t-34 -102v-265h-84v476h82v-70q23 39 59.5 59.5t82.5 20.5q47 0 80 -15zM279 -97v-68h-307v68h307z" />
    <glyph glyph-name="uni1E62" unicode="&#x1e62;" horiz-adv-x="674" 
d="M347 625q-77 0 -125 -32t-48 -87q0 -46 40.5 -72t121.5 -37l62 -8q218 -28 218 -185q0 -69 -37.5 -117.5t-101 -72.5t-140.5 -24t-153 25t-127 65l48 72q41 -32 103 -54.5t129 -22.5q81 0 132.5 31.5t51.5 88.5q0 48 -40.5 73.5t-125.5 36.5l-67 8q-99 12 -153.5 58
t-54.5 129q0 65 35.5 112.5t96 72t134.5 24.5q141 0 257 -75l-45 -74q-95 65 -211 65zM390.5 -92.5q16.5 -16.5 16.5 -40.5t-16.5 -40t-40.5 -16t-40.5 16t-16.5 40t16.5 40.5t40.5 16.5t40.5 -16.5z" />
    <glyph glyph-name="uni1E63" unicode="&#x1e63;" horiz-adv-x="494" 
d="M337.5 400.5q-43.5 13.5 -86.5 13.5q-48 0 -77 -19t-29 -51q0 -27 24 -42t72 -21l54 -7q77 -10 118 -43t41 -90q0 -70 -57 -110.5t-154 -40.5q-54 0 -107.5 14.5t-93.5 45.5l35 63q33 -24 73 -37.5t94 -13.5q58 0 90.5 18.5t32.5 53.5q0 28 -24 44t-74 22l-52 6
q-158 20 -158 134q0 68 51.5 106.5t139.5 38.5q109 0 191 -50l-32 -66q-28 18 -71.5 31.5zM292.5 -92.5q16.5 -16.5 16.5 -40.5t-16.5 -40t-40.5 -16q-23 0 -39.5 16t-16.5 40t16.5 40.5t39.5 16.5q24 0 40.5 -16.5z" />
    <glyph glyph-name="uni1E6C" unicode="&#x1e6c;" horiz-adv-x="607" 
d="M348 615v-615h-90v615h-239v85h569v-85h-240zM343.5 -92.5q16.5 -16.5 16.5 -40.5t-16.5 -40t-40.5 -16t-40 16t-16 40t16 40.5t40 16.5t40.5 -16.5z" />
    <glyph glyph-name="uni1E6D" unicode="&#x1e6d;" horiz-adv-x="458" 
d="M212 400v-227q0 -52 25 -78t67 -26q27 0 53 9.5t47 25.5l35 -64q-62 -50 -145 -50q-80 0 -123 45t-43 133v232h-103v76h103v150h84v-150h202v-76h-202zM316.5 -92.5q16.5 -16.5 16.5 -40.5t-16.5 -40t-40.5 -16t-40 16t-16 40t16 40.5t40 16.5t40.5 -16.5z" />
    <glyph glyph-name="uni1E6E" unicode="&#x1e6e;" horiz-adv-x="607" 
d="M348 615v-615h-90v615h-239v85h569v-85h-240zM457 -97v-68h-307v68h307z" />
    <glyph glyph-name="uni1E6F" unicode="&#x1e6f;" horiz-adv-x="458" 
d="M212 400v-227q0 -52 25 -78t67 -26q27 0 53 9.5t47 25.5l35 -64q-62 -50 -145 -50q-80 0 -123 45t-43 133v232h-103v76h103v150h84v-150h202v-76h-202zM429 -97v-68h-306v68h306z" />
    <glyph glyph-name="Wgrave" unicode="&#x1e80;" horiz-adv-x="1099" 
d="M513 906l107 -153h-82l-128 153h103zM737 0l-188 576l-187 -576h-110l-226 700h95l188 -597l191 597h101l191 -596l188 596h92l-226 -700h-109z" />
    <glyph glyph-name="wgrave" unicode="&#x1e81;" horiz-adv-x="864" 
d="M391 699l106 -153h-82l-128 153h104zM755 476h88l-177 -476h-97l-138 380l-136 -380h-97l-176 476h89l138 -385l138 385h91l138 -386z" />
    <glyph glyph-name="Wacute" unicode="&#x1e82;" horiz-adv-x="1099" 
d="M581 906h103l-128 -153h-81zM737 0l-188 576l-187 -576h-110l-226 700h95l188 -597l191 597h101l191 -596l188 596h92l-226 -700h-109z" />
    <glyph glyph-name="wacute" unicode="&#x1e83;" horiz-adv-x="864" 
d="M469 699h103l-128 -153h-81zM755 476h88l-177 -476h-97l-138 380l-136 -380h-97l-176 476h89l138 -385l138 385h91l138 -386z" />
    <glyph glyph-name="Wdieresis" unicode="&#x1e84;" horiz-adv-x="1099" 
d="M485.5 866q16.5 -17 16.5 -41q0 -23 -16.5 -39.5t-40.5 -16.5t-40 16.5t-16 39.5q0 24 16 41t40 17t40.5 -17zM694.5 866q16.5 -17 16.5 -41q0 -23 -16.5 -39.5t-40.5 -16.5t-40 16.5t-16 39.5q0 24 16 41t40 17t40.5 -17zM737 0l-188 576l-187 -576h-110l-226 700h95
l188 -597l191 597h101l191 -596l188 596h92l-226 -700h-109z" />
    <glyph glyph-name="wdieresis" unicode="&#x1e85;" horiz-adv-x="864" 
d="M367.5 659.5q16.5 -16.5 16.5 -40.5t-16.5 -40t-40.5 -16t-40 16t-16 40t16 40.5t40 16.5t40.5 -16.5zM576.5 659.5q16.5 -16.5 16.5 -40.5t-16.5 -40t-40.5 -16t-40.5 16t-16.5 40t16.5 40.5t40.5 16.5t40.5 -16.5zM755 476h88l-177 -476h-97l-138 380l-136 -380h-97
l-176 476h89l138 -385l138 385h91l138 -386z" />
    <glyph glyph-name="uni1E88" unicode="&#x1e88;" horiz-adv-x="1099" 
d="M737 0l-188 576l-187 -576h-110l-226 700h95l188 -597l191 597h101l191 -596l188 596h92l-226 -700h-109zM590.5 -92.5q16.5 -16.5 16.5 -40.5t-16.5 -40t-40.5 -16t-40.5 16t-16.5 40t16.5 40.5t40.5 16.5t40.5 -16.5z" />
    <glyph glyph-name="uni1E89" unicode="&#x1e89;" horiz-adv-x="864" 
d="M755 476h88l-177 -476h-97l-138 380l-136 -380h-97l-176 476h89l138 -385l138 385h91l138 -386zM472.5 -92.5q16.5 -16.5 16.5 -40.5t-16.5 -40t-40.5 -16t-40 16t-16 40t16 40.5t40 16.5t40.5 -16.5z" />
    <glyph glyph-name="uni1E92" unicode="&#x1e92;" horiz-adv-x="657" 
d="M177 84h423v-84h-543v71l421 545h-416v84h536v-70zM368.5 -92.5q16.5 -16.5 16.5 -40.5t-16.5 -40t-40.5 -16t-40 16t-16 40t16 40.5t40 16.5t40.5 -16.5z" />
    <glyph glyph-name="uni1E93" unicode="&#x1e93;" horiz-adv-x="528" 
d="M173 76h298v-76h-413v61l297 339h-287v76h398v-62zM305.5 -92.5q16.5 -16.5 16.5 -40.5t-16.5 -40t-40.5 -16t-40.5 16t-16.5 40t16.5 40.5t40.5 16.5t40.5 -16.5z" />
    <glyph glyph-name="uni1E94" unicode="&#x1e94;" horiz-adv-x="657" 
d="M177 84h423v-84h-543v71l421 545h-416v84h536v-70zM482 -97v-68h-307v68h307z" />
    <glyph glyph-name="uni1E95" unicode="&#x1e95;" horiz-adv-x="528" 
d="M173 76h298v-76h-413v61l297 339h-287v76h398v-62zM418 -97v-68h-307v68h307z" />
    <glyph glyph-name="uni1E96" unicode="&#x1e96;" horiz-adv-x="596" 
d="M234.5 465.5q41.5 19.5 89.5 19.5q87 0 141 -51.5t54 -137.5v-296h-85v270q0 64 -34 100t-95 36q-59 0 -98.5 -38t-39.5 -101v-267h-84v720h84v-315q26 41 67.5 60.5zM454 -97v-68h-306v68h306z" />
    <glyph glyph-name="uni1E9E" unicode="&#x1e9e;" horiz-adv-x="729" 
d="M526 569q-26 27 -64.5 41t-95.5 14q-87 0 -138 -45t-51 -123v-456h-91v460q0 71 32 127.5t96 89.5t155 33q99 0 164.5 -32.5t111.5 -91.5l-180 -202q93 -12 150.5 -63.5t57.5 -129.5q0 -60 -34 -106t-92.5 -70.5t-130.5 -24.5q-78 0 -145 21l19 84q54 -19 112 -19
q82 0 129 30.5t47 84.5q0 56 -49 87.5t-135 31.5h-41v66z" />
    <glyph glyph-name="Ygrave" unicode="&#x1ef2;" horiz-adv-x="650" 
d="M290 906l106 -153h-81l-128 153h103zM371 0h-90v292l-276 408h107l215 -325l214 325h104l-274 -409v-291z" />
    <glyph glyph-name="ygrave" unicode="&#x1ef3;" horiz-adv-x="533" 
d="M228 699l107 -153h-83l-127 153h103zM50 -202l177 306l-217 372h95l169 -287l159 287h93l-383 -678h-93z" />
    <glyph glyph-name="uni1EF4" unicode="&#x1ef4;" horiz-adv-x="650" 
d="M371 0h-90v292l-276 408h107l215 -325l214 325h104l-274 -409v-291zM366 -92.5q16 -16.5 16 -40.5t-16 -40t-40 -16t-40 16t-16 40t16 40.5t40 16.5t40 -16.5z" />
    <glyph glyph-name="uni1EF5" unicode="&#x1ef5;" horiz-adv-x="533" 
d="M50 -202l177 306l-217 372h95l169 -287l159 287h93l-383 -678h-93zM428 -92.5q16 -16.5 16 -40.5t-16 -40t-40 -16t-40 16t-16 40t16 40.5t40 16.5t40 -16.5z" />
    <glyph glyph-name="uni2007" unicode="&#x2007;" horiz-adv-x="708" 
 />
    <glyph glyph-name="uni2008" unicode="&#x2008;" horiz-adv-x="266" 
 />
    <glyph glyph-name="uni2009" unicode="&#x2009;" horiz-adv-x="87" 
 />
    <glyph glyph-name="uni200B" unicode="&#x200b;" horiz-adv-x="0" 
 />
    <glyph glyph-name="uni2010" unicode="&#x2010;" horiz-adv-x="414" 
d="M67 227v75h280v-75h-280z" />
    <glyph glyph-name="uni2011" unicode="&#x2011;" horiz-adv-x="414" 
d="M67 227v75h280v-75h-280z" />
    <glyph glyph-name="figuredash" unicode="&#x2012;" 
d="M61 228v73h478v-73h-478z" />
    <glyph glyph-name="endash" unicode="&#x2013;" horiz-adv-x="593" 
d="M57 228v73h479v-73h-479z" />
    <glyph glyph-name="emdash" unicode="&#x2014;" horiz-adv-x="807" 
d="M29 228v73h750v-73h-750z" />
    <glyph glyph-name="quoteleft" unicode="&#x2018;" horiz-adv-x="253" 
d="M120 720h72l-31 -262h-97z" />
    <glyph glyph-name="quoteright" unicode="&#x2019;" horiz-adv-x="253" 
d="M133 458h-72l32 262h96z" />
    <glyph glyph-name="quotesinglbase" unicode="&#x201a;" horiz-adv-x="253" 
d="M133 -131h-72l32 263h96z" />
    <glyph glyph-name="quotedblleft" unicode="&#x201c;" horiz-adv-x="438" 
d="M120 720h72l-31 -262h-97zM306 720h71l-31 -262h-97z" />
    <glyph glyph-name="quotedblright" unicode="&#x201d;" horiz-adv-x="438" 
d="M133 458h-72l32 262h96zM318 458h-72l32 262h96z" />
    <glyph glyph-name="quotedblbase" unicode="&#x201e;" horiz-adv-x="438" 
d="M133 -131h-72l32 263h96zM318 -131h-72l32 263h96z" />
    <glyph glyph-name="dagger" unicode="&#x2020;" horiz-adv-x="372" 
d="M152 550h-104v66h104v104h68v-104h104v-66h-104v-218h-68v218z" />
    <glyph glyph-name="daggerdbl" unicode="&#x2021;" horiz-adv-x="372" 
d="M324 631v-64h-104v-83h104v-65h-104v-88h-68v88h-104v65h104v83h-104v64h104v89h68v-89h104z" />
    <glyph glyph-name="bullet" unicode="&#x2022;" horiz-adv-x="439" 
d="M304 349q35 -35 35 -84t-35 -84t-84 -35q-50 0 -84.5 34.5t-34.5 84.5t34.5 84.5t84.5 34.5q49 0 84 -35z" />
    <glyph glyph-name="uni2023" unicode="&#x2023;" horiz-adv-x="499" 
d="M121 442l306 -177l-306 -178v355z" />
    <glyph glyph-name="ellipsis" unicode="&#x2026;" horiz-adv-x="752" 
d="M180 104q20 -20 20 -46q0 -27 -20 -47t-47 -20q-26 0 -46 20t-20 47q0 26 20 46t46 20q27 0 47 -20zM422 104q20 -20 20 -46q0 -27 -20 -47t-46 -20t-46 20t-20 47q0 26 20 46t46 20t46 -20zM665 104q20 -20 20 -46q0 -27 -20 -47t-46 -20q-27 0 -47 20t-20 47
q0 26 20 46t47 20q26 0 46 -20z" />
    <glyph glyph-name="perthousand" unicode="&#x2030;" horiz-adv-x="1389" 
d="M323.5 686q42.5 -24 67 -65.5t24.5 -92.5q0 -52 -24.5 -93.5t-67 -65.5t-94.5 -24q-51 0 -93 24t-66 65.5t-24 93.5q0 51 24 92.5t66 65.5t93 24q52 0 94.5 -24zM215 0l452 700h86l-451 -700h-87zM151.5 607.5q-31.5 -31.5 -31.5 -79.5t31.5 -80t77.5 -32q48 0 79.5 31.5
t31.5 80.5t-31.5 80t-79.5 31q-46 0 -77.5 -31.5zM833 331q42 -24 66 -65.5t24 -92.5q0 -52 -24 -93.5t-66 -65.5t-94 -24t-94 24t-66 65.5t-24 93.5q0 51 24 92.5t66 65.5t94 24t94 -24zM1253.5 331q42.5 -24 66.5 -65.5t24 -92.5q0 -52 -24 -93.5t-66.5 -65.5t-94.5 -24
t-94 24t-66 65.5t-24 93.5q0 51 24 92.5t66 65.5t94 24t94.5 -24zM660.5 253q-31.5 -31 -31.5 -80t31.5 -80.5t78.5 -31.5t78.5 31.5t31.5 80.5t-31 80t-79 31q-47 0 -78.5 -31zM1081 253q-31 -31 -31 -80t31 -80.5t78 -31.5t78.5 31.5t31.5 80.5t-31 80t-79 31
q-47 0 -78 -31z" />
    <glyph glyph-name="minute" unicode="&#x2032;" horiz-adv-x="273" 
d="M141 380h-80l68 320h80z" />
    <glyph glyph-name="second" unicode="&#x2033;" horiz-adv-x="436" 
d="M141 380h-80l68 320h80zM305 380h-81l69 320h79z" />
    <glyph glyph-name="uni2034" unicode="&#x2034;" horiz-adv-x="577" 
d="M141 380h-80l68 320h80zM293 380h-80l68 320h80zM445 380h-80l68 320h80z" />
    <glyph glyph-name="guilsinglleft" unicode="&#x2039;" horiz-adv-x="313" 
d="M157 78l-97 187l97 187h87l-96 -187l96 -187h-87z" />
    <glyph glyph-name="guilsinglright" unicode="&#x203a;" horiz-adv-x="313" 
d="M157 452l96 -187l-96 -187h-88l97 187l-97 187h88z" />
    <glyph glyph-name="fraction" unicode="&#x2044;" horiz-adv-x="220" 
d="M-151 0l442 700h81l-442 -700h-81z" />
    <glyph glyph-name="uni2070" unicode="&#x2070;" horiz-adv-x="434" 
d="M303 680.5q39 -24.5 61.5 -70t22.5 -107.5q0 -61 -22.5 -107t-61.5 -70.5t-86 -24.5t-86 24.5t-61.5 70.5t-22.5 107q0 62 22.5 107.5t61.5 70t86 24.5t86 -24.5zM144.5 605q-28.5 -37 -28.5 -102t28.5 -101.5t72.5 -36.5t72.5 36.5t28.5 101.5t-28.5 102t-72.5 37
t-72.5 -37z" />
    <glyph glyph-name="uni2071" unicode="&#x2071;" horiz-adv-x="186" 
d="M123.5 782q12.5 -12 12.5 -30t-12.5 -30.5t-30.5 -12.5t-30 12.5t-12 30.5t12 30t30 12t30.5 -12zM61 307v333h65v-333h-65z" />
    <glyph glyph-name="uni2074" unicode="&#x2074;" horiz-adv-x="347" 
d="M328 442v-60h-59v-75h-67v75h-183v47l137 270h73l-132 -257h105v79l24 30h43v-109h59z" />
    <glyph glyph-name="uni2075" unicode="&#x2075;" horiz-adv-x="356" 
d="M125 639l-3 -91h46q70 0 108 -32t38 -84q0 -60 -40.5 -95.5t-103.5 -35.5q-43 0 -78.5 15t-60.5 41l37 46q18 -18 45 -29.5t56 -11.5q36 0 56 17.5t20 47.5q0 28 -22.5 45.5t-68.5 17.5h-92l6 210h225v-61h-168z" />
    <glyph glyph-name="uni2076" unicode="&#x2076;" horiz-adv-x="356" 
d="M186 562q62 0 100.5 -37t38.5 -91q0 -58 -42 -95.5t-106 -37.5t-106 37.5t-42 93.5q0 46 33 95l112 173h80l-99 -143q15 5 31 5zM120.5 486q-22.5 -21 -22.5 -53t22.5 -52.5t56.5 -20.5t56.5 20.5t22.5 52.5t-22.5 53t-56.5 21t-56.5 -21z" />
    <glyph glyph-name="uni2077" unicode="&#x2077;" horiz-adv-x="332" 
d="M139 307h-78l169 331h-201v62h280v-52z" />
    <glyph glyph-name="uni2078" unicode="&#x2078;" horiz-adv-x="387" 
d="M296.5 676q40.5 -29 40.5 -79q0 -65 -68 -91q78 -27 78 -94q0 -52 -43.5 -81.5t-109.5 -29.5t-109.5 29.5t-43.5 81.5q0 35 21 58.5t56 35.5q-68 27 -68 91q0 50 41 79t103 29t102.5 -29zM142 633q-21 -15 -21 -42t21 -42.5t52 -15.5t52 15.5t21 42.5t-21 42t-52 15
t-52 -15zM135.5 463.5q-23.5 -16.5 -23.5 -44.5q0 -29 23.5 -45.5t58.5 -16.5t58 16.5t23 45.5q0 28 -23 44.5t-58 16.5t-58.5 -16.5z" />
    <glyph glyph-name="uni2079" unicode="&#x2079;" horiz-adv-x="356" 
d="M170 445q-62 0 -100.5 36.5t-38.5 91.5q0 58 42 95t106 37t106 -37t42 -93q0 -47 -32 -96l-113 -172h-79l97 143q-11 -5 -30 -5zM235.5 521q22.5 21 22.5 53t-22.5 52.5t-56.5 20.5t-56.5 -21t-22.5 -52q0 -32 22.5 -53t56.5 -21t56.5 21z" />
    <glyph glyph-name="uni207F" unicode="&#x207f;" horiz-adv-x="425" 
d="M331 611.5q37 -35.5 37 -95.5v-209h-66v188q0 43 -23 67t-63 24q-38 0 -64 -25.5t-26 -67.5v-186h-65v333h64v-54q17 31 45.5 46t63.5 15q60 0 97 -35.5z" />
    <glyph glyph-name="uni2080" unicode="&#x2080;" horiz-adv-x="434" 
d="M303 188.5q39 -24.5 61.5 -70.5t22.5 -107q0 -62 -22.5 -107.5t-61.5 -70t-86 -24.5t-86 24.5t-61.5 70t-22.5 107.5q0 61 22.5 107t61.5 70.5t86 24.5t86 -24.5zM144.5 113q-28.5 -37 -28.5 -102t28.5 -102t72.5 -37t72.5 37t28.5 102t-28.5 102t-72.5 37t-72.5 -37z
" />
    <glyph glyph-name="uni2081" unicode="&#x2081;" horiz-adv-x="273" 
d="M131 -186v307l-107 -42v65l174 68v-398h-67z" />
    <glyph glyph-name="uni2082" unicode="&#x2082;" horiz-adv-x="342" 
d="M165 213q61 0 96.5 -34t35.5 -89q0 -33 -14.5 -60.5t-44.5 -56.5l-97 -98h168v-61h-263v52l146 144q36 36 36 74q0 28 -19 47t-51 19q-27 0 -47 -12.5t-39 -34.5l-41 42q50 68 134 68z" />
    <glyph glyph-name="uni2083" unicode="&#x2083;" horiz-adv-x="342" 
d="M255 183q39 -30 39 -79q0 -32 -17 -55.5t-47 -35.5q34 -11 53 -35.5t19 -56.5q0 -54 -42.5 -83t-102.5 -29q-85 0 -133 53l38 43q37 -37 92 -37q34 0 56.5 15t22.5 44q0 26 -24 41.5t-59 15.5h-50v58h50q33 0 54 15t21 42q0 25 -20 40t-53 15q-53 0 -88 -41l-39 43
q48 57 129 57q62 0 101 -30z" />
    <glyph glyph-name="uni2084" unicode="&#x2084;" horiz-adv-x="347" 
d="M328 -51v-60h-59v-75h-67v75h-183v47l137 271h73l-132 -258h105v80l20 30h47v-110h59z" />
    <glyph glyph-name="uni2085" unicode="&#x2085;" horiz-adv-x="356" 
d="M125 147l-3 -92h46q70 0 108 -31.5t38 -84.5q0 -59 -40.5 -94.5t-103.5 -35.5q-43 0 -78.5 14.5t-60.5 40.5l37 46q18 -18 45.5 -29.5t55.5 -11.5q36 0 56 17.5t20 47.5q0 29 -22.5 46t-68.5 17h-92l6 211h225v-61h-168z" />
    <glyph glyph-name="uni2086" unicode="&#x2086;" horiz-adv-x="356" 
d="M186 70q62 0 100.5 -36.5t38.5 -92.5q0 -58 -42 -95t-106 -37t-106 37t-42 94q0 46 33 96l112 172h80l-99 -143q15 5 31 5zM120.5 -6.5q-22.5 -21.5 -22.5 -53.5t22.5 -52.5t56.5 -20.5t56.5 20.5t22.5 52.5t-22.5 53.5t-56.5 21.5t-56.5 -21.5z" />
    <glyph glyph-name="uni2087" unicode="&#x2087;" horiz-adv-x="332" 
d="M139 -186h-78l169 332h-201v62h280v-52z" />
    <glyph glyph-name="uni2088" unicode="&#x2088;" horiz-adv-x="387" 
d="M296 183.5q41 -29.5 41 -79.5q0 -34 -18.5 -56.5t-49.5 -34.5q36 -12 57 -35t21 -58q0 -52 -43.5 -81.5t-109.5 -29.5t-109.5 29.5t-43.5 81.5q0 35 21 58t56 35q-31 12 -49.5 35t-18.5 56q0 50 41.5 79.5t102.5 29.5t102 -29.5zM142 140.5q-21 -15.5 -21 -42.5t20.5 -42
t52.5 -15t52.5 15t20.5 42t-21 42.5t-52 15.5t-52 -15.5zM135.5 -29q-23.5 -16 -23.5 -44q0 -30 23.5 -46t58.5 -16t58 16t23 46q0 28 -23 44t-58 16t-58.5 -16z" />
    <glyph glyph-name="uni2089" unicode="&#x2089;" horiz-adv-x="356" 
d="M170 -48q-62 0 -100.5 37t-38.5 92q0 57 42 94.5t106 37.5t106 -37t42 -94q0 -47 -32 -96l-113 -172h-79l97 143q-15 -5 -30 -5zM235.5 28.5q22.5 20.5 22.5 52.5t-22.5 53t-56.5 21t-56.5 -21t-22.5 -53q0 -31 22.5 -52t56.5 -21t56.5 20.5z" />
    <glyph glyph-name="Euro" unicode="&#x20ac;" horiz-adv-x="700" 
d="M217 239q23 -80 77 -124.5t133 -44.5q59 0 105 26t77 71l51 -61q-40 -55 -99 -85.5t-134 -30.5q-117 0 -196 66.5t-105 182.5h-87v64h77q-3 24 -3 47q0 25 3 47h-77v65h87q26 115 105 181.5t196 66.5q75 0 134.5 -30t100.5 -84l-54 -63q-31 46 -76.5 71.5t-105.5 25.5
q-79 0 -133 -44.5t-76 -123.5h306v-65h-319q-3 -22 -3 -47q0 -24 3 -47h319v-64h-306z" />
    <glyph glyph-name="uni20BA" unicode="&#x20ba;" horiz-adv-x="700" 
d="M252 224v-141h112q69 0 119 32t90 105l73 -42q-52 -94 -121 -136t-167 -42h-192v184l-95 -43v67l95 45v92l-95 -44v69l95 43v287h86v-246l247 115v-69l-247 -115v-93l247 115v-68z" />
    <glyph glyph-name="uni20BE" unicode="&#x20be;" horiz-adv-x="818" 
d="M116 82h112q-84 40 -127.5 113.5t-43.5 166.5q0 117 63.5 204.5t173.5 117.5v105h66v-92q23 3 49 3q25 0 50 -3v92h65v-106q111 -32 174.5 -121.5t63.5 -210.5h-95q0 88 -37 154.5t-106 92.5v-248h-65v269q-34 4 -50 4q-19 0 -49 -4v-269h-66v250q-70 -27 -106.5 -91.5
t-36.5 -151.5q0 -81 34 -143.5t97.5 -97t148.5 -34.5h248v-82h-563v82z" />
    <glyph glyph-name="uni2100" unicode="&#x2100;" horiz-adv-x="955" 
d="M351 674.5q40 -35.5 40 -105.5v-200h-64v44q-48 -50 -116 -50q-54 0 -86.5 28.5t-32.5 74.5t36.5 72.5t102.5 26.5h94q-1 87 -91 87q-52 0 -99 -35l-25 49q54 44 132 44q69 0 109 -35.5zM240 0l441 700h81l-441 -700h-81zM281.5 429.5q25.5 13.5 44.5 35.5v55h-85
q-41 0 -60.5 -14.5t-19.5 -37.5q0 -22 17.5 -37t48.5 -15q29 0 54.5 13.5zM805.5 322.5q33.5 -15.5 57.5 -43.5l-48 -40q-35 38 -84 38q-45 0 -75.5 -31.5t-30.5 -80.5q0 -50 30 -81.5t76 -31.5q49 0 85 38l47 -40q-24 -28 -57.5 -44t-73.5 -16q-50 0 -89.5 23t-62 62.5
t-22.5 89.5q0 49 22 88.5t62 62t90 22.5q40 0 73.5 -15.5z" />
    <glyph glyph-name="uni2101" unicode="&#x2101;" horiz-adv-x="955" 
d="M353.5 674.5q39.5 -35.5 39.5 -105.5v-200h-64v44q-48 -50 -116 -50q-54 0 -86.5 28.5t-32.5 74.5t36.5 72.5t102.5 26.5h94q-3 87 -90 87q-54 0 -99 -35l-26 49q54 44 132 44q70 0 109.5 -35.5zM241 0l442 700h80l-441 -700h-81zM284 429.5q26 13.5 44 35.5v55h-85
q-41 0 -60.5 -14.5t-19.5 -37.5q0 -22 17.5 -37t47.5 -15t56 13.5zM775.5 274q-30.5 9 -59.5 9q-32 0 -51 -12t-19 -33q0 -34 67 -42l36 -5q53 -7 81.5 -30.5t28.5 -62.5q0 -51 -40 -79.5t-109 -28.5q-40 0 -77.5 10t-65.5 31l27 50q49 -35 117 -35q38 0 59.5 11.5
t21.5 34.5q0 19 -16.5 29t-51.5 15l-33 3q-113 15 -113 95q0 49 36.5 76.5t99.5 27.5q71 0 136 -34l-23 -52q-21 13 -51.5 22z" />
    <glyph glyph-name="uni2105" unicode="&#x2105;" horiz-adv-x="955" 
d="M323 694.5q34 -15.5 57 -43.5l-48 -40q-33 37 -83 37q-46 0 -76 -31t-30 -80q0 -50 30 -81.5t75 -31.5q25 0 47 10t38 28l47 -40q-24 -28 -57.5 -43.5t-72.5 -15.5q-51 0 -90.5 22.5t-62 62t-22.5 89.5q0 49 22.5 88.5t62 62t90.5 22.5q39 0 73 -15.5zM212 0l441 700h81
l-442 -700h-80zM794 315.5q40 -22.5 63 -62t23 -88.5t-23 -89t-63 -63t-90 -23t-90.5 23t-63.5 63t-23 89t23 88.5t63.5 62t90.5 22.5t90 -22.5zM626 245q-31 -32 -31 -80q0 -49 31 -81t78 -32t78.5 32t31.5 81q0 48 -31.5 80t-78.5 32t-78 -32z" />
    <glyph glyph-name="uni2106" unicode="&#x2106;" horiz-adv-x="955" 
d="M320.5 694.5q33.5 -15.5 56.5 -43.5l-47 -40q-33 37 -84 37q-46 0 -76 -31t-30 -80q0 -50 30 -81.5t76 -31.5q49 0 84 38l47 -40q-23 -28 -56.5 -43.5t-73.5 -15.5q-50 0 -90 22.5t-62 62t-22 89.5q0 49 22 88.5t62 62t90 22.5q40 0 73.5 -15.5zM209 0l442 700h81
l-442 -700h-81zM838.5 28.5q-43.5 -38.5 -110.5 -38.5q-66 0 -110 38.5t-44 109.5v193h66v-187q0 -45 24 -68.5t64 -23.5q41 0 65 23.5t24 68.5v187h65v-193q0 -71 -43.5 -109.5z" />
    <glyph glyph-name="uni2113" unicode="&#x2113;" horiz-adv-x="534" 
d="M149 298l1 245q0 83 43 135t114 52q67 0 108.5 -43.5t41.5 -111.5q0 -95 -60.5 -175.5t-165.5 -144.5v-86q0 -50 23 -75t63 -25q53 0 99 36l34 -65q-60 -48 -139 -48q-78 0 -120 44t-42 131v46l-54 -24l-27 72q33 13 81 37zM337.5 453.5q38.5 57.5 38.5 119.5
q0 37 -18.5 59t-50.5 22q-34 0 -55 -30t-21 -83v-194q68 49 106.5 106.5z" />
    <glyph glyph-name="uni2116" unicode="&#x2116;" horiz-adv-x="1212" 
d="M1088 684.5q40 -22.5 63 -62t23 -88.5q0 -48 -23 -87.5t-63 -62t-89 -22.5q-50 0 -90 22.5t-63 62t-23 87.5q0 49 23 88.5t63 62t90 22.5q49 0 89 -22.5zM606 0l-420 548v-548h-90v700h83l420 -547v547h91v-700h-84zM921 613.5q-31 -31.5 -31 -79.5t31 -79t77 -31
q47 0 78 31t31 79t-31 79.5t-78 31.5q-46 0 -77 -31.5zM831 216v73h335v-73h-335z" />
    <glyph glyph-name="uni2117" unicode="&#x2117;" horiz-adv-x="943" 
d="M674.5 700q92.5 -54 146.5 -146t54 -200t-54 -200.5t-146.5 -146.5t-202.5 -54t-203 54t-147 146.5t-54 200.5t54 200t147 146t203 54t202.5 -54zM307 637q-75 -44 -119 -119t-44 -164t44 -164.5t119.5 -119.5t164.5 -44t164.5 44t119.5 119.5t44 164.5t-44 164
t-119.5 119t-164.5 44q-90 0 -165 -44zM626.5 524q43.5 -36 43.5 -97t-43.5 -95.5t-122.5 -34.5h-103v-154h-72v417h175q79 0 122.5 -36zM401 359h101q45 0 69.5 17.5t24.5 50.5q0 34 -24.5 51.5t-69.5 17.5h-101v-137z" />
    <glyph glyph-name="uni2120" unicode="&#x2120;" horiz-adv-x="747" 
d="M185 654q-30 0 -48.5 -9.5t-18.5 -27.5q0 -16 18 -24.5t53 -12.5l22 -2q48 -5 75 -25.5t27 -54.5q0 -48 -38.5 -72.5t-94.5 -24.5q-37 0 -72.5 9t-59.5 25l28 46q48 -29 104 -29q32 0 52 9.5t20 28.5q0 17 -17.5 25t-54.5 11l-24 3q-48 5 -74 25.5t-26 56.5
q0 43 35.5 68.5t91.5 25.5q37 0 65 -7.5t55 -21.5l-24 -47q-50 25 -94 25zM649 622l-80 -185h-59l-81 186v-216h-59v293h83l86 -197l86 197h83v-293h-59v215z" />
    <glyph glyph-name="trademark" unicode="&#x2122;" horiz-adv-x="725" 
d="M627 623l-80 -186h-59l-81 186v-216h-59v294h83l86 -198l87 198h82v-294h-59v216zM137 646h-99v54h256v-54h-99v-239h-58v239z" />
    <glyph glyph-name="uni2126" unicode="&#x2126;" horiz-adv-x="856" 
d="M103.5 196.5q-37.5 69.5 -37.5 156.5q0 102 47 183.5t130 127.5t186 46t185.5 -46t129 -127t46.5 -184q0 -87 -37 -156.5t-103 -112.5h168v-84h-305v73q83 26 133 98t50 172q0 82 -35 146t-95.5 99t-136.5 35t-137 -35t-96 -99t-35 -146q0 -100 50 -172t132 -98v-73h-305
v84h168q-65 43 -102.5 112.5z" />
    <glyph glyph-name="estimated" unicode="&#x212e;" horiz-adv-x="1000" 
d="M243.5 96q12.5 -29 43.5 -50q94 -66 213 -66q96 0 176.5 42t130.5 116l26 -20q-54 -80 -142 -125.5t-191 -45.5q-110 0 -201.5 50.5t-145 142.5t-53.5 210t53.5 210t145 142.5t201.5 50.5t201.5 -50.5t145 -142.5t53.5 -210v-16h-669v-168q0 -41 12.5 -70zM774 531
q0 40 -12.5 69t-42.5 50q-45 34 -101 52t-118 18q-120 0 -213 -65q-31 -22 -43.5 -51t-12.5 -70v-167h543v164z" />
    <glyph glyph-name="uni214D" unicode="&#x214d;" horiz-adv-x="965" 
d="M352 333l-31 85h-160l-31 -85h-69l141 367h79l141 -367h-70zM257 0l441 700h81l-441 -700h-81zM301 477l-60 162l-59 -162h119zM750 313q-35 0 -57 -13t-22 -36q0 -21 21.5 -31.5t64.5 -16.5l27 -3q117 -16 117 -99q0 -59 -45 -89t-111 -30q-44 0 -84.5 11.5t-68.5 31.5
l31 53q58 -37 124 -37q37 0 60.5 13t23.5 38q0 21 -20 31.5t-64 16.5l-30 3q-116 13 -116 102q0 52 40.5 83t105.5 31q45 0 78.5 -9.5t63.5 -27.5l-28 -54q-52 32 -111 32z" />
    <glyph glyph-name="uni2150" unicode="&#x2150;" horiz-adv-x="852" 
d="M131 307v306l-107 -42v65l174 69v-398h-67zM134 0l441 700h81l-442 -700h-80zM659 0h-78l169 331h-202v62h280v-51z" />
    <glyph glyph-name="uni2151" unicode="&#x2151;" horiz-adv-x="861" 
d="M131 307v306l-107 -42v65l174 69v-398h-67zM134 0l441 700h81l-442 -700h-80zM675 138q-62 0 -100.5 37t-38.5 91q0 58 42 95.5t106 37.5t106.5 -37.5t42.5 -93.5q0 -46 -33 -96l-112 -172h-80l98 143q-15 -5 -31 -5zM741 214.5q22 20.5 22 52.5t-22 52.5t-57 20.5
q-34 0 -56.5 -20.5t-22.5 -52.5t22.5 -52.5t56.5 -20.5q35 0 57 20.5z" />
    <glyph glyph-name="uni2152" unicode="&#x2152;" horiz-adv-x="1222" 
d="M131 307v306l-107 -42v65l174 69v-398h-67zM134 0l441 700h81l-442 -700h-80zM646 0v307l-107 -43v65l174 70v-399h-67zM1091 374.5q39 -24.5 61.5 -70.5t22.5 -107q0 -62 -22.5 -108t-61.5 -70.5t-86 -24.5t-86 24.5t-61.5 70.5t-22.5 108q0 61 22.5 107t61.5 70.5
t86 24.5t86 -24.5zM932.5 298.5q-28.5 -36.5 -28.5 -101.5t28.5 -102t72.5 -37t72.5 37t28.5 102t-28.5 101.5t-72.5 36.5t-72.5 -36.5z" />
    <glyph glyph-name="uni2153" unicode="&#x2153;" horiz-adv-x="848" 
d="M131 307v306l-107 -42v65l174 69v-398h-67zM134 0l441 700h81l-442 -700h-80zM760 369q39 -30 39 -79q0 -33 -17 -56.5t-48 -35.5q34 -11 53.5 -34.5t19.5 -56.5q0 -54 -42.5 -83.5t-102.5 -29.5q-42 0 -76 14t-57 40l38 43q39 -37 92 -37q34 0 56.5 15t22.5 44
q0 26 -24 41.5t-60 15.5h-49v57h50q33 0 54 15t21 42q0 26 -20 40.5t-54 14.5q-52 0 -87 -40l-38 42q47 58 128 58q62 0 101 -30z" />
    <glyph glyph-name="uni2154" unicode="&#x2154;" horiz-adv-x="919" 
d="M165 705q61 0 96.5 -34t35.5 -88q0 -34 -14.5 -61.5t-44.5 -56.5l-97 -97h168v-61h-263v51l146 145q36 34 36 74q0 28 -19 46.5t-51 18.5q-27 0 -47 -12.5t-39 -34.5l-41 43q51 67 134 67zM205 0l442 700h81l-442 -700h-81zM831 369q39 -30 39 -79q0 -33 -17 -56.5
t-47 -35.5q34 -11 53.5 -35t19.5 -56q0 -54 -42.5 -83.5t-103.5 -29.5q-84 0 -133 54l38 43q39 -37 92 -37q34 0 57 15t23 44q0 26 -24 41.5t-60 15.5h-49v57h49q33 0 54.5 15t21.5 42q0 26 -20.5 40.5t-53.5 14.5q-28 0 -50 -11t-37 -29l-39 42q47 58 128 58q62 0 101 -30z
" />
    <glyph glyph-name="uni2155" unicode="&#x2155;" horiz-adv-x="861" 
d="M131 307v306l-107 -42v65l174 69v-398h-67zM134 0l441 700h81l-442 -700h-80zM630 332l-3 -91h46q69 0 107 -32t38 -84q0 -59 -40 -95t-103 -36q-43 0 -78.5 15t-60.5 41l37 46q18 -18 45 -29.5t56 -11.5q36 0 56 18t20 47t-22.5 46t-68.5 17h-91l5 210h225v-61h-168z
" />
    <glyph glyph-name="uni2156" unicode="&#x2156;" horiz-adv-x="932" 
d="M165 705q61 0 96.5 -34t35.5 -88q0 -34 -14.5 -61.5t-44.5 -56.5l-97 -97h168v-61h-263v51l146 145q36 34 36 74q0 28 -19 46.5t-51 18.5q-27 0 -47 -12.5t-39 -34.5l-41 43q51 67 134 67zM205 0l442 700h81l-442 -700h-81zM702 332l-3 -91h46q69 0 107 -32t38 -84
q0 -59 -40.5 -95t-103.5 -36q-42 0 -77.5 15t-61.5 41l37 46q19 -18 46 -29.5t56 -11.5q35 0 55 18t20 47t-22 46t-68 17h-92l6 210h224v-61h-167z" />
    <glyph glyph-name="uni2157" unicode="&#x2157;" horiz-adv-x="919" 
d="M255 675.5q39 -29.5 39 -78.5q0 -33 -17 -56.5t-47 -35.5q33 -11 52.5 -35t19.5 -56q0 -55 -42.5 -84t-102.5 -29q-84 0 -133 54l38 43q35 -37 92 -37q35 0 57 15t22 44q0 26 -24 41t-59 15h-50v58h50q33 0 54 15t21 42q0 25 -20 40t-53 15q-54 0 -88 -41l-39 43
q48 57 129 57q62 0 101 -29.5zM192 0l441 700h81l-442 -700h-80zM688 332l-3 -91h46q70 0 108 -32t38 -84q0 -59 -40.5 -95t-103.5 -36q-43 0 -78.5 15t-60.5 41l37 46q18 -18 45 -29.5t56 -11.5q36 0 56 18t20 47t-22.5 46t-68.5 17h-92l6 210h225v-61h-168z" />
    <glyph glyph-name="uni2158" unicode="&#x2158;" horiz-adv-x="924" 
d="M197 0l441 700h81l-442 -700h-80zM328 442v-60h-59v-75h-67v75h-183v47l137 270h73l-132 -257h105v74l23 35h44v-109h59zM693 332l-3 -91h46q69 0 107 -32t38 -84q0 -59 -40.5 -95t-103.5 -36q-42 0 -77.5 15t-61.5 41l38 46q18 -18 45 -29.5t55 -11.5q37 0 57 18t20 47
t-22.5 46t-69.5 17h-91l5 210h226v-61h-168z" />
    <glyph glyph-name="uni2159" unicode="&#x2159;" horiz-adv-x="819" 
d="M131 307v306l-107 -42v65l174 69v-398h-67zM134 0l441 700h81l-442 -700h-80zM649 255q62 0 100.5 -36.5t38.5 -90.5q0 -58 -42 -96t-105 -38q-64 0 -106.5 37.5t-42.5 94.5q0 45 33 95l112 172h80l-98 -143q11 5 30 5zM583.5 179q-22.5 -21 -22.5 -52q0 -32 22.5 -53
t57.5 -21q34 0 56 21t22 53t-22 52.5t-56 20.5q-35 0 -57.5 -21z" />
    <glyph glyph-name="uni215A" unicode="&#x215a;" horiz-adv-x="888" 
d="M125 639l-3 -91h46q70 0 108 -32t38 -84q0 -60 -40.5 -95.5t-103.5 -35.5q-43 0 -78.5 15t-60.5 41l37 46q18 -18 45 -29.5t56 -11.5q36 0 56 17.5t20 47.5q0 28 -22.5 45.5t-68.5 17.5h-92l6 210h225v-61h-168zM202 0l442 700h81l-442 -700h-81zM718 255
q62 0 100.5 -36.5t38.5 -90.5q0 -58 -42 -96t-106 -38t-106.5 37.5t-42.5 94.5q0 42 33 95l112 172h80l-98 -143q11 5 31 5zM652.5 179.5q-22.5 -20.5 -22.5 -52.5t22.5 -53t56.5 -21t56 21t22 53t-22 52.5t-56 20.5t-56.5 -20.5z" />
    <glyph glyph-name="oneeighth" unicode="&#x215b;" horiz-adv-x="880" 
d="M131 307v306l-107 -42v65l174 69v-398h-67zM134 0l441 700h81l-442 -700h-80zM789 369.5q41 -29.5 41 -79.5q0 -65 -67 -91q35 -12 56 -35t21 -58q0 -52 -43.5 -82t-109.5 -30t-109.5 30t-43.5 82q0 35 21 58t56 35q-67 26 -67 91q0 50 41 79.5t102 29.5t102 -29.5z
M635 326.5q-21 -15.5 -21 -42.5t21 -42.5t52 -15.5t52 15.5t21 42.5t-21 42.5t-52 15.5t-52 -15.5zM628.5 157q-23.5 -16 -23.5 -44q0 -30 23.5 -46t58.5 -16t58 16.5t23 45.5q0 28 -23 44t-58 16t-58.5 -16z" />
    <glyph glyph-name="threeeighths" unicode="&#x215c;" horiz-adv-x="938" 
d="M255 675.5q39 -29.5 39 -78.5q0 -33 -17 -56.5t-47 -35.5q33 -11 52.5 -35t19.5 -56q0 -55 -42.5 -84t-102.5 -29q-84 0 -133 54l38 43q35 -37 92 -37q35 0 57 15t22 44q0 26 -24 41t-59 15h-50v58h50q33 0 54 15t21 42q0 25 -20 40t-53 15q-54 0 -88 -41l-39 43
q48 57 129 57q62 0 101 -29.5zM192 0l441 700h81l-442 -700h-80zM847 369.5q41 -29.5 41 -79.5q0 -65 -68 -91q36 -12 57 -35t21 -58q0 -52 -43.5 -82t-109.5 -30t-109.5 30t-43.5 82q0 67 77 93q-68 26 -68 91q0 50 41.5 79.5t102.5 29.5t102 -29.5zM692.5 327
q-20.5 -15 -20.5 -43t20.5 -43t52.5 -15q31 0 52 15.5t21 42.5t-21 42.5t-52 15.5q-32 0 -52.5 -15zM686.5 157q-23.5 -16 -23.5 -44q0 -30 23.5 -46t58.5 -16t58 16.5t23 45.5q0 28 -23 44t-58 16t-58.5 -16z" />
    <glyph glyph-name="fiveeighths" unicode="&#x215d;" horiz-adv-x="949" 
d="M125 639l-3 -91h46q70 0 108 -32t38 -84q0 -60 -40.5 -95.5t-103.5 -35.5q-43 0 -78.5 15t-60.5 41l37 46q18 -18 45 -29.5t56 -11.5q36 0 56 17.5t20 47.5q0 28 -22.5 45.5t-68.5 17.5h-92l6 210h225v-61h-168zM202 0l442 700h81l-442 -700h-81zM857.5 369.5
q41.5 -29.5 41.5 -79.5q0 -64 -68 -91q35 -12 56 -35t21 -58q0 -52 -43.5 -82t-109.5 -30t-109.5 30t-43.5 82q0 35 21 58t56 35q-67 26 -67 91q0 50 41 79.5t102 29.5t102.5 -29.5zM703 326.5q-21 -15.5 -21 -42.5t21 -42.5t52 -15.5t52 15.5t21 42.5t-21 42.5t-52 15.5
t-52 -15.5zM697 157q-23 -16 -23 -44q0 -30 23 -46t58 -16t58 16t23 46q0 28 -23 44t-58 16t-58 -16z" />
    <glyph glyph-name="seveneighths" unicode="&#x215e;" horiz-adv-x="869" 
d="M139 307h-78l169 331h-201v62h280v-52zM123 0l441 700h81l-441 -700h-81zM778 369.5q41 -29.5 41 -79.5q0 -65 -68 -91q36 -12 57 -35t21 -58q0 -52 -43.5 -82t-109.5 -30t-109.5 30t-43.5 82q0 35 21 58t56 35q-68 27 -68 91q0 50 41.5 79.5t102.5 29.5t102 -29.5z
M624 326.5q-21 -15.5 -21 -42.5t21 -42.5t52 -15.5t52 15.5t21 42.5t-21 42.5t-52 15.5t-52 -15.5zM618 157q-23 -16 -23 -44q0 -30 23 -46t58 -16t58 16t23 46q0 28 -23 44t-58 16t-58 -16z" />
    <glyph glyph-name="uni215F" unicode="&#x215f;" horiz-adv-x="505" 
d="M131 307v306l-107 -42v65l174 69v-398h-67zM134 0l441 700h81l-442 -700h-80z" />
    <glyph glyph-name="uni2189" unicode="&#x2189;" horiz-adv-x="971" 
d="M303 680.5q39 -24.5 61.5 -70t22.5 -107.5q0 -61 -22.5 -107t-61.5 -70.5t-86 -24.5t-86 24.5t-61.5 70.5t-22.5 107q0 62 22.5 107.5t61.5 70t86 24.5t86 -24.5zM257 0l441 700h82l-442 -700h-81zM144.5 605q-28.5 -37 -28.5 -102t28.5 -101.5t72.5 -36.5t72.5 36.5
t28.5 101.5t-28.5 102t-72.5 37t-72.5 -37zM883 369q39 -30 39 -79q0 -33 -17 -56.5t-47 -35.5q34 -11 53.5 -35t19.5 -56q0 -54 -42.5 -83.5t-103.5 -29.5q-84 0 -133 54l38 43q39 -37 92 -37q34 0 57 15t23 44q0 26 -24 41.5t-60 15.5h-49v57h49q33 0 54.5 15t21.5 42
q0 26 -20.5 40.5t-53.5 14.5q-28 0 -50 -11t-37 -29l-39 42q47 58 128 58q62 0 101 -30z" />
    <glyph glyph-name="arrowleft" unicode="&#x2190;" horiz-adv-x="1000" 
d="M240 292q28 -23 57.5 -51.5t36.5 -35.5l139 -139l-52 -53l-314 313l314 314l52 -53l-139 -139q-7 -7 -36.5 -35.5t-57.5 -51.5q44 2 99 2h555v-74h-555q-55 0 -99 3z" />
    <glyph glyph-name="arrowup" unicode="&#x2191;" horiz-adv-x="1000" 
d="M466 613q-9 -10 -64 -71l-23 -24l-139 -139l-53 53l313 314l314 -314l-53 -53l-139 139l-23 24q-55 61 -64 71q3 -44 3 -99v-555h-75v555q0 55 3 99z" />
    <glyph glyph-name="arrowright" unicode="&#x2192;" horiz-adv-x="1000" 
d="M761 361q-21 17 -76 69l-18 18l-140 139l53 52l314 -313l-314 -313l-53 52l140 140l16 16q5 5 29.5 28.5t48.5 41.5q-44 -3 -99 -3h-555v75h555q55 0 99 -2z" />
    <glyph glyph-name="arrowdown" unicode="&#x2193;" horiz-adv-x="1000" 
d="M535 91q27 34 87 94l139 140l53 -54l-314 -313l-313 313l53 54l139 -140l16 -16q5 -5 28.5 -29.5t41.5 -48.5q-3 44 -3 99v555h76v-555q0 -55 -3 -99z" />
    <glyph glyph-name="uni2196" unicode="&#x2196;" horiz-adv-x="1000" 
d="M278 491q5 -54 5 -128v-197h-74v444h443v-75h-197q-74 0 -128 5q33 -29 72 -68l393 -392l-53 -53l-392 392q-40 40 -69 72z" />
    <glyph glyph-name="uni2197" unicode="&#x2197;" horiz-adv-x="1000" 
d="M660 535q-54 -5 -128 -5h-197v75l444 -1v-443h-75v197q0 74 5 128q-29 -33 -68 -72l-393 -392l-52 52l392 393q39 39 72 68z" />
    <glyph glyph-name="uni2198" unicode="&#x2198;" horiz-adv-x="1000" 
d="M659 220l50 -54q-5 54 -5 129v197h75v-444h-444v75h197q76 0 128 -6q-33 30 -72 69l-392 392l53 53l392 -393z" />
    <glyph glyph-name="uni2199" unicode="&#x2199;" horiz-adv-x="1000" 
d="M328 112q54 5 128 5h197v-75h-444v444h75v-197q0 -74 -5 -128q22 26 68 72l392 392l53 -53l-392 -392q-29 -29 -72 -68z" />
    <glyph glyph-name="partialdiff" unicode="&#x2202;" horiz-adv-x="593" 
d="M371.5 603q82.5 -77 126.5 -171t44 -191q0 -70 -33 -127.5t-90.5 -90.5t-128.5 -33q-70 0 -127 31.5t-90 86.5t-33 123t31 123t84.5 86.5t119.5 31.5q45 0 84.5 -18.5t67.5 -52.5q-68 161 -291 262l42 63q111 -46 193.5 -123zM207 374q-37 -21 -58.5 -58.5t-21.5 -84.5
t21.5 -84t59 -58t83.5 -21q47 0 84.5 21t59 58t21.5 84t-21.5 84.5t-59 58.5t-84.5 21t-84 -21z" />
    <glyph glyph-name="uni2206" unicode="&#x2206;" horiz-adv-x="704" 
d="M666 0h-628v71l259 630h110l259 -630v-71zM566 85l-214 526l-214 -526h428z" />
    <glyph glyph-name="product" unicode="&#x220f;" horiz-adv-x="731" 
d="M546 -133v748h-360v-748h-90v833h540v-833h-90z" />
    <glyph glyph-name="summation" unicode="&#x2211;" horiz-adv-x="651" 
d="M190 615l266 -300v-51l-268 -312h405v-85h-536v71l304 349l-302 343v70h533v-85h-402z" />
    <glyph glyph-name="minus" unicode="&#x2212;" 
d="M81 228v73h438v-73h-438z" />
    <glyph glyph-name="uni2219" unicode="&#x2219;" 
d="M384 349q35 -35 35 -84t-35 -84t-84 -35t-83.5 34.5t-34.5 84.5t34.5 84.5t83.5 34.5t84 -35z" />
    <glyph glyph-name="radical" unicode="&#x221a;" horiz-adv-x="627" 
d="M213 -133l-199 501h99l155 -396l249 748h94l-287 -853h-111z" />
    <glyph glyph-name="infinity" unicode="&#x221e;" horiz-adv-x="825" 
d="M117 92.5q-42 23.5 -67 67.5t-25 101t25 101t67 67.5t92 23.5q37 0 69.5 -16.5t60.5 -43.5t73 -77q44 49 73 76.5t61.5 44t69.5 16.5q50 0 92 -23.5t67 -67.5t25 -101t-25 -101t-67 -67.5t-92 -23.5q-37 0 -69.5 16.5t-61.5 44t-73 76.5q-44 -49 -72.5 -76.5t-61 -44
t-69.5 -16.5q-50 0 -92 23.5zM271.5 168q29.5 25 90.5 93q-62 69 -91.5 93.5t-61.5 24.5q-45 0 -75.5 -32t-30.5 -86q0 -55 30.5 -86.5t75.5 -31.5q33 0 62.5 25zM692.5 174.5q30.5 31.5 30.5 86.5t-30.5 86.5t-76.5 31.5q-31 0 -59.5 -23.5t-93.5 -94.5q63 -70 92 -94
t61 -24q46 0 76.5 31.5z" />
    <glyph glyph-name="integral" unicode="&#x222b;" horiz-adv-x="336" 
d="M279 631q-81 0 -81 -98v-499q0 -81 -39 -128.5t-118 -47.5q-36 0 -61 7l21 75q20 -4 33 -4q81 0 81 99v499q0 81 39 128.5t118 47.5q29 0 60 -7l-21 -76q-13 4 -32 4z" />
    <glyph glyph-name="congruent" unicode="&#x2245;" 
d="M467 507.5q-33 -15.5 -75 -15.5q-32 0 -54.5 6.5t-51.5 18.5q-26 10 -43 15t-39 5q-24 0 -44 -10.5t-44 -33.5l-43 52q27 32 60 47.5t75 15.5q33 0 55.5 -6.5t51.5 -18.5q24 -11 41.5 -16t39.5 -5q24 0 45 11t43 34l43 -52q-27 -32 -60 -47.5zM81 323v73h438v-73h-438z
M81 133v74h438v-74h-438z" />
    <glyph glyph-name="approxequal" unicode="&#x2248;" 
d="M466.5 315.5q-32.5 -15.5 -74.5 -15.5q-32 0 -54.5 6.5t-51.5 18.5q-24 10 -42 15.5t-40 5.5q-24 0 -44 -10.5t-44 -34.5l-43 53q27 32 60 47t75 15q33 0 55.5 -6.5t51.5 -18.5q26 -11 42.5 -15.5t38.5 -4.5q24 0 44.5 10.5t43.5 33.5l43 -52q-28 -32 -60.5 -47.5z
M467 128.5q-33 -15.5 -75 -15.5q-32 0 -54.5 6.5t-51.5 18.5q-24 10 -42 15.5t-40 5.5q-24 0 -44 -10.5t-44 -34.5l-43 52q27 32 60 47.5t75 15.5q33 0 55.5 -6.5t51.5 -18.5q26 -11 42.5 -15.5t38.5 -4.5q24 0 44.5 10.5t43.5 33.5l43 -52q-27 -32 -60 -47.5z" />
    <glyph glyph-name="uni2259" unicode="&#x2259;" 
d="M300 577l-86 -93h-85l119 147h105l119 -147h-86zM81 323v73h438v-73h-438zM81 133v74h438v-74h-438z" />
    <glyph glyph-name="notequal" unicode="&#x2260;" 
d="M276 133l-58 -121h-77l58 121h-118v74h153l55 116h-208v73h243l58 121h78l-58 -121h117v-73h-152l-56 -116h208v-74h-243z" />
    <glyph glyph-name="lessequal" unicode="&#x2264;" 
d="M192 348l305 -123v-86l-393 168v81l393 170v-87zM497 97v-74h-393v74h393z" />
    <glyph glyph-name="greaterequal" unicode="&#x2265;" 
d="M497 388v-81l-393 -168v86l305 123l-305 123v87zM104 23v74h393v-74h-393z" />
    <glyph glyph-name="dotmath" unicode="&#x22c5;" 
d="M346.5 311.5q19.5 -19.5 19.5 -46.5t-19.5 -46.5t-46.5 -19.5q-26 0 -46 19.5t-20 46.5t20 46.5t46 19.5q27 0 46.5 -19.5z" />
    <glyph glyph-name="uni2300" unicode="&#x2300;" horiz-adv-x="705" 
d="M547 403q47 -64 47 -143q0 -65 -32.5 -120.5t-88 -88t-120.5 -32.5q-80 0 -143 46l-63 -62l-51 52l62 63q-47 63 -47 142q0 65 32.5 121t88 88.5t121.5 32.5q79 0 142 -47l62 62l52 -52zM213 167l233 232q-44 29 -93 29q-46 0 -85 -22.5t-61.5 -61.5t-22.5 -84
q0 -51 29 -93zM437 115.5q39 22.5 61.5 61t22.5 83.5q0 49 -29 93l-231 -232q40 -28 92 -28q45 0 84 22.5z" />
    <glyph glyph-name="uni2460" unicode="&#x2460;" horiz-adv-x="1025" 
d="M736.5 733.5q102.5 -59.5 162.5 -161t60 -221.5q0 -121 -60 -222.5t-162.5 -161.5t-223.5 -60t-223.5 60t-162.5 161.5t-60 222.5q0 120 60 221.5t162.5 161t223.5 59.5t223.5 -59.5zM330 667q-84 -49 -133.5 -133t-49.5 -183q0 -100 49.5 -184t133.5 -133.5t183 -49.5
t183 49.5t133.5 133.5t49.5 184q0 99 -49.5 183t-133.5 133t-183 49t-183 -49zM501 145v331l-126 -50v69l196 77v-427h-70z" />
    <glyph glyph-name="uni2461" unicode="&#x2461;" horiz-adv-x="1025" 
d="M736.5 733.5q102.5 -59.5 162.5 -161t60 -221.5q0 -121 -60 -222.5t-162.5 -161.5t-223.5 -60t-223.5 60t-162.5 161.5t-60 222.5q0 120 60 221.5t162.5 161t223.5 59.5t223.5 -59.5zM330 667q-84 -49 -133.5 -133t-49.5 -183q0 -100 49.5 -184t133.5 -133.5t183 -49.5
t183 49.5t133.5 133.5t49.5 184q0 99 -49.5 183t-133.5 133t-183 49t-183 -49zM510 572q66 0 105 -36.5t39 -95.5q0 -36 -16.5 -65t-48.5 -60l-107 -105h184v-65h-284v55l158 155q41 38 41 79q0 31 -21 51.5t-56 20.5q-30 0 -52 -14t-41 -37l-45 45q52 72 144 72z" />
    <glyph glyph-name="uni2462" unicode="&#x2462;" horiz-adv-x="1025" 
d="M736.5 733.5q102.5 -59.5 162.5 -161t60 -221.5q0 -121 -60 -222.5t-162.5 -161.5t-223.5 -60t-223.5 60t-162.5 161.5t-60 222.5q0 120 60 221.5t162.5 161t223.5 59.5t223.5 -59.5zM330 667q-84 -49 -133.5 -133t-49.5 -183q0 -100 49.5 -184t133.5 -133.5t183 -49.5
t183 49.5t133.5 133.5t49.5 184q0 99 -49.5 183t-133.5 133t-183 49t-183 -49zM617 540q43 -32 43 -84q0 -36 -19.5 -61.5t-53.5 -37.5q38 -11 60 -36.5t22 -60.5q0 -58 -46.5 -89.5t-113.5 -31.5q-45 0 -82.5 15t-62.5 42l41 46q20 -20 46 -30.5t55 -10.5q39 0 64.5 16.5
t25.5 47.5q0 29 -26.5 46t-66.5 17h-56v60h56q38 0 61.5 16t23.5 46q0 27 -23.5 43.5t-61.5 16.5q-57 0 -96 -44l-41 46q51 60 140 60q68 0 111 -32z" />
    <glyph glyph-name="uni2463" unicode="&#x2463;" horiz-adv-x="1025" 
d="M736.5 733.5q102.5 -59.5 162.5 -161t60 -221.5q0 -121 -60 -222.5t-162.5 -161.5t-223.5 -60t-223.5 60t-162.5 161.5t-60 222.5q0 120 60 221.5t162.5 161t223.5 59.5t223.5 -59.5zM330 667q-84 -49 -133.5 -133t-49.5 -183q0 -100 49.5 -184t133.5 -133.5t183 -49.5
t183 49.5t133.5 133.5t49.5 184q0 99 -49.5 183t-133.5 133t-183 49t-183 -49zM672 291v-65h-65v-81h-70v81h-200v50l149 290h77l-142 -275h116v78l19 38h51v-116h65z" />
    <glyph glyph-name="uni2464" unicode="&#x2464;" horiz-adv-x="1025" 
d="M736.5 733.5q102.5 -59.5 162.5 -161t60 -221.5q0 -121 -60 -222.5t-162.5 -161.5t-223.5 -60t-223.5 60t-162.5 161.5t-60 222.5q0 120 60 221.5t162.5 161t223.5 59.5t223.5 -59.5zM330 667q-84 -49 -133.5 -133t-49.5 -183q0 -100 49.5 -184t133.5 -133.5t183 -49.5
t183 49.5t133.5 133.5t49.5 184q0 99 -49.5 183t-133.5 133t-183 49t-183 -49zM466 503l-4 -100h52q75 0 115.5 -34t40.5 -92q0 -62 -44 -100t-112 -38q-46 0 -84.5 16t-65.5 44l36 51q20 -21 50.5 -34t63.5 -13q39 0 61 19t22 50q0 70 -102 70h-96l5 225h244v-64h-182z" />
    <glyph glyph-name="uni2465" unicode="&#x2465;" horiz-adv-x="1025" 
d="M736.5 733.5q102.5 -59.5 162.5 -161t60 -221.5q0 -121 -60 -222.5t-162.5 -161.5t-223.5 -60t-223.5 60t-162.5 161.5t-60 222.5q0 120 60 221.5t162.5 161t223.5 59.5t223.5 -59.5zM330 667q-84 -49 -133.5 -133t-49.5 -183q0 -100 49.5 -184t133.5 -133.5t183 -49.5
t183 49.5t133.5 133.5t49.5 184q0 99 -49.5 183t-133.5 133t-183 49t-183 -49zM519 419q67 0 108.5 -39t41.5 -99q0 -40 -20.5 -72.5t-57 -51t-81.5 -18.5t-81.5 18.5t-57.5 50.5t-21 71q0 48 35 102l121 186h85l-106 -154q15 6 34 6zM448 337.5q-25 -22.5 -25 -56.5
t24.5 -57t62.5 -23q37 0 61.5 23t24.5 57t-24.5 56.5t-61.5 22.5t-62 -22.5z" />
    <glyph glyph-name="uni2466" unicode="&#x2466;" horiz-adv-x="1025" 
d="M736.5 733.5q102.5 -59.5 162.5 -161t60 -221.5q0 -121 -60 -222.5t-162.5 -161.5t-223.5 -60t-223.5 60t-162.5 161.5t-60 222.5q0 120 60 221.5t162.5 161t223.5 59.5t223.5 -59.5zM330 667q-84 -49 -133.5 -133t-49.5 -183q0 -100 49.5 -184t133.5 -133.5t183 -49.5
t183 49.5t133.5 133.5t49.5 184q0 99 -49.5 183t-133.5 133t-183 49t-183 -49zM495 145h-84l185 357h-221v65h304v-55z" />
    <glyph glyph-name="uni2467" unicode="&#x2467;" horiz-adv-x="1025" 
d="M736.5 733.5q102.5 -59.5 162.5 -161t60 -221.5q0 -121 -60 -222.5t-162.5 -161.5t-223.5 -60t-223.5 60t-162.5 161.5t-60 222.5q0 120 60 221.5t162.5 161t223.5 59.5t223.5 -59.5zM330 667q-84 -49 -133.5 -133t-49.5 -183q0 -100 49.5 -184t133.5 -133.5t183 -49.5
t183 49.5t133.5 133.5t49.5 184q0 99 -49.5 183t-133.5 133t-183 49t-183 -49zM623.5 541q44.5 -31 44.5 -85q0 -36 -21 -60.5t-55 -37.5q39 -12 62.5 -37t23.5 -63q0 -55 -47.5 -87t-117.5 -32q-71 0 -118.5 32t-47.5 87q0 38 23.5 63t62.5 37q-34 13 -54.5 37.5
t-20.5 60.5q0 54 44.5 85t110.5 31t110.5 -31zM455.5 495q-22.5 -16 -22.5 -45q0 -30 22.5 -46.5t57.5 -16.5t57.5 16.5t22.5 46.5q0 29 -22.5 45t-57.5 16t-57.5 -16zM449.5 314q-25.5 -17 -25.5 -48t25.5 -48.5t63.5 -17.5t63.5 17.5t25.5 48.5t-25.5 48t-63.5 17
t-63.5 -17z" />
    <glyph glyph-name="uni2468" unicode="&#x2468;" horiz-adv-x="1025" 
d="M736.5 733.5q102.5 -59.5 162.5 -161t60 -221.5q0 -121 -60 -222.5t-162.5 -161.5t-223.5 -60t-223.5 60t-162.5 161.5t-60 222.5q0 120 60 221.5t162.5 161t223.5 59.5t223.5 -59.5zM330 667q-84 -49 -133.5 -133t-49.5 -183q0 -100 49.5 -184t133.5 -133.5t183 -49.5
t183 49.5t133.5 133.5t49.5 184q0 99 -49.5 183t-133.5 133t-183 49t-183 -49zM510 293q-67 0 -108.5 39t-41.5 98q0 62 45 102t114 40q45 0 81.5 -18t57.5 -50t21 -71q0 -49 -35 -102l-122 -186h-84l105 153q-17 -5 -33 -5zM581 374.5q25 22.5 25 56.5t-24.5 56.5
t-62.5 22.5t-62 -22.5t-24 -56.5t24.5 -56.5t61.5 -22.5t62 22.5z" />
    <glyph glyph-name="uni24EA" unicode="&#x24ea;" horiz-adv-x="1025" 
d="M736.5 733.5q102.5 -59.5 162.5 -161t60 -221.5q0 -121 -60 -222.5t-162.5 -161.5t-223.5 -60t-223.5 60t-162.5 161.5t-60 222.5q0 120 60 221.5t162.5 161t223.5 59.5t223.5 -59.5zM330 667q-84 -49 -133.5 -133t-49.5 -183q0 -100 49.5 -184t133.5 -133.5t183 -49.5
t183 49.5t133.5 133.5t49.5 184q0 99 -49.5 183t-133.5 133t-183 49t-183 -49zM607.5 546q42.5 -26 67 -75t24.5 -115t-24.5 -115t-67 -75.5t-94.5 -26.5t-94.5 26.5t-67 75.5t-24.5 115t24.5 115t67 75t94.5 26t94.5 -26zM431.5 466q-32.5 -40 -32.5 -110t32.5 -109.5
t81.5 -39.5t81.5 39.5t32.5 109.5t-32.5 110t-81.5 40t-81.5 -40z" />
    <glyph glyph-name="uni24FF" unicode="&#x24ff;" horiz-adv-x="1025" 
d="M733 727.5q101 -58.5 160 -158.5t59 -218q0 -119 -59 -219t-160 -159t-220 -59t-220 59t-160 159t-59 219q0 118 59 218t160 158.5t220 58.5t220 -58.5zM418.5 546q-42.5 -26 -67 -75t-24.5 -115t24.5 -115t67 -75.5t94.5 -26.5t94.5 26.5t67 75.5t24.5 115t-24.5 115
t-67 75t-94.5 26t-94.5 -26zM594.5 466q32.5 -40 32.5 -110t-32.5 -109.5t-81.5 -39.5t-81.5 39.5t-32.5 109.5t32.5 110t81.5 40t81.5 -40z" />
    <glyph glyph-name="filledbox" unicode="&#x25a0;" horiz-adv-x="900" 
d="M800 0h-700v700h700v-700z" />
    <glyph glyph-name="uni25A1" unicode="&#x25a1;" horiz-adv-x="900" 
d="M800 0h-700v700h700v-700zM722 78v544h-544v-544h544z" />
    <glyph glyph-name="uni25AE" unicode="&#x25ae;" horiz-adv-x="900" 
d="M450 0h-350v700h350v-700z" />
    <glyph glyph-name="triagup" unicode="&#x25b2;" horiz-adv-x="900" 
d="M40 0l410 710l410 -710h-820z" />
    <glyph glyph-name="uni25B3" unicode="&#x25b3;" horiz-adv-x="900" 
d="M40 0l410 710l410 -710h-820zM727 78l-277 478l-276 -478h553z" />
    <glyph glyph-name="uni25B4" unicode="&#x25b4;" 
d="M120 171l181 311l180 -311h-361z" />
    <glyph glyph-name="uni25B8" unicode="&#x25b8;" 
d="M175 506l312 -180l-312 -180v360z" />
    <glyph glyph-name="triagdn" unicode="&#x25bc;" horiz-adv-x="900" 
d="M860 700l-410 -710l-410 710h820z" />
    <glyph glyph-name="uni25BD" unicode="&#x25bd;" horiz-adv-x="900" 
d="M860 700l-410 -710l-410 710h820zM174 622l276 -477l277 477h-553z" />
    <glyph glyph-name="uni25BE" unicode="&#x25be;" 
d="M480 482l-180 -312l-180 312h360z" />
    <glyph glyph-name="uni25C2" unicode="&#x25c2;" 
d="M426 146l-312 180l312 180v-360z" />
    <glyph glyph-name="uni25C6" unicode="&#x25c6;" horiz-adv-x="900" 
d="M450 -19l-369 369l369 369l369 -369z" />
    <glyph glyph-name="uni25C7" unicode="&#x25c7;" horiz-adv-x="900" 
d="M450 -19l-369 369l369 369l369 -369zM450 91l260 259l-260 260l-259 -260z" />
    <glyph glyph-name="lozenge" unicode="&#x25ca;" horiz-adv-x="773" 
d="M342 0l-294 350l294 350h90l293 -350l-293 -350h-90zM156 351l233 -272l229 271l-232 271z" />
    <glyph glyph-name="circle" unicode="&#x25cb;" horiz-adv-x="900" 
d="M265 30q-85 50 -134.5 135t-49.5 185t49.5 185t134.5 135t185 50t185 -50t135 -135t50 -185t-50 -185t-135 -135t-185 -50t-185 50zM597 98q67 39 106 106t39 146q0 80 -39 147t-106 106t-147 39t-146.5 -39t-105.5 -106t-39 -147q0 -79 39 -146t105.5 -106t146.5 -39
t147 39z" />
    <glyph glyph-name="uni25CF" unicode="&#x25cf;" horiz-adv-x="900" 
d="M265 30q-85 50 -134.5 135t-49.5 185t49.5 185t134.5 135t185 50t185 -50t135 -135t50 -185t-50 -185t-135 -135t-185 -50t-185 50z" />
    <glyph glyph-name="uni25D0" unicode="&#x25d0;" horiz-adv-x="900" 
d="M265 30q-85 50 -134.5 135t-49.5 185t49.5 185t134.5 135t185 50t185 -50t135 -135t50 -185t-50 -185t-135 -135t-185 -50t-185 50zM597 98q67 39 106 106t39 146q0 80 -39 147t-106 106t-147 39v-583q80 0 147 39z" />
    <glyph glyph-name="uni25D6" unicode="&#x25d6;" horiz-adv-x="900" 
d="M265 30q-85 50 -134.5 135t-49.5 185t49.5 185t134.5 135t185 50v-740q-100 0 -185 50z" />
    <glyph glyph-name="uni25E7" unicode="&#x25e7;" horiz-adv-x="900" 
d="M800 0h-700v700h700v-700zM722 78v544h-272v-544h272z" />
    <glyph glyph-name="uni2610" unicode="&#x2610;" horiz-adv-x="1100" 
d="M974 -74h-847v848h847v-848zM910 -10v720h-719v-720h719z" />
    <glyph glyph-name="uni2611" unicode="&#x2611;" horiz-adv-x="1100" 
d="M974 -74h-847v848h847v-848zM910 -10v720h-719v-720h719zM487 83l-204 249l47 41l153 -190l297 419l51 -37z" />
    <glyph glyph-name="uni2612" unicode="&#x2612;" horiz-adv-x="1100" 
d="M127 -74v848h847v-848h-847zM191 -10h719v720h-719v-720zM307 548l44 45l199 -199l200 199l44 -45l-200 -199l199 -198l-45 -44l-198 198l-198 -198l-45 44l199 198z" />
    <glyph glyph-name="heart" unicode="&#x2665;" horiz-adv-x="900" 
d="M696 559.5q41 -42.5 41 -105.5q0 -88 -81 -187.5t-206 -187.5q-125 88 -206 187.5t-81 187.5q0 41 19 75t52 53.5t74 19.5q37 0 69.5 -15.5t52.5 -41.5t20 -55q0 29 20 55t53 41.5t69 15.5q63 0 104 -42.5z" />
    <glyph glyph-name="uni2713" unicode="&#x2713;" horiz-adv-x="1100" 
d="M461 51l-227 247l55 51l165 -181l353 477l60 -45z" />
    <glyph glyph-name="uni2715" unicode="&#x2715;" horiz-adv-x="1062" 
d="M1009 -187l-478 479l-477 -479l-60 59l478 478l-478 478l60 59l477 -478l478 478l59 -59l-478 -478l478 -478z" />
    <glyph glyph-name="uni2717" unicode="&#x2717;" horiz-adv-x="1100" 
d="M776 71l-226 227l-225 -227l-54 54l227 225l-227 226l54 53l225 -226l226 226l53 -53l-226 -226l226 -225z" />
    <glyph glyph-name="uni278A" unicode="&#x278a;" horiz-adv-x="1025" 
d="M733 727.5q101 -58.5 160 -158.5t59 -218q0 -119 -59 -219t-160 -159t-220 -59t-220 59t-160 159t-59 219q0 118 59 218t160 158.5t220 58.5t220 -58.5zM375 426l126 50v-331h70v427l-196 -77v-69z" />
    <glyph glyph-name="uni278B" unicode="&#x278b;" horiz-adv-x="1025" 
d="M733 727.5q101 -58.5 160 -158.5t59 -218q0 -119 -59 -219t-160 -159t-220 -59t-220 59t-160 159t-59 219q0 118 59 218t160 158.5t220 58.5t220 -58.5zM452 492q22 14 52 14q35 0 56 -20.5t21 -51.5q0 -41 -41 -79l-158 -155v-55h284v65h-184l107 105q32 31 48.5 60
t16.5 65q0 59 -39 95.5t-105 36.5q-92 0 -144 -72l45 -45q19 23 41 37z" />
    <glyph glyph-name="uni278C" unicode="&#x278c;" horiz-adv-x="1025" 
d="M733 727.5q101 -58.5 160 -158.5t59 -218q0 -119 -59 -219t-160 -159t-220 -59t-220 59t-160 159t-59 219q0 118 59 218t160 158.5t220 58.5t220 -58.5zM366 512l41 -46q39 44 96 44q38 0 61.5 -16.5t23.5 -43.5q0 -30 -23.5 -46t-61.5 -16h-56v-60h56q40 0 66.5 -17
t26.5 -46q0 -31 -25.5 -47.5t-64.5 -16.5q-29 0 -55 10.5t-46 30.5l-41 -46q25 -27 62.5 -42t82.5 -15q67 0 113.5 31.5t46.5 89.5q0 35 -22 60.5t-60 36.5q34 12 53.5 37.5t19.5 61.5q0 52 -43 84t-111 32q-89 0 -140 -60z" />
    <glyph glyph-name="uni278D" unicode="&#x278d;" horiz-adv-x="1025" 
d="M293 -27q-101 59 -160 159t-59 219q0 118 59 218t160 158.5t220 58.5t220 -58.5t160 -158.5t59 -218q0 -119 -59 -219t-160 -159t-220 -59t-220 59zM607 145v81h65v65h-65v116h-48l-22 -43v-73h-116l142 275h-77l-149 -290v-50h200v-81h70z" />
    <glyph glyph-name="uni278E" unicode="&#x278e;" horiz-adv-x="1025" 
d="M733 727.5q101 -58.5 160 -158.5t59 -218q0 -119 -59 -219t-160 -159t-220 -59t-220 59t-160 159t-59 219q0 118 59 218t160 158.5t220 58.5t220 -58.5zM399 342h96q102 0 102 -70q0 -31 -22 -50t-61 -19q-33 0 -63.5 13t-50.5 34l-36 -51q27 -28 65.5 -44t84.5 -16
q68 0 112 38t44 100q0 58 -40.5 92t-115.5 34h-52l4 100h182v64h-244z" />
    <glyph glyph-name="uni278F" unicode="&#x278f;" horiz-adv-x="1025" 
d="M733 727.5q101 -58.5 160 -158.5t59 -218q0 -119 -59 -219t-160 -159t-220 -59t-220 59t-160 159t-59 219q0 118 59 218t160 158.5t220 58.5t220 -58.5zM385 381q-35 -54 -35 -102q0 -39 21 -71t57.5 -50.5t81.5 -18.5t81.5 18.5t57 51t20.5 72.5q0 60 -41.5 99
t-108.5 39q-19 0 -34 -6l106 154h-85zM571.5 337.5q24.5 -22.5 24.5 -56.5t-24.5 -57t-61.5 -23q-38 0 -62.5 23t-24.5 57t25 56.5t62 22.5t61.5 -22.5z" />
    <glyph glyph-name="uni2790" unicode="&#x2790;" horiz-adv-x="1025" 
d="M733 727.5q101 -58.5 160 -158.5t59 -218q0 -119 -59 -219t-160 -159t-220 -59t-220 59t-160 159t-59 219q0 118 59 218t160 158.5t220 58.5t220 -58.5zM375 502h221l-185 -357h84l184 367v55h-304v-65z" />
    <glyph glyph-name="uni2791" unicode="&#x2791;" horiz-adv-x="1025" 
d="M733 727.5q101 -58.5 160 -158.5t59 -218q0 -119 -59 -219t-160 -159t-220 -59t-220 59t-160 159t-59 219q0 118 59 218t160 158.5t220 58.5t220 -58.5zM402.5 541q-44.5 -31 -44.5 -85q0 -36 20.5 -60.5t55.5 -37.5q-39 -12 -62.5 -37t-23.5 -63q0 -55 47.5 -87
t117.5 -32t117.5 32t47.5 87q0 38 -23.5 63t-62.5 37q35 13 55.5 37.5t20.5 60.5q0 54 -44.5 85t-110.5 31t-110.5 -31zM570 494.5q23 -16.5 23 -44.5q0 -30 -23 -46.5t-57 -16.5t-57 16.5t-23 46.5q0 28 23 44.5t57 16.5t57 -16.5zM576.5 314q25.5 -17 25.5 -48
t-25.5 -48.5t-63.5 -17.5t-63 17.5t-25 48.5t25 48t63 17t63.5 -17z" />
    <glyph glyph-name="uni2792" unicode="&#x2792;" horiz-adv-x="1025" 
d="M733 727.5q101 -58.5 160 -158.5t59 -218q0 -119 -59 -219t-160 -159t-220 -59t-220 59t-160 159t-59 219q0 118 59 218t160 158.5t220 58.5t220 -58.5zM644 331q35 53 35 102q0 39 -21 71t-57.5 50t-81.5 18q-69 0 -114 -40t-45 -102q0 -59 41.5 -98t108.5 -39
q16 0 33 5l-105 -153h84zM457.5 374.5q-24.5 22.5 -24.5 56.5t24 56.5t62 22.5t62.5 -22.5t24.5 -56.5t-25 -56.5t-62 -22.5t-61.5 22.5z" />
    <glyph glyph-name="uni2B51" unicode="&#x2b51;" horiz-adv-x="900" 
d="M586 278l85 -259l-220 160l-220 -160l84 259l-221 160h273l84 259l84 -259h271z" />
    <glyph glyph-name="uni2B52" unicode="&#x2b52;" horiz-adv-x="900" 
d="M586 278l85 -259l-220 160l-220 -160l84 259l-221 160h273l84 259l84 -259h271zM402 390h-159l129 -93l-49 -152l128 94l128 -94l-49 152l128 93h-158l-49 150z" />
    <glyph glyph-name="uni2E17" unicode="&#x2e17;" horiz-adv-x="458" 
d="M87 273v71l284 103v-71zM87 106v71l284 103v-71z" />
    <glyph glyph-name="uni2E38" unicode="&#x2e38;" horiz-adv-x="372" 
d="M220 503h104v-66h-104v-105h-68v105h-104v66h104v217h68v-217z" />
    <glyph glyph-name="uniEA00" unicode="&#xea00;" horiz-adv-x="900" 
d="M586 278l85 -259l-220 160l-220 -160l84 259l-221 160h273l84 259l84 -259h271zM451 239l128 -94l-49 152l128 93h-158l-49 150v-301z" />
    <glyph glyph-name="uniEA01" unicode="&#xea01;" horiz-adv-x="900" 
d="M315 278l-221 160h273l84 259v-518l-220 -160z" />
    <glyph glyph-name="uniFEFF" unicode="&#xfeff;" horiz-adv-x="0" 
 />
    <glyph glyph-name="i.latn_TRK" horiz-adv-x="250" 
d="M165.5 681.5q16.5 -16.5 16.5 -40.5t-16.5 -40t-40.5 -16t-40.5 16t-16.5 40t16.5 40.5t40.5 16.5t40.5 -16.5zM83 0v476h84v-476h-84z" />
    <glyph glyph-name="j.latn_NLD" horiz-adv-x="251" 
d="M163 699h104l-129 -153h-81zM136 -172.5q-33 -35.5 -89 -35.5q-18 0 -37 4t-32 11l16 74q22 -10 43 -10q48 0 48 60v545h84v-549q0 -64 -33 -99.5z" />
    <glyph glyph-name="Ldot.latn_CAT" horiz-adv-x="603" 
d="M96 0v700h90v-615h398v-85h-488zM468 396.5q17 -17.5 17 -42.5t-17 -41.5t-42 -16.5t-41.5 16.5t-16.5 41.5t16.5 42.5t41.5 17.5t42 -17.5z" />
    <glyph glyph-name="ldot.latn_CAT" horiz-adv-x="316" 
d="M83 0v720h84v-720h-84zM323.5 404.5q16.5 -16.5 16.5 -39.5t-16.5 -39t-39.5 -16t-39 16t-16 39t16 39.5t39 16.5t39.5 -16.5z" />
    <glyph glyph-name="zero.numr" horiz-adv-x="434" 
d="M303 680.5q39 -24.5 61.5 -70t22.5 -107.5q0 -61 -22.5 -107t-61.5 -70.5t-86 -24.5t-86 24.5t-61.5 70.5t-22.5 107q0 62 22.5 107.5t61.5 70t86 24.5t86 -24.5zM144.5 605q-28.5 -37 -28.5 -102t28.5 -101.5t72.5 -36.5t72.5 36.5t28.5 101.5t-28.5 102t-72.5 37
t-72.5 -37z" />
    <glyph glyph-name="one.numr" horiz-adv-x="273" 
d="M131 307v306l-107 -42v65l174 69v-398h-67z" />
    <glyph glyph-name="two.numr" horiz-adv-x="342" 
d="M165 705q61 0 96.5 -34t35.5 -88q0 -34 -14.5 -61.5t-44.5 -56.5l-97 -97h168v-61h-263v51l146 145q36 34 36 74q0 28 -19 46.5t-51 18.5q-27 0 -47 -12.5t-39 -34.5l-41 43q51 67 134 67z" />
    <glyph glyph-name="three.numr" horiz-adv-x="342" 
d="M255 675.5q39 -29.5 39 -78.5q0 -33 -17 -56.5t-47 -35.5q33 -11 52.5 -35t19.5 -56q0 -55 -42.5 -84t-102.5 -29q-84 0 -133 54l38 43q35 -37 92 -37q35 0 57 15t22 44q0 26 -24 41t-59 15h-50v58h50q33 0 54 15t21 42q0 25 -20 40t-53 15q-54 0 -88 -41l-39 43
q48 57 129 57q62 0 101 -29.5z" />
    <glyph glyph-name="four.numr" horiz-adv-x="347" 
d="M328 442v-60h-59v-75h-67v75h-183v47l137 270h73l-132 -257h105v75l18 34h49v-109h59z" />
    <glyph glyph-name="five.numr" horiz-adv-x="356" 
d="M125 639l-3 -91h46q70 0 108 -32t38 -84q0 -60 -40.5 -95.5t-103.5 -35.5q-43 0 -78.5 15t-60.5 41l37 46q18 -18 45 -29.5t56 -11.5q36 0 56 17.5t20 47.5q0 28 -22.5 45.5t-68.5 17.5h-92l6 210h225v-61h-168z" />
    <glyph glyph-name="six.numr" horiz-adv-x="356" 
d="M186 562q62 0 100.5 -37t38.5 -91q0 -58 -42 -95.5t-106 -37.5t-106 37.5t-42 93.5q0 46 33 95l112 173h80l-99 -143q15 5 31 5zM120.5 486q-22.5 -21 -22.5 -53t22.5 -52.5t56.5 -20.5t56.5 20.5t22.5 52.5t-22.5 53t-56.5 21t-56.5 -21z" />
    <glyph glyph-name="seven.numr" horiz-adv-x="332" 
d="M139 307h-78l169 331h-201v62h280v-52z" />
    <glyph glyph-name="eight.numr" horiz-adv-x="387" 
d="M296.5 676q40.5 -29 40.5 -79q0 -65 -68 -91q78 -27 78 -94q0 -52 -43.5 -81.5t-109.5 -29.5t-109.5 29.5t-43.5 81.5q0 35 21 58.5t56 35.5q-68 27 -68 91q0 50 41 79t103 29t102.5 -29zM142 633q-21 -15 -21 -42t21 -42.5t52 -15.5t52 15.5t21 42.5t-21 42t-52 15
t-52 -15zM135.5 463.5q-23.5 -16.5 -23.5 -44.5q0 -29 23.5 -45.5t58.5 -16.5t58 16.5t23 45.5q0 28 -23 44.5t-58 16.5t-58.5 -16.5z" />
    <glyph glyph-name="nine.numr" horiz-adv-x="356" 
d="M170 445q-62 0 -100.5 36.5t-38.5 91.5q0 58 42 95t106 37t106 -37t42 -93q0 -47 -32 -96l-113 -172h-79l97 143q-11 -5 -30 -5zM235.5 521q22.5 21 22.5 53t-22.5 52.5t-56.5 20.5t-56.5 -21t-22.5 -52q0 -32 22.5 -53t56.5 -21t56.5 21z" />
    <glyph glyph-name="zero.dnom" horiz-adv-x="434" 
d="M303 374.5q39 -24.5 61.5 -70.5t22.5 -107q0 -62 -22.5 -108t-61.5 -70.5t-86 -24.5t-86 24.5t-61.5 70.5t-22.5 108q0 61 22.5 107t61.5 70.5t86 24.5t86 -24.5zM144.5 298.5q-28.5 -36.5 -28.5 -101.5t28.5 -102t72.5 -37t72.5 37t28.5 102t-28.5 101.5t-72.5 36.5
t-72.5 -36.5z" />
    <glyph glyph-name="one.dnom" horiz-adv-x="273" 
d="M131 0v307l-107 -43v65l174 70v-399h-67z" />
    <glyph glyph-name="two.dnom" horiz-adv-x="342" 
d="M165 399q61 0 96.5 -34t35.5 -89q0 -33 -14.5 -60.5t-44.5 -56.5l-97 -98h168v-61h-263v52l146 144q36 36 36 74q0 29 -19 47t-51 18q-27 0 -47 -12t-39 -34l-41 43q51 67 134 67z" />
    <glyph glyph-name="three.dnom" horiz-adv-x="342" 
d="M255 369q39 -30 39 -79q0 -33 -17 -56.5t-47 -35.5q33 -11 52.5 -34.5t19.5 -56.5q0 -54 -42.5 -83.5t-102.5 -29.5q-84 0 -133 54l38 43q37 -37 92 -37q34 0 56.5 15t22.5 44q0 26 -24 41.5t-59 15.5h-50v57h50q33 0 54 15t21 42q0 26 -20 40.5t-53 14.5q-53 0 -88 -40
l-39 42q49 58 129 58q62 0 101 -30z" />
    <glyph glyph-name="four.dnom" horiz-adv-x="347" 
d="M328 135v-60h-59v-75h-67v75h-183v47l137 271h73l-132 -258h105v72l19 38h48v-110h59z" />
    <glyph glyph-name="five.dnom" horiz-adv-x="356" 
d="M125 332l-3 -91h46q70 0 108 -32t38 -84q0 -59 -40.5 -95t-103.5 -36q-43 0 -78.5 15t-60.5 41l37 46q18 -18 45.5 -29.5t55.5 -11.5q36 0 56 18t20 47t-22.5 46t-68.5 17h-92l6 210h225v-61h-168z" />
    <glyph glyph-name="six.dnom" horiz-adv-x="356" 
d="M186 255q62 0 100.5 -36.5t38.5 -90.5q0 -58 -42 -96t-106 -38t-106 37.5t-42 94.5q0 45 33 95l112 172h80l-99 -143q11 5 31 5zM120.5 179.5q-22.5 -20.5 -22.5 -52.5t22.5 -53t56.5 -21t56.5 21t22.5 53t-22.5 52.5t-56.5 20.5t-56.5 -20.5z" />
    <glyph glyph-name="seven.dnom" horiz-adv-x="332" 
d="M139 0h-78l169 331h-201v62h280v-51z" />
    <glyph glyph-name="eight.dnom" horiz-adv-x="387" 
d="M296 369.5q41 -29.5 41 -79.5q0 -65 -68 -91q36 -12 57 -35t21 -58q0 -52 -43.5 -82t-109.5 -30t-109.5 30t-43.5 82q0 35 21 58t56 35q-68 27 -68 91q0 50 41.5 79.5t102.5 29.5t102 -29.5zM142 326.5q-21 -15.5 -21 -42.5t21 -42.5t52 -15.5t52 15.5t21 42.5t-21 42.5
t-52 15.5t-52 -15.5zM135.5 157q-23.5 -16 -23.5 -44q0 -30 23.5 -46t58.5 -16t58 16t23 46q0 28 -23 44t-58 16t-58.5 -16z" />
    <glyph glyph-name="nine.dnom" horiz-adv-x="356" 
d="M170 138q-62 0 -100.5 37t-38.5 91q0 58 42 95.5t106 37.5t106 -37.5t42 -93.5q0 -47 -32 -96l-113 -172h-79l97 143q-15 -5 -30 -5zM236 214.5q22 20.5 22 52.5t-22 52.5t-57 20.5q-34 0 -56.5 -20.5t-22.5 -52.5t22.5 -52.5t56.5 -20.5q35 0 57 20.5z" />
    <glyph glyph-name="space.frac" horiz-adv-x="52" 
 />
    <glyph glyph-name="b.ordn" horiz-adv-x="443" 
d="M324 624.5q37 -22.5 58.5 -62t21.5 -88.5t-21.5 -88.5t-58.5 -62.5t-82 -23q-77 0 -117 64v-57h-64v502h65v-224q18 29 47.5 45.5t68.5 16.5q45 0 82 -22.5zM153 554q-30 -32 -30 -80q0 -49 30 -80.5t77 -31.5t77.5 32t30.5 80t-30.5 80t-77.5 32t-77 -32z" />
    <glyph glyph-name="c.ordn" horiz-adv-x="380" 
d="M285.5 631.5q33.5 -15.5 57.5 -43.5l-48 -40q-35 38 -84 38q-45 0 -75.5 -31.5t-30.5 -80.5q0 -50 30 -81t76 -31q50 0 85 37l47 -40q-24 -28 -57.5 -43.5t-73.5 -15.5q-51 0 -90.5 22.5t-61.5 62t-22 89.5q0 49 22 88.5t61.5 62t90.5 22.5q40 0 73.5 -15.5z" />
    <glyph glyph-name="d.ordn" horiz-adv-x="443" 
d="M269.5 630q29.5 -17 47.5 -47v226h65v-502h-64v58q-39 -65 -117 -65q-46 0 -83 23t-58.5 62.5t-21.5 88.5t21.5 88.5t58.5 62t83 22.5q39 0 68.5 -17zM135.5 554q-30.5 -32 -30.5 -80t30 -80t78 -32q47 0 77 31.5t30 80.5q0 48 -30.5 80t-76.5 32q-47 0 -77.5 -32z" />
    <glyph glyph-name="e.ordn" horiz-adv-x="403" 
d="M287.5 625q36.5 -22 57.5 -61t21 -89q0 -11 -2 -23h-258q5 -45 34 -70t72 -25q59 0 99 40l39 -42q-55 -55 -141 -55q-76 0 -123.5 48t-47.5 125q0 50 21.5 90t59.5 62t86 22q46 0 82.5 -22zM137.5 565.5q-26.5 -25.5 -31.5 -67.5h193q-5 42 -30.5 67.5t-63.5 25.5
q-41 0 -67.5 -25.5z" />
    <glyph glyph-name="h.ordn" horiz-adv-x="425" 
d="M171.5 632.5q28.5 14.5 62.5 14.5q60 0 97 -35.5t37 -95.5v-209h-66v188q0 43 -23 67t-63 24q-38 0 -64 -25.5t-26 -67.5v-186h-65v502h65v-220q17 29 45.5 43.5z" />
    <glyph glyph-name="l.ordn" horiz-adv-x="186" 
d="M61 307v502h65v-502h-65z" />
    <glyph glyph-name="m.ordn" horiz-adv-x="666" 
d="M572.5 611.5q37.5 -35.5 37.5 -95.5v-209h-66v188q0 43 -23 67t-64 24q-38 0 -63.5 -25.5t-25.5 -67.5v-186h-66v188q0 43 -23 67t-63 24q-38 0 -64 -25.5t-26 -67.5v-186h-65v333h64v-54q17 31 45.5 46t63.5 15q41 0 72.5 -18t46.5 -50q18 34 50 51t71 17
q61 0 98.5 -35.5z" />
    <glyph glyph-name="r.ordn" horiz-adv-x="297" 
d="M275 638l-10 -65q-25 11 -57 11q-37 0 -59.5 -24.5t-22.5 -67.5v-185h-65v333h64v-50q14 28 39.5 42.5t58.5 14.5q31 0 52 -9z" />
    <glyph glyph-name="s.ordn" horiz-adv-x="358" 
d="M241 583q-30 9 -59 9q-32 0 -50.5 -12t-18.5 -33q0 -35 67 -41l35 -5q53 -7 81.5 -30.5t28.5 -63.5q0 -50 -39.5 -78.5t-108.5 -28.5q-40 0 -78 10t-66 30l27 50q49 -35 117 -35q39 0 60 12t21 35q0 36 -68 43l-33 4q-112 13 -112 95q0 48 36.5 75.5t99.5 27.5
q75 0 135 -34l-23 -51q-22 12 -52 21z" />
    <glyph glyph-name="t.ordn" horiz-adv-x="334" 
d="M159 582v-150q0 -36 17 -53t46 -17q35 0 70 24l24 -51q-45 -35 -105 -35q-57 0 -87.5 32.5t-30.5 94.5v155h-71v58h71v105h66v-105h138v-58h-138z" />
    <glyph glyph-name="u.ordn" horiz-adv-x="428" 
d="M324.5 338q-43.5 -38 -110.5 -38t-110 38t-43 109v193h65v-187q0 -44 24 -67.5t64 -23.5t64 23.5t24 67.5v187h66v-193q0 -71 -43.5 -109z" />
    <glyph glyph-name="egrave.ordn" horiz-adv-x="403" 
d="M101 797h79l75 -109h-63zM85.5 348q-47.5 48 -47.5 125q0 50 21.5 90t59.5 62t86 22q46 0 82.5 -22t57.5 -61t21 -89q0 -11 -2 -23h-258q5 -45 34 -70t72 -25q59 0 99 40l39 -42q-55 -55 -141 -55q-76 0 -123.5 48zM299 498q-5 42 -30.5 67.5t-63.5 25.5
q-41 0 -67.5 -25.5t-31.5 -67.5h193z" />
    <glyph glyph-name="zero.osf" horiz-adv-x="670" 
d="M475 499q63 -34 100 -95.5t37 -141.5t-37 -142t-100 -96t-140 -34q-76 0 -139.5 34t-100.5 96t-37 142t37 141.5t100 95.5t140 34t140 -34zM238.5 429.5q-43.5 -23.5 -69 -67t-25.5 -100.5t25.5 -100.5t69 -67.5t96.5 -24q54 0 97.5 23.5t69 67t25.5 101.5
q0 57 -25.5 100.5t-69 67t-97.5 23.5q-53 0 -96.5 -23.5z" />
    <glyph glyph-name="one.osf" horiz-adv-x="383" 
d="M205 0v419l-173 -57v84l258 88v-534h-85z" />
    <glyph glyph-name="two.osf" horiz-adv-x="539" 
d="M256 532q62 0 110.5 -23.5t75.5 -64.5t27 -92q0 -63 -39.5 -112.5t-112.5 -92.5l-112 -66h293v-81h-441v69l208 130q62 38 88.5 73.5t26.5 72.5q0 45 -35 76t-94 31q-53 0 -89.5 -22t-66.5 -58l-57 53q85 107 218 107z" />
    <glyph glyph-name="three.osf" horiz-adv-x="548" 
d="M371.5 508q52.5 -24 81.5 -68t29 -100q0 -59 -29.5 -100.5t-82.5 -63.5q59 -20 93.5 -63t34.5 -102q0 -64 -33.5 -109t-88.5 -67t-119 -22q-72 0 -130.5 24t-97.5 68l54 57q33 -33 77.5 -51.5t94.5 -18.5q66 0 109.5 31.5t43.5 91.5q0 57 -46 90t-115 33h-90v77h89
q65 0 106.5 31t41.5 89q0 54 -42 86t-106 32q-49 0 -88 -22t-64 -56l-59 53q32 48 87.5 76t128.5 28q68 0 120.5 -24z" />
    <glyph glyph-name="four.osf" horiz-adv-x="574" 
d="M550 81v-81h-126v-178h-85v178h-315v65l235 457h92l-227 -441h215v173h85v-173h126z" />
    <glyph glyph-name="five.osf" horiz-adv-x="571" 
d="M179 442l-6 -198h98q81 0 136.5 -27t83.5 -74.5t28 -107.5q0 -69 -32 -119.5t-87.5 -77t-122.5 -26.5q-150 0 -239 107l54 58q33 -40 82 -62.5t102 -22.5q72 0 112.5 38.5t40.5 97.5q0 63 -44 100t-140 37h-151l8 357h383v-80h-306z" />
    </font>
</defs>
</svg>
